STARTFONT 2.1
COMMENT
COMMENT Converted from OpenType font "MultiTypeGamerChess-Regular.otf" by "otf2bdf 3.0".
COMMENT
FONT -FreeType-MultiType Gamer Chess-Medium-R-Normal--33-240-100-100-P-205-ISO10646-1
SIZE 24 100 100
FONTBOUNDINGBOX 86 58 -29 -10
STARTPROPERTIES 19
FOUNDRY "FreeType"
FAMILY_NAME "MultiType Gamer Chess"
WEIGHT_NAME "Medium"
SLANT "R"
SETWIDTH_NAME "Normal"
ADD_STYLE_NAME ""
PIXEL_SIZE 33
POINT_SIZE 240
RESOLUTION_X 100
RESOLUTION_Y 100
SPACING "P"
AVERAGE_WIDTH 205
CHARSET_REGISTRY "ISO10646"
CHARSET_ENCODING "1"
FONT_ASCENT 36
FONT_DESCENT 3
COPYRIGHT "-FreeType-MultiType Gamer Chess-Medium-R-Normal--33-240-100-100-P-205-ISO10646-1"
_OTF_FONTFILE "MultiTypeGamerChess-Regular.otf"
_OTF_PSNAME "MultiTypeGamer-Chess"
ENDPROPERTIES
CHARS 758
STARTCHAR 0020
ENCODING 32
SWIDTH 300 0
DWIDTH 10 0
BBX 0 0 0 0
BITMAP
ENDCHAR
STARTCHAR 0021
ENCODING 33
SWIDTH 300 0
DWIDTH 10 0
BBX 6 25 2 0
BITMAP
CC
CC
30
CC
CC
30
30
CC
30
30
CC
CC
30
CC
CC
30
30
00
00
00
CC
CC
30
CC
CC
ENDCHAR
STARTCHAR 0022
ENCODING 34
SWIDTH 450 0
DWIDTH 15 0
BBX 13 8 1 20
BITMAP
D8D8
6030
6030
D8D8
D8D8
6030
D8D8
D8D8
ENDCHAR
STARTCHAR 0023
ENCODING 35
SWIDTH 900 0
DWIDTH 30 0
BBX 26 31 2 -3
BITMAP
06619800
01806000
01806000
06619800
06619800
01806000
06619800
06619800
CDB36CC0
CDB36CC0
366D9B00
CDB36CC0
CDB36CC0
06619800
06619800
01806000
06619800
06619800
CDB36CC0
CDB36CC0
366D9B00
CDB36CC0
CDB36CC0
06619800
06619800
01806000
06619800
06619800
01806000
01806000
06619800
ENDCHAR
STARTCHAR 0024
ENCODING 36
SWIDTH 690 0
DWIDTH 23 0
BBX 19 31 2 -3
BITMAP
01B000
006000
006000
0DB360
0DB360
366D80
CDB360
CDB360
300000
300000
CC0000
300000
300000
CDB300
CDB300
366D80
0DB360
0DB360
000180
000180
000360
000180
000180
CDB360
CDB360
366D80
CDB300
CDB300
006000
006000
01B000
ENDCHAR
STARTCHAR 0025
ENCODING 37
SWIDTH 1290 0
DWIDTH 43 0
BBX 39 25 2 0
BITMAP
0DB00CC000
0DB00CC000
366C030000
CDB30CC000
CDB30CC000
300C1B0000
300C1B0000
CC330C0000
300C1B0000
300C1B0000
CDB36C1B30
CDB36C1B30
366C1866D8
0DB06CDB36
0DB06CDB36
0001986018
0001986018
000060D836
0001986018
0001986018
000360DB36
000360DB36
00018066D8
0003601B30
0003601B30
ENDCHAR
STARTCHAR 0026
ENCODING 38
SWIDTH 780 0
DWIDTH 26 0
BBX 22 25 2 0
BITMAP
0DB300
0DB300
366C00
CDB300
CDB300
300000
300000
CC0360
360180
360180
0DB36C
0DB36C
066D98
0DB36C
0DB36C
360180
360180
CC0360
300180
300180
CDB36C
CDB36C
366D98
0DB36C
0DB36C
ENDCHAR
STARTCHAR 0027
ENCODING 39
SWIDTH 180 0
DWIDTH 6 0
BBX 5 8 1 20
BITMAP
D8
60
60
D8
D8
60
D8
D8
ENDCHAR
STARTCHAR 0028
ENCODING 40
SWIDTH 300 0
DWIDTH 10 0
BBX 9 39 2 -7
BITMAP
0D80
0D80
3600
3600
CC00
3000
3000
CC00
CC00
3000
CC00
CC00
3000
3000
CC00
3000
3000
CC00
CC00
3000
CC00
CC00
3000
3000
CC00
3000
3000
CC00
CC00
3000
CC00
CC00
3000
3000
CC00
3600
3600
0D80
0D80
ENDCHAR
STARTCHAR 0029
ENCODING 41
SWIDTH 300 0
DWIDTH 10 0
BBX 9 39 -1 -7
BITMAP
D800
D800
3600
3600
1980
0600
0600
1980
1980
0600
1980
1980
0600
0600
1980
0600
0600
1980
1980
0600
1980
1980
0600
0600
1980
0600
0600
1980
1980
0600
1980
1980
0600
0600
1980
3600
3600
D800
D800
ENDCHAR
STARTCHAR 002A
ENCODING 42
SWIDTH 900 0
DWIDTH 30 0
BBX 26 21 2 7
BITMAP
CC330CC0
300C0300
300C0300
CC330CC0
CC330CC0
360C1B00
0DB36C00
0DB36C00
066D9800
066D9800
01B36000
066D9800
066D9800
0DB36C00
0DB36C00
360C1B00
CC330CC0
CC330CC0
300C0300
300C0300
CC330CC0
ENDCHAR
STARTCHAR 002B
ENCODING 43
SWIDTH 690 0
DWIDTH 23 0
BBX 19 19 2 3
BITMAP
01B000
01B000
006000
006000
01B000
006000
006000
CDB360
CDB360
366D80
CDB360
CDB360
006000
006000
01B000
006000
006000
01B000
01B000
ENDCHAR
STARTCHAR 002C
ENCODING 44
SWIDTH 180 0
DWIDTH 6 0
BBX 5 8 1 -3
BITMAP
D8
D8
60
D8
D8
60
60
C0
ENDCHAR
STARTCHAR 002D
ENCODING 45
SWIDTH 480 0
DWIDTH 16 0
BBX 15 5 1 10
BITMAP
DB36
DB36
66D8
DB36
DB36
ENDCHAR
STARTCHAR 002E
ENCODING 46
SWIDTH 180 0
DWIDTH 6 0
BBX 5 5 1 0
BITMAP
D8
D8
60
D8
D8
ENDCHAR
STARTCHAR 002F
ENCODING 47
SWIDTH 390 0
DWIDTH 13 0
BBX 12 25 1 0
BITMAP
0330
0330
00C0
0330
0330
06C0
06C0
0300
06C0
06C0
1B00
1B00
0600
1B00
1B00
6600
6600
1800
6600
6600
D800
D800
6000
D800
D800
ENDCHAR
STARTCHAR 0030
ENCODING 48
SWIDTH 690 0
DWIDTH 23 0
BBX 19 25 2 0
BITMAP
01B000
01B000
066C00
0DB300
0DB300
360D80
360D80
CC0360
300180
300180
CC0360
CC0360
300180
CC0360
CC0360
300180
300180
CC0360
360D80
360D80
0DB300
0DB300
066C00
01B000
01B000
ENDCHAR
STARTCHAR 0031
ENCODING 49
SWIDTH 390 0
DWIDTH 13 0
BBX 9 25 2 0
BITMAP
CD80
CD80
3600
CD80
CD80
0600
0600
0D80
0600
0600
0D80
0D80
0600
0D80
0D80
0600
0600
0D80
0600
0600
0D80
0D80
0600
0D80
0D80
ENDCHAR
STARTCHAR 0032
ENCODING 50
SWIDTH 690 0
DWIDTH 23 0
BBX 19 25 2 0
BITMAP
0DB300
0DB300
366D80
CDB360
CDB360
300180
300180
CC0360
000D80
000D80
003300
003300
006C00
01B000
01B000
066000
066000
0D8000
360000
360000
CDB360
CDB360
366D80
CDB360
CDB360
ENDCHAR
STARTCHAR 0033
ENCODING 51
SWIDTH 690 0
DWIDTH 23 0
BBX 19 25 2 0
BITMAP
0DB300
0DB300
366D80
CDB360
CDB360
300180
300180
CC0360
000D80
000D80
01B300
01B300
006D80
01B360
01B360
000180
000180
CC0360
300180
300180
CDB360
CDB360
366D80
0DB300
0DB300
ENDCHAR
STARTCHAR 0034
ENCODING 52
SWIDTH 690 0
DWIDTH 23 0
BBX 19 25 2 0
BITMAP
003300
003300
006C00
01B300
01B300
066C00
066C00
0DB300
360C00
360C00
CC3300
CC3300
300C00
CDB360
CDB360
366D80
366D80
CDB360
000C00
000C00
003300
003300
000C00
003300
003300
ENDCHAR
STARTCHAR 0035
ENCODING 53
SWIDTH 690 0
DWIDTH 23 0
BBX 19 25 2 0
BITMAP
CDB360
CDB360
366D80
CDB360
CDB360
300000
300000
CC0000
300000
300000
CDB300
CDB300
366D80
CDB360
CDB360
000180
000180
000360
000180
000180
CDB360
CDB360
366D80
CDB300
CDB300
ENDCHAR
STARTCHAR 0036
ENCODING 54
SWIDTH 690 0
DWIDTH 23 0
BBX 19 25 2 0
BITMAP
01B360
01B360
066D80
0DB360
0DB360
360000
360000
CC0000
300000
300000
CDB300
CDB300
366D80
CDB360
CDB360
300180
300180
CC0360
300180
300180
CDB360
CDB360
366D80
0DB300
0DB300
ENDCHAR
STARTCHAR 0037
ENCODING 55
SWIDTH 690 0
DWIDTH 23 0
BBX 19 25 2 0
BITMAP
CDB360
CDB360
366D80
CDB360
CDB360
000180
000180
000360
000D80
000D80
003300
003300
006C00
01B000
01B000
066000
066000
0D8000
060000
060000
0D8000
0D8000
060000
0D8000
0D8000
ENDCHAR
STARTCHAR 0038
ENCODING 56
SWIDTH 690 0
DWIDTH 23 0
BBX 19 25 2 0
BITMAP
0DB300
0DB300
366D80
CDB360
CDB360
300180
300180
CC0360
360D80
360D80
0DB300
0DB300
066C00
0DB300
0DB300
360D80
360D80
CC0360
300180
300180
CDB360
CDB360
366D80
0DB300
0DB300
ENDCHAR
STARTCHAR 0039
ENCODING 57
SWIDTH 690 0
DWIDTH 23 0
BBX 19 25 2 0
BITMAP
0DB300
0DB300
366D80
CDB360
CDB360
300180
300180
CC0360
300180
300180
CDB360
CDB360
366D80
0DB360
0DB360
000180
000180
000360
000D80
000D80
CDB300
CDB300
366C00
CDB000
CDB000
ENDCHAR
STARTCHAR 003A
ENCODING 58
SWIDTH 180 0
DWIDTH 6 0
BBX 5 15 1 5
BITMAP
D8
D8
60
D8
D8
00
00
00
00
00
D8
D8
60
D8
D8
ENDCHAR
STARTCHAR 003B
ENCODING 59
SWIDTH 180 0
DWIDTH 6 0
BBX 5 18 1 -3
BITMAP
D8
D8
60
D8
D8
00
00
00
00
00
D8
D8
60
D8
D8
60
60
C0
ENDCHAR
STARTCHAR 003C
ENCODING 60
SWIDTH 630 0
DWIDTH 21 0
BBX 17 25 1 0
BITMAP
001980
001980
003600
00D800
00D800
033000
033000
06C000
1B0000
1B0000
660000
660000
D80000
660000
660000
1B0000
1B0000
06C000
033000
033000
00D800
00D800
003600
001980
001980
ENDCHAR
STARTCHAR 003D
ENCODING 61
SWIDTH 690 0
DWIDTH 23 0
BBX 19 15 2 3
BITMAP
CDB360
366D80
366D80
CDB360
CDB360
000000
000000
000000
000000
000000
CDB360
366D80
366D80
CDB360
CDB360
ENDCHAR
STARTCHAR 003E
ENCODING 62
SWIDTH 630 0
DWIDTH 21 0
BBX 17 25 4 0
BITMAP
D80000
D80000
360000
198000
198000
06C000
06C000
01B000
00CC00
00CC00
003600
003600
000D80
003600
003600
00CC00
00CC00
01B000
06C000
06C000
198000
198000
360000
D80000
D80000
ENDCHAR
STARTCHAR 003F
ENCODING 63
SWIDTH 690 0
DWIDTH 23 0
BBX 19 25 2 0
BITMAP
0DB300
0DB300
366D80
CDB360
CDB360
300180
300180
CC0360
000180
000180
003360
003360
006D80
01B300
01B300
006000
006000
01B000
000000
000000
01B000
01B000
006000
01B000
01B000
ENDCHAR
STARTCHAR 0040
ENCODING 64
SWIDTH 1200 0
DWIDTH 40 0
BBX 36 35 2 -3
BITMAP
01B36CD800
01B36CD800
066D9B6600
066D9B6600
0DB36CDB00
36000006C0
36000006C0
CC00000330
CC00000330
30000000C0
CC036CC330
CC036CC330
300D9B00C0
300D9B00C0
CC336CC330
300C0300C0
300C0300C0
CC330CC330
CC330CC330
300C0300C0
CC336CDB30
CC336CDB30
300D9B66C0
300D9B66C0
CC036CDB00
3000000000
3000000000
CC00000000
CC00000000
3600000000
0DB36CDB30
0DB36CDB30
066D9B66C0
066D9B66C0
01B36CDB30
ENDCHAR
STARTCHAR 0041
ENCODING 65
SWIDTH 690 0
DWIDTH 23 0
BBX 19 25 2 0
BITMAP
01B000
01B000
066C00
0DB300
0DB300
360D80
360D80
CC0360
300180
300180
CC0360
CC0360
300180
CDB360
CDB360
366D80
366D80
CDB360
300180
300180
CC0360
CC0360
300180
CC0360
CC0360
ENDCHAR
STARTCHAR 0042
ENCODING 66
SWIDTH 690 0
DWIDTH 23 0
BBX 19 25 2 0
BITMAP
CDB300
CDB300
366D80
CDB360
CDB360
300180
300180
CC0360
300D80
300D80
CDB300
CDB300
366D80
CDB360
CDB360
300180
300180
CC0360
300180
300180
CDB360
CDB360
366D80
CDB300
CDB300
ENDCHAR
STARTCHAR 0043
ENCODING 67
SWIDTH 780 0
DWIDTH 26 0
BBX 22 25 2 0
BITMAP
01B300
01B300
066D80
0DB360
0DB360
360198
360198
CC006C
300018
300018
CC006C
CC006C
300000
CC0000
CC0000
300000
300000
CC006C
360198
360198
0DB360
0DB360
066D80
01B300
01B300
ENDCHAR
STARTCHAR 0044
ENCODING 68
SWIDTH 780 0
DWIDTH 26 0
BBX 22 25 2 0
BITMAP
CDB300
CDB300
366D80
CDB360
CDB360
300198
300198
CC006C
300018
300018
CC006C
CC006C
300018
CC006C
CC006C
300018
300018
CC006C
300198
300198
CDB360
CDB360
366D80
CDB300
CDB300
ENDCHAR
STARTCHAR 0045
ENCODING 69
SWIDTH 690 0
DWIDTH 23 0
BBX 19 25 2 0
BITMAP
01B360
01B360
066D80
0DB360
0DB360
360000
360000
CC0000
300000
300000
CDB300
CDB300
366C00
CDB300
CDB300
300000
300000
CC0000
360000
360000
0DB360
0DB360
066D80
01B360
01B360
ENDCHAR
STARTCHAR 0046
ENCODING 70
SWIDTH 690 0
DWIDTH 23 0
BBX 19 25 2 0
BITMAP
01B360
01B360
066D80
0DB360
0DB360
360000
360000
CC0000
300000
300000
CDB300
CDB300
366C00
CDB300
CDB300
300000
300000
CC0000
300000
300000
CC0000
CC0000
300000
CC0000
CC0000
ENDCHAR
STARTCHAR 0047
ENCODING 71
SWIDTH 780 0
DWIDTH 26 0
BBX 22 25 2 0
BITMAP
01B36C
01B36C
066D98
0DB36C
0DB36C
360000
360000
CC0000
300000
300000
CC336C
CC336C
300D98
CC336C
CC336C
300018
300018
CC006C
360018
360018
0DB36C
0DB36C
066D98
01B36C
01B36C
ENDCHAR
STARTCHAR 0048
ENCODING 72
SWIDTH 780 0
DWIDTH 26 0
BBX 22 25 2 0
BITMAP
CC006C
CC006C
300018
CC006C
CC006C
300018
300018
CC006C
300018
300018
CDB36C
CDB36C
366D98
CDB36C
CDB36C
300018
300018
CC006C
300018
300018
CC006C
CC006C
300018
CC006C
CC006C
ENDCHAR
STARTCHAR 0049
ENCODING 73
SWIDTH 480 0
DWIDTH 16 0
BBX 12 25 2 0
BITMAP
CDB0
CDB0
3660
CDB0
CDB0
0600
0600
0D80
0600
0600
0D80
0D80
0600
0D80
0D80
0600
0600
0D80
0600
0600
CDB0
CDB0
3660
CDB0
CDB0
ENDCHAR
STARTCHAR 004A
ENCODING 74
SWIDTH 600 0
DWIDTH 20 0
BBX 16 25 2 0
BITMAP
CDB3
CDB3
366C
CDB3
CDB3
000C
000C
0033
000C
000C
0033
0033
000C
0033
0033
000C
000C
0033
006C
006C
CDB0
CDB0
3660
CD80
CD80
ENDCHAR
STARTCHAR 004B
ENCODING 75
SWIDTH 690 0
DWIDTH 23 0
BBX 19 25 2 0
BITMAP
CC0360
CC0360
300180
CC0360
CC0360
300D80
300D80
CC3300
306C00
306C00
CDB000
CDB000
366000
CDB000
CDB000
306C00
306C00
CC3300
300D80
300D80
CC0360
CC0360
300180
CC0360
CC0360
ENDCHAR
STARTCHAR 004C
ENCODING 76
SWIDTH 690 0
DWIDTH 23 0
BBX 19 25 2 0
BITMAP
CC0000
CC0000
300000
CC0000
CC0000
300000
300000
CC0000
300000
300000
CC0000
CC0000
300000
CC0000
CC0000
300000
300000
CC0000
300000
300000
CDB360
CDB360
366D80
0DB360
0DB360
ENDCHAR
STARTCHAR 004D
ENCODING 77
SWIDTH 990 0
DWIDTH 33 0
BBX 29 25 2 0
BITMAP
CC0000D8
CC0000D8
36000360
CD800CD8
CD800CD8
36601B60
36601B60
CDB06CD8
306D9860
306D9860
CC3360D8
CC3360D8
300D8060
CC0300D8
CC0300D8
30000060
30000060
CC0000D8
30000060
30000060
CC0000D8
CC0000D8
30000060
CC0000D8
CC0000D8
ENDCHAR
STARTCHAR 004E
ENCODING 78
SWIDTH 780 0
DWIDTH 26 0
BBX 22 25 2 0
BITMAP
CC006C
CC006C
360018
CD806C
CD806C
366018
366018
CDB06C
306C18
306C18
CC336C
CC336C
300D98
CC036C
CC036C
300198
300198
CC006C
300018
300018
CC006C
CC006C
300018
CC006C
CC006C
ENDCHAR
STARTCHAR 004F
ENCODING 79
SWIDTH 780 0
DWIDTH 26 0
BBX 22 25 2 0
BITMAP
01B300
01B300
066D80
0DB360
0DB360
360198
360198
CC006C
300018
300018
CC006C
CC006C
300018
CC006C
CC006C
300018
300018
CC006C
360198
360198
0DB360
0DB360
066D80
01B300
01B300
ENDCHAR
STARTCHAR 0050
ENCODING 80
SWIDTH 690 0
DWIDTH 23 0
BBX 19 25 2 0
BITMAP
CDB000
CDB000
366C00
CDB300
CDB300
300D80
300D80
CC0360
300180
300180
CC0360
CC0360
300180
CC0360
CC0360
300D80
300D80
CDB300
366C00
366C00
CDB000
CDB000
300000
CC0000
CC0000
ENDCHAR
STARTCHAR 0051
ENCODING 81
SWIDTH 780 0
DWIDTH 26 0
BBX 22 28 2 -3
BITMAP
01B300
01B300
066D80
0DB360
0DB360
360198
360198
CC006C
300018
300018
CC006C
CC006C
300018
CC006C
CC006C
300018
300018
CC006C
360198
360198
0DB360
0DB360
066D80
01B300
01B300
000D80
000D80
000360
ENDCHAR
STARTCHAR 0052
ENCODING 82
SWIDTH 690 0
DWIDTH 23 0
BBX 19 25 2 0
BITMAP
CDB000
CDB000
366C00
CDB300
CDB300
300D80
300D80
CC0360
300180
300180
CC0360
CC0360
300180
CC0360
CC0360
300D80
300D80
CDB300
366C00
366C00
CDB300
CDB300
300D80
CC0360
CC0360
ENDCHAR
STARTCHAR 0053
ENCODING 83
SWIDTH 690 0
DWIDTH 23 0
BBX 19 25 2 0
BITMAP
0DB300
0DB300
366D80
CDB360
CDB360
300180
300180
CC0360
300000
300000
CDB300
CDB300
366D80
0DB360
0DB360
000180
000180
CC0360
300180
300180
CDB360
CDB360
366D80
0DB300
0DB300
ENDCHAR
STARTCHAR 0054
ENCODING 84
SWIDTH 690 0
DWIDTH 23 0
BBX 19 25 2 0
BITMAP
CDB360
CDB360
366D80
CDB360
CDB360
006000
006000
01B000
006000
006000
01B000
01B000
006000
01B000
01B000
006000
006000
01B000
006000
006000
01B000
01B000
006000
01B000
01B000
ENDCHAR
STARTCHAR 0055
ENCODING 85
SWIDTH 780 0
DWIDTH 26 0
BBX 22 25 2 0
BITMAP
CC006C
CC006C
300018
CC006C
CC006C
300018
300018
CC006C
300018
300018
CC006C
CC006C
300018
CC006C
CC006C
300018
300018
CC006C
360198
360198
0DB360
0DB360
066D80
01B300
01B300
ENDCHAR
STARTCHAR 0056
ENCODING 86
SWIDTH 690 0
DWIDTH 23 0
BBX 19 25 2 0
BITMAP
CC0360
CC0360
300180
CC0360
CC0360
300180
300180
CC0360
300180
300180
CC0360
CC0360
300180
CC0360
CC0360
300180
300180
CC0360
360D80
360D80
0DB300
0DB300
066C00
01B000
01B000
ENDCHAR
STARTCHAR 0057
ENCODING 87
SWIDTH 1080 0
DWIDTH 36 0
BBX 32 25 2 0
BITMAP
CC03601B
CC03601B
30018006
CC03601B
CC03601B
30018006
30018006
CC03601B
30018006
30018006
CC03601B
CC03601B
30018006
CC03601B
CC03601B
30018006
30018006
CC03601B
360D9866
360D9866
0DB36CD8
0DB36CD8
066C1B60
01B00CC0
01B00CC0
ENDCHAR
STARTCHAR 0058
ENCODING 88
SWIDTH 780 0
DWIDTH 26 0
BBX 22 25 2 0
BITMAP
CC006C
CC006C
300018
CC006C
CC006C
300018
300018
CC006C
360198
360198
0DB360
0DB360
066D80
0DB360
0DB360
360198
360198
CC006C
300018
300018
CC006C
CC006C
300018
CC006C
CC006C
ENDCHAR
STARTCHAR 0059
ENCODING 89
SWIDTH 690 0
DWIDTH 23 0
BBX 19 25 2 0
BITMAP
CC0360
CC0360
300180
CC0360
CC0360
300180
300180
CC0360
300180
300180
CC0360
CC0360
360D80
0DB300
0DB300
066C00
066C00
01B000
006000
006000
01B000
01B000
006000
01B000
01B000
ENDCHAR
STARTCHAR 005A
ENCODING 90
SWIDTH 690 0
DWIDTH 23 0
BBX 19 25 2 0
BITMAP
CDB360
CDB360
366D80
CDB360
CDB360
000D80
000D80
003300
006C00
006C00
01B000
01B000
066000
0D8000
0D8000
360000
360000
CC0000
300000
300000
CDB360
CDB360
366D80
CDB360
CDB360
ENDCHAR
STARTCHAR 005B
ENCODING 91
SWIDTH 330 0
DWIDTH 11 0
BBX 9 39 2 -7
BITMAP
CD80
CD80
3600
3600
CD80
3000
3000
CC00
CC00
3000
CC00
CC00
3000
3000
CC00
3000
3000
CC00
CC00
3000
CC00
CC00
3000
3000
CC00
3000
3000
CC00
CC00
3000
CC00
CC00
3000
3000
CD80
3600
3600
CD80
CD80
ENDCHAR
STARTCHAR 005C
ENCODING 92
SWIDTH 390 0
DWIDTH 13 0
BBX 12 25 1 0
BITMAP
D800
D800
6000
D800
D800
6600
6600
1800
6600
6600
1B00
1B00
0600
1B00
1B00
06C0
06C0
0300
06C0
06C0
0330
0330
00C0
0330
0330
ENDCHAR
STARTCHAR 005D
ENCODING 93
SWIDTH 330 0
DWIDTH 11 0
BBX 8 39 1 -7
BITMAP
DB
DB
66
66
DB
06
06
1B
1B
06
1B
1B
06
06
1B
06
06
1B
1B
06
1B
1B
06
06
1B
06
06
1B
1B
06
1B
1B
06
06
DB
66
66
DB
DB
ENDCHAR
STARTCHAR 005F
ENCODING 95
SWIDTH 780 0
DWIDTH 26 0
BBX 25 5 1 -3
BITMAP
DB36CD80
DB36CD80
66D9B600
66D9B600
DB36CD80
ENDCHAR
STARTCHAR 0060
ENCODING 96
SWIDTH 330 0
DWIDTH 11 0
BBX 12 8 -3 27
BITMAP
CC00
CC00
3600
0D80
0D80
0660
0660
01B0
ENDCHAR
STARTCHAR 0061
ENCODING 97
SWIDTH 690 0
DWIDTH 23 0
BBX 19 25 2 0
BITMAP
0DB300
0DB300
366D80
CDB360
CDB360
300180
300180
CC0360
300180
300180
CC0360
CC0360
300180
CDB360
CDB360
366D80
366D80
CDB360
300180
300180
CC0360
CC0360
300180
CC0360
CC0360
ENDCHAR
STARTCHAR 0062
ENCODING 98
SWIDTH 690 0
DWIDTH 23 0
BBX 19 25 2 0
BITMAP
CDB300
CDB300
366D80
CDB360
CDB360
300180
300180
CC0360
300D80
300D80
CDB300
CDB300
366C00
CDB300
CDB300
300D80
300D80
CC0360
300180
300180
CDB360
CDB360
366D80
CDB300
CDB300
ENDCHAR
STARTCHAR 0063
ENCODING 99
SWIDTH 690 0
DWIDTH 23 0
BBX 19 25 2 0
BITMAP
0DB300
0DB300
366D80
CDB360
CDB360
300180
300180
CC0360
300180
300180
CC0360
CC0360
300000
CC0000
CC0000
300000
300000
CC0360
300180
300180
CDB360
CDB360
366D80
0DB300
0DB300
ENDCHAR
STARTCHAR 0064
ENCODING 100
SWIDTH 690 0
DWIDTH 23 0
BBX 19 25 2 0
BITMAP
CDB300
CDB300
366D80
CDB360
CDB360
300180
300180
CC0360
300180
300180
CC0360
CC0360
300180
CC0360
CC0360
300180
300180
CC0360
300180
300180
CDB360
CDB360
366D80
CDB300
CDB300
ENDCHAR
STARTCHAR 0065
ENCODING 101
SWIDTH 690 0
DWIDTH 23 0
BBX 19 25 2 0
BITMAP
0DB360
0DB360
366D80
CDB360
CDB360
300000
300000
CC0000
300000
300000
CDB300
CDB300
366C00
CDB300
CDB300
300000
300000
CC0000
300000
300000
CDB360
CDB360
366D80
0DB360
0DB360
ENDCHAR
STARTCHAR 0066
ENCODING 102
SWIDTH 690 0
DWIDTH 23 0
BBX 19 25 2 0
BITMAP
0DB360
0DB360
366D80
CDB360
CDB360
300000
300000
CC0000
300000
300000
CDB300
CDB300
366C00
CDB300
CDB300
300000
300000
CC0000
300000
300000
CC0000
CC0000
300000
CC0000
CC0000
ENDCHAR
STARTCHAR 0067
ENCODING 103
SWIDTH 690 0
DWIDTH 23 0
BBX 19 25 2 0
BITMAP
0DB360
0DB360
366D80
CDB360
CDB360
300000
300000
CC0000
300000
300000
CC3360
CC3360
300D80
CC3360
CC3360
300180
300180
CC0360
300180
300180
CDB360
CDB360
366D80
0DB300
0DB300
ENDCHAR
STARTCHAR 0068
ENCODING 104
SWIDTH 690 0
DWIDTH 23 0
BBX 19 25 2 0
BITMAP
CC0360
CC0360
300180
CC0360
CC0360
300180
300180
CC0360
300180
300180
CDB360
CDB360
366D80
CDB360
CDB360
300180
300180
CC0360
300180
300180
CC0360
CC0360
300180
CC0360
CC0360
ENDCHAR
STARTCHAR 0069
ENCODING 105
SWIDTH 300 0
DWIDTH 10 0
BBX 6 25 2 0
BITMAP
CC
CC
30
CC
CC
30
30
CC
30
30
CC
CC
30
CC
CC
30
30
CC
30
30
CC
CC
30
CC
CC
ENDCHAR
STARTCHAR 006A
ENCODING 106
SWIDTH 480 0
DWIDTH 16 0
BBX 12 25 2 0
BITMAP
01B0
01B0
0060
01B0
01B0
0060
0060
01B0
0060
0060
01B0
01B0
0060
01B0
01B0
0060
0060
01B0
0060
0060
CDB0
CDB0
3660
CD80
CD80
ENDCHAR
STARTCHAR 006B
ENCODING 107
SWIDTH 690 0
DWIDTH 23 0
BBX 19 25 2 0
BITMAP
CC0360
CC0360
300180
CC0360
CC0360
300180
300180
CC0360
300D80
300D80
CDB300
CDB300
366C00
CDB300
CDB300
300D80
300D80
CC0360
300180
300180
CC0360
CC0360
300180
CC0360
CC0360
ENDCHAR
STARTCHAR 006C
ENCODING 108
SWIDTH 600 0
DWIDTH 20 0
BBX 16 25 2 0
BITMAP
CC00
CC00
3000
CC00
CC00
3000
3000
CC00
3000
3000
CC00
CC00
3000
CC00
CC00
3000
3000
CC00
3000
3000
CDB3
CDB3
366C
0DB3
0DB3
ENDCHAR
STARTCHAR 006D
ENCODING 109
SWIDTH 900 0
DWIDTH 30 0
BBX 26 25 2 0
BITMAP
CC000CC0
CC000CC0
36001B00
CD806CC0
CD806CC0
36619B00
36619B00
CDB36CC0
306D8300
306D8300
CC330CC0
CC330CC0
300C0300
CC000CC0
CC000CC0
30000300
30000300
CC000CC0
30000300
30000300
CC000CC0
CC000CC0
30000300
CC000CC0
CC000CC0
ENDCHAR
STARTCHAR 006E
ENCODING 110
SWIDTH 690 0
DWIDTH 23 0
BBX 19 25 2 0
BITMAP
CC0360
CC0360
360180
CD8360
CD8360
366180
366180
CDB360
306D80
306D80
CC3360
CC3360
300D80
CC0360
CC0360
300180
300180
CC0360
300180
300180
CC0360
CC0360
300180
CC0360
CC0360
ENDCHAR
STARTCHAR 006F
ENCODING 111
SWIDTH 690 0
DWIDTH 23 0
BBX 19 25 2 0
BITMAP
0DB300
0DB300
366D80
CDB360
CDB360
300180
300180
CC0360
300180
300180
CC0360
CC0360
300180
CC0360
CC0360
300180
300180
CC0360
300180
300180
CDB360
CDB360
366D80
0DB300
0DB300
ENDCHAR
STARTCHAR 0070
ENCODING 112
SWIDTH 690 0
DWIDTH 23 0
BBX 19 25 2 0
BITMAP
CDB300
CDB300
366D80
CDB360
CDB360
300180
300180
CC0360
300180
300180
CC0360
CC0360
300180
CDB360
CDB360
366D80
366D80
CDB300
300000
300000
CC0000
CC0000
300000
CC0000
CC0000
ENDCHAR
STARTCHAR 0071
ENCODING 113
SWIDTH 690 0
DWIDTH 23 0
BBX 19 28 2 -3
BITMAP
0DB300
0DB300
366D80
CDB360
CDB360
300180
300180
CC0360
300180
300180
CC0360
CC0360
300180
CC0360
CC0360
300180
300180
CC0360
300180
300180
CDB360
CDB360
366D80
0DB300
0DB300
000D80
000D80
000360
ENDCHAR
STARTCHAR 0072
ENCODING 114
SWIDTH 690 0
DWIDTH 23 0
BBX 19 25 2 0
BITMAP
CDB300
CDB300
366D80
CDB360
CDB360
300180
300180
CC0360
300180
300180
CC0360
CC0360
300180
CDB360
CDB360
366D80
366D80
CDB300
300D80
300D80
CC0360
CC0360
300180
CC0360
CC0360
ENDCHAR
STARTCHAR 0073
ENCODING 115
SWIDTH 690 0
DWIDTH 23 0
BBX 19 25 2 0
BITMAP
0DB300
0DB300
366D80
CDB360
CDB360
300180
300180
CC0360
300000
300000
CDB300
CDB300
366D80
0DB360
0DB360
000180
000180
CC0360
300180
300180
CDB360
CDB360
366D80
0DB300
0DB300
ENDCHAR
STARTCHAR 0074
ENCODING 116
SWIDTH 690 0
DWIDTH 23 0
BBX 19 25 2 0
BITMAP
CDB360
CDB360
366D80
CDB360
CDB360
006000
006000
01B000
006000
006000
01B000
01B000
006000
01B000
01B000
006000
006000
01B000
006000
006000
01B000
01B000
006000
01B000
01B000
ENDCHAR
STARTCHAR 0075
ENCODING 117
SWIDTH 690 0
DWIDTH 23 0
BBX 19 25 2 0
BITMAP
CC0360
CC0360
300180
CC0360
CC0360
300180
300180
CC0360
300180
300180
CC0360
CC0360
300180
CC0360
CC0360
300180
300180
CC0360
300180
300180
CDB360
CDB360
366D80
0DB300
0DB300
ENDCHAR
STARTCHAR 0076
ENCODING 118
SWIDTH 690 0
DWIDTH 23 0
BBX 19 25 2 0
BITMAP
CC0360
CC0360
300180
CC0360
CC0360
300180
300180
CC0360
300180
300180
CC0360
CC0360
300180
CC0360
CC0360
300180
300180
CC0360
360D80
360D80
0DB300
0DB300
066C00
01B000
01B000
ENDCHAR
STARTCHAR 0077
ENCODING 119
SWIDTH 1080 0
DWIDTH 36 0
BBX 32 25 2 0
BITMAP
CC03601B
CC03601B
30018006
CC03601B
CC03601B
30018006
30018006
CC03601B
30018006
30018006
CC03601B
CC03601B
30018006
CC03601B
CC03601B
30018006
30018006
CC03601B
300D9806
300D9806
CDB36CDB
CDB36CDB
366C1B66
0DB00CD8
0DB00CD8
ENDCHAR
STARTCHAR 0078
ENCODING 120
SWIDTH 690 0
DWIDTH 23 0
BBX 19 25 2 0
BITMAP
CC0360
CC0360
300180
CC0360
CC0360
300180
300180
CC0360
360D80
360D80
0DB300
0DB300
066C00
0DB300
0DB300
360D80
360D80
CC0360
300180
300180
CC0360
CC0360
300180
CC0360
CC0360
ENDCHAR
STARTCHAR 0079
ENCODING 121
SWIDTH 690 0
DWIDTH 23 0
BBX 19 25 2 0
BITMAP
CC0360
CC0360
300180
CC0360
CC0360
300180
300180
CC0360
300180
300180
CC0360
CC0360
300180
CDB360
CDB360
366D80
366D80
0DB300
006000
006000
01B000
01B000
006000
01B000
01B000
ENDCHAR
STARTCHAR 007A
ENCODING 122
SWIDTH 690 0
DWIDTH 23 0
BBX 19 25 2 0
BITMAP
CDB360
CDB360
366D80
CDB360
CDB360
000180
000180
000360
000180
000180
0DB360
0DB360
366D80
CDB300
CDB300
300000
300000
CC0000
300000
300000
CDB360
CDB360
366D80
CDB360
CDB360
ENDCHAR
STARTCHAR 007B
ENCODING 123
SWIDTH 390 0
DWIDTH 13 0
BBX 13 39 1 -7
BITMAP
00D8
00D8
0330
0330
06C0
0300
0300
06C0
06C0
0300
06C0
06C0
0300
0300
06C0
1B00
1B00
6600
6600
D800
6600
6600
1B00
1B00
06C0
0300
0300
06C0
06C0
0300
06C0
06C0
0300
0300
06C0
0330
0330
00D8
00D8
ENDCHAR
STARTCHAR 007C
ENCODING 124
SWIDTH 300 0
DWIDTH 10 0
BBX 6 31 2 -3
BITMAP
CC
30
30
CC
CC
30
CC
CC
30
30
CC
30
30
CC
CC
30
CC
CC
30
30
CC
30
30
CC
CC
30
CC
CC
30
30
CC
ENDCHAR
STARTCHAR 007D
ENCODING 125
SWIDTH 390 0
DWIDTH 13 0
BBX 14 39 -1 -7
BITMAP
D800
D800
3600
3600
1980
0600
0600
1980
1980
0600
1980
1980
0600
0600
1980
06C0
06C0
01B0
01B0
00CC
01B0
01B0
06C0
06C0
1980
0600
0600
1980
1980
0600
1980
1980
0600
0600
1980
3600
3600
D800
D800
ENDCHAR
STARTCHAR 00A1
ENCODING 161
SWIDTH 300 0
DWIDTH 10 0
BBX 6 25 2 0
BITMAP
CC
CC
30
CC
CC
00
00
00
30
30
CC
CC
30
CC
CC
30
30
CC
30
30
CC
CC
30
CC
CC
ENDCHAR
STARTCHAR 00A2
ENCODING 162
SWIDTH 690 0
DWIDTH 23 0
BBX 19 31 2 -3
BITMAP
01B000
006000
006000
0DB300
0DB300
366D80
CDB360
CDB360
300180
300180
CC0360
300180
300180
CC0360
CC0360
300000
CC0000
CC0000
300000
300000
CC0360
300180
300180
CDB360
CDB360
366D80
0DB300
0DB300
006000
006000
01B000
ENDCHAR
STARTCHAR 00A3
ENCODING 163
SWIDTH 690 0
DWIDTH 23 0
BBX 19 28 2 0
BITMAP
01B300
066D80
066D80
0DB360
0DB360
060180
0D8360
0D8360
060000
060000
0D8000
060000
060000
CDB300
CDB300
366C00
CDB300
CDB300
060000
060000
0D8000
060000
060000
CDB360
CDB360
366D80
CDB360
CDB360
ENDCHAR
STARTCHAR 00A4
ENCODING 164
SWIDTH 780 0
DWIDTH 26 0
BBX 22 21 2 7
BITMAP
0D8000
060000
060000
0DB36C
0DB36C
066D98
0DB36C
0DB36C
060180
060180
0D8360
060180
060180
CDB360
CDB360
366D80
CDB360
CDB360
000180
000180
000360
ENDCHAR
STARTCHAR 00A5
ENCODING 165
SWIDTH 690 0
DWIDTH 23 0
BBX 19 35 2 -3
BITMAP
CC0360
CC0360
300180
300180
CC0360
300180
300180
CC0360
CC0360
360D80
0DB300
0DB300
066C00
066C00
01B000
006000
006000
CDB360
CDB360
366D80
CDB360
CDB360
006000
006000
01B000
006000
006000
CDB360
CDB360
366D80
CDB360
CDB360
006000
006000
01B000
ENDCHAR
STARTCHAR 00A6
ENCODING 166
SWIDTH 300 0
DWIDTH 10 0
BBX 6 31 2 -3
BITMAP
CC
30
30
CC
CC
30
CC
CC
30
30
CC
00
00
00
00
00
00
00
00
00
CC
30
30
CC
CC
30
CC
CC
30
30
CC
ENDCHAR
STARTCHAR 00A7
ENCODING 167
SWIDTH 690 0
DWIDTH 23 0
BBX 19 39 2 -7
BITMAP
01B360
01B360
066D80
066D80
0DB360
360000
360000
CC0000
CC0000
300000
CDB000
CDB000
366C00
366C00
CDB300
300D80
300D80
CC0360
CC0360
300180
CC0360
CC0360
360180
360180
0DB360
066D80
066D80
01B360
01B360
000180
000360
000360
000D80
000D80
CDB300
366C00
366C00
CDB000
CDB000
ENDCHAR
STARTCHAR 00A8
ENCODING 168
SWIDTH 390 0
DWIDTH 13 0
BBX 12 5 1 27
BITMAP
DB30
DB30
60C0
60C0
DB30
ENDCHAR
STARTCHAR 00AB
ENCODING 171
SWIDTH 840 0
DWIDTH 28 0
BBX 23 19 1 3
BITMAP
00D836
00D836
0330CC
0330CC
06C1B0
1B06C0
1B06C0
661980
661980
D83600
661980
661980
1B06C0
1B06C0
06C1B0
0330CC
0330CC
00D836
00D836
ENDCHAR
STARTCHAR 00AD
ENCODING 173
SWIDTH 480 0
DWIDTH 16 0
BBX 15 5 1 10
BITMAP
DB36
DB36
66D8
DB36
DB36
ENDCHAR
STARTCHAR 00AF
ENCODING 175
SWIDTH 390 0
DWIDTH 13 0
BBX 12 5 1 27
BITMAP
DB30
DB30
66C0
66C0
DB30
ENDCHAR
STARTCHAR 00B0
ENCODING 176
SWIDTH 480 0
DWIDTH 16 0
BBX 15 15 1 13
BITMAP
1B30
66D8
66D8
DB36
DB36
6018
D836
D836
6018
6018
DB36
66D8
66D8
1B30
1B30
ENDCHAR
STARTCHAR 00B4
ENCODING 180
SWIDTH 330 0
DWIDTH 11 0
BBX 12 8 1 27
BITMAP
0330
0330
06C0
1B00
1B00
6600
6600
D800
ENDCHAR
STARTCHAR 00B6
ENCODING 182
SWIDTH 690 0
DWIDTH 23 0
BBX 19 25 2 0
BITMAP
0DB360
0DB360
366180
CDB360
CDB360
366180
366180
CDB360
366180
366180
CDB360
CDB360
366180
0DB360
0DB360
006180
006180
01B360
006180
006180
01B360
01B360
006180
01B360
01B360
ENDCHAR
STARTCHAR 00B7
ENCODING 183
SWIDTH 180 0
DWIDTH 6 0
BBX 5 5 1 10
BITMAP
D8
D8
60
D8
D8
ENDCHAR
STARTCHAR 00B8
ENCODING 184
SWIDTH 240 0
DWIDTH 8 0
BBX 9 7 -1 -7
BITMAP
0600
0600
D980
3600
3600
D800
D800
ENDCHAR
STARTCHAR 00BB
ENCODING 187
SWIDTH 840 0
DWIDTH 28 0
BBX 24 19 4 3
BITMAP
D83600
D83600
360D80
360D80
198660
06C1B0
06C1B0
01B06C
01B06C
00CC33
01B06C
01B06C
06C1B0
06C1B0
198660
360D80
360D80
D83600
D83600
ENDCHAR
STARTCHAR 00BF
ENCODING 191
SWIDTH 690 0
DWIDTH 23 0
BBX 19 25 2 0
BITMAP
01B000
01B000
006000
01B000
01B000
000000
000000
01B000
006000
006000
0DB000
0DB000
366000
CD8000
CD8000
300000
300000
CC0360
300180
300180
CDB360
CDB360
366D80
0DB300
0DB300
ENDCHAR
STARTCHAR 00C0
ENCODING 192
SWIDTH 690 0
DWIDTH 23 0
BBX 19 35 2 0
BITMAP
CC0000
CC0000
360000
0D8000
0D8000
066000
066000
01B000
000000
000000
01B000
01B000
066C00
0DB300
0DB300
360D80
360D80
CC0360
300180
300180
CC0360
CC0360
300180
CDB360
CDB360
366D80
366D80
CDB360
300180
300180
CC0360
CC0360
300180
CC0360
CC0360
ENDCHAR
STARTCHAR 00C1
ENCODING 193
SWIDTH 690 0
DWIDTH 23 0
BBX 19 35 2 0
BITMAP
000D80
000D80
003300
006C00
006C00
01B000
01B000
066000
000000
000000
01B000
01B000
066C00
0DB300
0DB300
360D80
360D80
CC0360
300180
300180
CC0360
CC0360
300180
CDB360
CDB360
366D80
366D80
CDB360
300180
300180
CC0360
CC0360
300180
CC0360
CC0360
ENDCHAR
STARTCHAR 00C2
ENCODING 194
SWIDTH 690 0
DWIDTH 23 0
BBX 19 35 2 0
BITMAP
01B000
01B000
066C00
0DB300
0DB300
060C00
060C00
0DB300
000000
000000
01B000
01B000
066C00
0DB300
0DB300
360D80
360D80
CC0360
300180
300180
CC0360
CC0360
300180
CDB360
CDB360
366D80
366D80
CDB360
300180
300180
CC0360
CC0360
300180
CC0360
CC0360
ENDCHAR
STARTCHAR 00C3
ENCODING 195
SWIDTH 690 0
DWIDTH 23 0
BBX 19 35 2 0
BITMAP
0D8360
0D8360
366180
CDB360
CDB360
306D80
306D80
CC3300
000000
000000
01B000
01B000
066C00
0DB300
0DB300
360D80
360D80
CC0360
300180
300180
CC0360
CC0360
300180
CDB360
CDB360
366D80
366D80
CDB360
300180
300180
CC0360
CC0360
300180
CC0360
CC0360
ENDCHAR
STARTCHAR 00C4
ENCODING 196
SWIDTH 690 0
DWIDTH 23 0
BBX 19 32 2 0
BITMAP
0DB300
0DB300
060C00
060C00
0DB300
000000
000000
01B000
01B000
066C00
0DB300
0DB300
360D80
360D80
CC0360
300180
300180
CC0360
CC0360
300180
CDB360
CDB360
366D80
366D80
CDB360
300180
300180
CC0360
CC0360
300180
CC0360
CC0360
ENDCHAR
STARTCHAR 00C5
ENCODING 197
SWIDTH 690 0
DWIDTH 23 0
BBX 19 42 2 0
BITMAP
066C00
066C00
0DB300
0DB300
366D80
0C0300
0C0300
360D80
360D80
0C0300
366D80
366D80
0DB300
0DB300
066C00
000000
000000
01B000
01B000
066C00
0DB300
0DB300
360D80
360D80
CC0360
300180
300180
CC0360
CC0360
300180
CDB360
CDB360
366D80
366D80
CDB360
300180
300180
CC0360
CC0360
300180
CC0360
CC0360
ENDCHAR
STARTCHAR 00C6
ENCODING 198
SWIDTH 1080 0
DWIDTH 36 0
BBX 32 25 2 0
BITMAP
01B36CDB
01B36CDB
066D9B66
0DB36CDB
0DB36CDB
36018000
36018000
CC036000
30018000
30018000
CC036CD8
CC036CD8
30019B60
CDB36CD8
CDB36CD8
366D8000
366D8000
CDB36000
30018000
30018000
CC036CDB
CC036CDB
30019B66
CC006CDB
CC006CDB
ENDCHAR
STARTCHAR 00C7
ENCODING 199
SWIDTH 780 0
DWIDTH 26 0
BBX 22 32 2 -7
BITMAP
01B300
01B300
066D80
0DB360
0DB360
360198
360198
CC006C
300018
300018
CC006C
CC006C
300000
CC0000
CC0000
300000
300000
CC006C
360198
360198
0DB360
0DB360
066D80
01B300
01B300
000C00
000C00
01B300
006C00
006C00
01B000
01B000
ENDCHAR
STARTCHAR 00C8
ENCODING 200
SWIDTH 690 0
DWIDTH 23 0
BBX 19 35 2 0
BITMAP
CC0000
CC0000
360000
0D8000
0D8000
066000
066000
01B000
000000
000000
01B360
01B360
066D80
0DB360
0DB360
360000
360000
CC0000
300000
300000
CDB300
CDB300
366C00
CDB300
CDB300
300000
300000
CC0000
360000
360000
0DB360
0DB360
066D80
01B360
01B360
ENDCHAR
STARTCHAR 00C9
ENCODING 201
SWIDTH 690 0
DWIDTH 23 0
BBX 19 35 2 0
BITMAP
000D80
000D80
003300
006C00
006C00
01B000
01B000
066000
000000
000000
01B360
01B360
066D80
0DB360
0DB360
360000
360000
CC0000
300000
300000
CDB300
CDB300
366C00
CDB300
CDB300
300000
300000
CC0000
360000
360000
0DB360
0DB360
066D80
01B360
01B360
ENDCHAR
STARTCHAR 00CA
ENCODING 202
SWIDTH 690 0
DWIDTH 23 0
BBX 19 35 2 0
BITMAP
01B000
01B000
066C00
0DB300
0DB300
060C00
060C00
0DB300
000000
000000
01B360
01B360
066D80
0DB360
0DB360
360000
360000
CC0000
300000
300000
CDB300
CDB300
366C00
CDB300
CDB300
300000
300000
CC0000
360000
360000
0DB360
0DB360
066D80
01B360
01B360
ENDCHAR
STARTCHAR 00CB
ENCODING 203
SWIDTH 690 0
DWIDTH 23 0
BBX 19 32 2 0
BITMAP
0DB300
0DB300
060C00
060C00
0DB300
000000
000000
01B360
01B360
066D80
0DB360
0DB360
360000
360000
CC0000
300000
300000
CDB300
CDB300
366C00
CDB300
CDB300
300000
300000
CC0000
360000
360000
0DB360
0DB360
066D80
01B360
01B360
ENDCHAR
STARTCHAR 00CC
ENCODING 204
SWIDTH 480 0
DWIDTH 16 0
BBX 15 35 -1 0
BITMAP
D800
D800
3600
1980
1980
06C0
06C0
01B0
0000
0000
19B6
19B6
06CC
19B6
19B6
00C0
00C0
01B0
00C0
00C0
01B0
01B0
00C0
01B0
01B0
00C0
00C0
01B0
00C0
00C0
19B6
19B6
06CC
19B6
19B6
ENDCHAR
STARTCHAR 00CD
ENCODING 205
SWIDTH 480 0
DWIDTH 16 0
BBX 14 35 2 0
BITMAP
006C
006C
01B0
0660
0660
0D80
0D80
3600
0000
0000
CDB0
CDB0
3660
CDB0
CDB0
0600
0600
0D80
0600
0600
0D80
0D80
0600
0D80
0D80
0600
0600
0D80
0600
0600
CDB0
CDB0
3660
CDB0
CDB0
ENDCHAR
STARTCHAR 00CE
ENCODING 206
SWIDTH 480 0
DWIDTH 16 0
BBX 12 35 2 0
BITMAP
0D80
0D80
3660
CDB0
CDB0
3060
3060
CDB0
0000
0000
CDB0
CDB0
3660
CDB0
CDB0
0600
0600
0D80
0600
0600
0D80
0D80
0600
0D80
0D80
0600
0600
0D80
0600
0600
CDB0
CDB0
3660
CDB0
CDB0
ENDCHAR
STARTCHAR 00CF
ENCODING 207
SWIDTH 480 0
DWIDTH 16 0
BBX 12 32 2 0
BITMAP
CDB0
CDB0
3060
3060
CDB0
0000
0000
CDB0
CDB0
3660
CDB0
CDB0
0600
0600
0D80
0600
0600
0D80
0D80
0600
0D80
0D80
0600
0600
0D80
0600
0600
CDB0
CDB0
3660
CDB0
CDB0
ENDCHAR
STARTCHAR 00D0
ENCODING 208
SWIDTH 840 0
DWIDTH 28 0
BBX 25 25 1 0
BITMAP
1B36C000
1B36C000
06D9B000
1B36CC00
1B36CC00
06003600
06003600
1B000D80
06000600
06000600
DB300D80
DB300D80
66C00600
DB300D80
DB300D80
06000600
06000600
1B000D80
06003600
06003600
1B36CC00
1B36CC00
06D9B000
1B36C000
1B36C000
ENDCHAR
STARTCHAR 00D1
ENCODING 209
SWIDTH 780 0
DWIDTH 26 0
BBX 22 35 2 0
BITMAP
066198
066198
0DB060
366D98
366D98
0C3360
0C3360
360D80
000000
000000
CC006C
CC006C
360018
CD806C
CD806C
366018
366018
CDB06C
306C18
306C18
CC336C
CC336C
300D98
CC036C
CC036C
300198
300198
CC006C
300018
300018
CC006C
CC006C
300018
CC006C
CC006C
ENDCHAR
STARTCHAR 00D2
ENCODING 210
SWIDTH 780 0
DWIDTH 26 0
BBX 22 35 2 0
BITMAP
360000
360000
0D8000
066000
066000
01B000
01B000
006C00
000000
000000
01B300
01B300
066D80
0DB360
0DB360
360198
360198
CC006C
300018
300018
CC006C
CC006C
300018
CC006C
CC006C
300018
300018
CC006C
360198
360198
0DB360
0DB360
066D80
01B300
01B300
ENDCHAR
STARTCHAR 00D3
ENCODING 211
SWIDTH 780 0
DWIDTH 26 0
BBX 22 35 2 0
BITMAP
000360
000360
000D80
003300
003300
006C00
006C00
01B000
000000
000000
01B300
01B300
066D80
0DB360
0DB360
360198
360198
CC006C
300018
300018
CC006C
CC006C
300018
CC006C
CC006C
300018
300018
CC006C
360198
360198
0DB360
0DB360
066D80
01B300
01B300
ENDCHAR
STARTCHAR 00D4
ENCODING 212
SWIDTH 780 0
DWIDTH 26 0
BBX 22 35 2 0
BITMAP
006C00
006C00
01B300
066D80
066D80
018300
018300
066D80
000000
000000
01B300
01B300
066D80
0DB360
0DB360
360198
360198
CC006C
300018
300018
CC006C
CC006C
300018
CC006C
CC006C
300018
300018
CC006C
360198
360198
0DB360
0DB360
066D80
01B300
01B300
ENDCHAR
STARTCHAR 00D5
ENCODING 213
SWIDTH 780 0
DWIDTH 26 0
BBX 22 35 2 0
BITMAP
066198
066198
0DB060
366D98
366D98
0C3360
0C3360
360D80
000000
000000
01B300
01B300
066D80
0DB360
0DB360
360198
360198
CC006C
300018
300018
CC006C
CC006C
300018
CC006C
CC006C
300018
300018
CC006C
360198
360198
0DB360
0DB360
066D80
01B300
01B300
ENDCHAR
STARTCHAR 00D6
ENCODING 214
SWIDTH 780 0
DWIDTH 26 0
BBX 22 32 2 0
BITMAP
066D80
066D80
018300
018300
066D80
000000
000000
01B300
01B300
066D80
0DB360
0DB360
360198
360198
CC006C
300018
300018
CC006C
CC006C
300018
CC006C
CC006C
300018
300018
CC006C
360198
360198
0DB360
0DB360
066D80
01B300
01B300
ENDCHAR
STARTCHAR 00D7
ENCODING 215
SWIDTH 690 0
DWIDTH 23 0
BBX 19 20 2 3
BITMAP
300180
CC0360
CC0360
360D80
360D80
0DB300
066C00
066C00
01B000
01B000
066C00
0DB300
0DB300
360D80
360D80
CC0360
300180
300180
CC0360
CC0360
ENDCHAR
STARTCHAR 00D8
ENCODING 216
SWIDTH 900 0
DWIDTH 30 0
BBX 28 25 1 0
BITMAP
0036C000
0036C000
00D9B000
0336CC00
0336CC00
06C03600
06C03600
1B000D80
06000600
06000600
DB36CDB0
DB36CDB0
66D9B660
DB36CDB0
DB36CDB0
06000600
06000600
1B000D80
06C03600
06C03600
0336CC00
0336CC00
00D9B000
0036C000
0036C000
ENDCHAR
STARTCHAR 00D9
ENCODING 217
SWIDTH 780 0
DWIDTH 26 0
BBX 22 35 2 0
BITMAP
360000
360000
0D8000
066000
066000
01B000
01B000
006C00
000000
000000
CC006C
CC006C
300018
CC006C
CC006C
300018
300018
CC006C
300018
300018
CC006C
CC006C
300018
CC006C
CC006C
300018
300018
CC006C
360198
360198
0DB360
0DB360
066D80
01B300
01B300
ENDCHAR
STARTCHAR 00DA
ENCODING 218
SWIDTH 780 0
DWIDTH 26 0
BBX 22 35 2 0
BITMAP
000360
000360
000D80
003300
003300
006C00
006C00
01B000
000000
000000
CC006C
CC006C
300018
CC006C
CC006C
300018
300018
CC006C
300018
300018
CC006C
CC006C
300018
CC006C
CC006C
300018
300018
CC006C
360198
360198
0DB360
0DB360
066D80
01B300
01B300
ENDCHAR
STARTCHAR 00DB
ENCODING 219
SWIDTH 780 0
DWIDTH 26 0
BBX 22 35 2 0
BITMAP
006C00
006C00
01B300
066D80
066D80
018300
018300
066D80
000000
000000
CC006C
CC006C
300018
CC006C
CC006C
300018
300018
CC006C
300018
300018
CC006C
CC006C
300018
CC006C
CC006C
300018
300018
CC006C
360198
360198
0DB360
0DB360
066D80
01B300
01B300
ENDCHAR
STARTCHAR 00DC
ENCODING 220
SWIDTH 780 0
DWIDTH 26 0
BBX 22 32 2 0
BITMAP
066D80
066D80
018300
018300
066D80
000000
000000
CC006C
CC006C
300018
CC006C
CC006C
300018
300018
CC006C
300018
300018
CC006C
CC006C
300018
CC006C
CC006C
300018
300018
CC006C
360198
360198
0DB360
0DB360
066D80
01B300
01B300
ENDCHAR
STARTCHAR 00DD
ENCODING 221
SWIDTH 690 0
DWIDTH 23 0
BBX 19 35 2 0
BITMAP
000D80
000D80
003300
006C00
006C00
01B000
01B000
066000
000000
000000
CC0360
CC0360
300180
CC0360
CC0360
300180
300180
CC0360
300180
300180
CC0360
CC0360
360D80
0DB300
0DB300
066C00
066C00
01B000
006000
006000
01B000
01B000
006000
01B000
01B000
ENDCHAR
STARTCHAR 00DE
ENCODING 222
SWIDTH 690 0
DWIDTH 23 0
BBX 19 25 2 0
BITMAP
CC0000
CC0000
300000
CDB300
CDB300
366D80
366D80
CDB360
300180
300180
CC0360
CC0360
300180
CC0360
CC0360
300180
300180
CDB360
366D80
366D80
CDB300
CDB300
300000
CC0000
CC0000
ENDCHAR
STARTCHAR 00DF
ENCODING 223
SWIDTH 690 0
DWIDTH 23 0
BBX 19 25 2 0
BITMAP
0DB300
0DB300
366D80
CDB360
CDB360
300180
300180
CC0360
300D80
300D80
CDB300
CDB300
306D80
CDB360
CDB360
300180
300180
CC0360
300180
300180
CDB360
CDB360
306D80
CDB300
CDB300
ENDCHAR
STARTCHAR 00E0
ENCODING 224
SWIDTH 690 0
DWIDTH 23 0
BBX 19 35 2 0
BITMAP
CC0000
CC0000
360000
0D8000
0D8000
066000
066000
01B000
000000
000000
0DB300
0DB300
366D80
CDB360
CDB360
300180
300180
CC0360
300180
300180
CC0360
CC0360
300180
CDB360
CDB360
366D80
366D80
CDB360
300180
300180
CC0360
CC0360
300180
CC0360
CC0360
ENDCHAR
STARTCHAR 00E1
ENCODING 225
SWIDTH 690 0
DWIDTH 23 0
BBX 19 35 2 0
BITMAP
000D80
000D80
003300
006C00
006C00
01B000
01B000
066000
000000
000000
0DB300
0DB300
366D80
CDB360
CDB360
300180
300180
CC0360
300180
300180
CC0360
CC0360
300180
CDB360
CDB360
366D80
366D80
CDB360
300180
300180
CC0360
CC0360
300180
CC0360
CC0360
ENDCHAR
STARTCHAR 00E2
ENCODING 226
SWIDTH 690 0
DWIDTH 23 0
BBX 19 35 2 0
BITMAP
01B000
01B000
066C00
0DB300
0DB300
060C00
060C00
0DB300
000000
000000
0DB300
0DB300
366D80
CDB360
CDB360
300180
300180
CC0360
300180
300180
CC0360
CC0360
300180
CDB360
CDB360
366D80
366D80
CDB360
300180
300180
CC0360
CC0360
300180
CC0360
CC0360
ENDCHAR
STARTCHAR 00E3
ENCODING 227
SWIDTH 690 0
DWIDTH 23 0
BBX 19 35 2 0
BITMAP
0D8360
0D8360
366180
CDB360
CDB360
306D80
306D80
CC3300
000000
000000
0DB300
0DB300
366D80
CDB360
CDB360
300180
300180
CC0360
300180
300180
CC0360
CC0360
300180
CDB360
CDB360
366D80
366D80
CDB360
300180
300180
CC0360
CC0360
300180
CC0360
CC0360
ENDCHAR
STARTCHAR 00E4
ENCODING 228
SWIDTH 690 0
DWIDTH 23 0
BBX 19 32 2 0
BITMAP
0DB300
0DB300
060C00
060C00
0DB300
000000
000000
0DB300
0DB300
366D80
CDB360
CDB360
300180
300180
CC0360
300180
300180
CC0360
CC0360
300180
CDB360
CDB360
366D80
366D80
CDB360
300180
300180
CC0360
CC0360
300180
CC0360
CC0360
ENDCHAR
STARTCHAR 00E5
ENCODING 229
SWIDTH 690 0
DWIDTH 23 0
BBX 19 42 2 0
BITMAP
066C00
066C00
0DB300
0DB300
366D80
0C0300
0C0300
360D80
360D80
0C0300
366D80
366D80
0DB300
0DB300
066C00
000000
000000
0DB300
0DB300
366D80
CDB360
CDB360
300180
300180
CC0360
300180
300180
CC0360
CC0360
300180
CDB360
CDB360
366D80
366D80
CDB360
300180
300180
CC0360
CC0360
300180
CC0360
CC0360
ENDCHAR
STARTCHAR 00E6
ENCODING 230
SWIDTH 1080 0
DWIDTH 36 0
BBX 32 25 2 0
BITMAP
0DB36CDB
0DB36CDB
366D9B66
CDB36CDB
CDB36CDB
30018000
30018000
CC036000
30018000
30018000
CC036CD8
CC036CD8
30019B60
CDB36CD8
CDB36CD8
366D8000
366D8000
CDB36000
30018000
30018000
CC036CDB
CC036CDB
30019B66
CC006CDB
CC006CDB
ENDCHAR
STARTCHAR 00E7
ENCODING 231
SWIDTH 690 0
DWIDTH 23 0
BBX 19 32 2 -7
BITMAP
0DB300
0DB300
366D80
CDB360
CDB360
300180
300180
CC0360
300180
300180
CC0360
CC0360
300000
CC0000
CC0000
300000
300000
CC0360
300180
300180
CDB360
CDB360
366D80
0DB300
0DB300
006000
006000
0DB000
066000
066000
0D8000
0D8000
ENDCHAR
STARTCHAR 00E8
ENCODING 232
SWIDTH 690 0
DWIDTH 23 0
BBX 19 35 2 0
BITMAP
CC0000
CC0000
360000
0D8000
0D8000
066000
066000
01B000
000000
000000
0DB360
0DB360
366D80
CDB360
CDB360
300000
300000
CC0000
300000
300000
CDB300
CDB300
366C00
CDB300
CDB300
300000
300000
CC0000
300000
300000
CDB360
CDB360
366D80
0DB360
0DB360
ENDCHAR
STARTCHAR 00E9
ENCODING 233
SWIDTH 690 0
DWIDTH 23 0
BBX 19 35 2 0
BITMAP
000D80
000D80
003300
006C00
006C00
01B000
01B000
066000
000000
000000
0DB360
0DB360
366D80
CDB360
CDB360
300000
300000
CC0000
300000
300000
CDB300
CDB300
366C00
CDB300
CDB300
300000
300000
CC0000
300000
300000
CDB360
CDB360
366D80
0DB360
0DB360
ENDCHAR
STARTCHAR 00EA
ENCODING 234
SWIDTH 690 0
DWIDTH 23 0
BBX 19 35 2 0
BITMAP
01B000
01B000
066C00
0DB300
0DB300
060C00
060C00
0DB300
000000
000000
0DB360
0DB360
366D80
CDB360
CDB360
300000
300000
CC0000
300000
300000
CDB300
CDB300
366C00
CDB300
CDB300
300000
300000
CC0000
300000
300000
CDB360
CDB360
366D80
0DB360
0DB360
ENDCHAR
STARTCHAR 00EB
ENCODING 235
SWIDTH 690 0
DWIDTH 23 0
BBX 19 32 2 0
BITMAP
0DB300
0DB300
060C00
060C00
0DB300
000000
000000
0DB360
0DB360
366D80
CDB360
CDB360
300000
300000
CC0000
300000
300000
CDB300
CDB300
366C00
CDB300
CDB300
300000
300000
CC0000
300000
300000
CDB360
CDB360
366D80
0DB360
0DB360
ENDCHAR
STARTCHAR 00EC
ENCODING 236
SWIDTH 300 0
DWIDTH 10 0
BBX 12 35 -4 0
BITMAP
D800
D800
6600
1B00
1B00
06C0
06C0
0330
0000
0000
0330
0330
00C0
0330
0330
00C0
00C0
0330
00C0
00C0
0330
0330
00C0
0330
0330
00C0
00C0
0330
00C0
00C0
0330
0330
00C0
0330
0330
ENDCHAR
STARTCHAR 00ED
ENCODING 237
SWIDTH 300 0
DWIDTH 10 0
BBX 12 35 1 0
BITMAP
0330
0330
06C0
1B00
1B00
6600
6600
D800
0000
0000
6600
6600
1800
6600
6600
1800
1800
6600
1800
1800
6600
6600
1800
6600
6600
1800
1800
6600
1800
1800
6600
6600
1800
6600
6600
ENDCHAR
STARTCHAR 00EE
ENCODING 238
SWIDTH 300 0
DWIDTH 10 0
BBX 12 35 -1 0
BITMAP
1980
1980
36C0
D9B0
D9B0
30C0
30C0
D9B0
0000
0000
1980
1980
0600
1980
1980
0600
0600
1980
0600
0600
1980
1980
0600
1980
1980
0600
0600
1980
0600
0600
1980
1980
0600
1980
1980
ENDCHAR
STARTCHAR 00EF
ENCODING 239
SWIDTH 300 0
DWIDTH 10 0
BBX 12 32 -1 0
BITMAP
D9B0
D9B0
30C0
30C0
D9B0
0000
0000
1980
1980
0600
1980
1980
0600
0600
1980
0600
0600
1980
1980
0600
1980
1980
0600
0600
1980
0600
0600
1980
1980
0600
1980
1980
ENDCHAR
STARTCHAR 00F0
ENCODING 240
SWIDTH 750 0
DWIDTH 25 0
BBX 22 25 1 0
BITMAP
1B36C0
1B36C0
06D9B0
1B36CC
1B36CC
060030
060030
1B00CC
060030
060030
DB30CC
DB30CC
66C030
DB30CC
DB30CC
060030
060030
1B00CC
060030
060030
1B36CC
1B36CC
06D9B0
1B36C0
1B36C0
ENDCHAR
STARTCHAR 00F1
ENCODING 241
SWIDTH 690 0
DWIDTH 23 0
BBX 19 35 2 0
BITMAP
0D8360
0D8360
366180
CDB360
CDB360
306D80
306D80
CC3300
000000
000000
CC0360
CC0360
360180
CD8360
CD8360
366180
366180
CDB360
306D80
306D80
CC3360
CC3360
300D80
CC0360
CC0360
300180
300180
CC0360
300180
300180
CC0360
CC0360
300180
CC0360
CC0360
ENDCHAR
STARTCHAR 00F2
ENCODING 242
SWIDTH 690 0
DWIDTH 23 0
BBX 19 35 2 0
BITMAP
CC0000
CC0000
360000
0D8000
0D8000
066000
066000
01B000
000000
000000
0DB300
0DB300
366D80
CDB360
CDB360
300180
300180
CC0360
300180
300180
CC0360
CC0360
300180
CC0360
CC0360
300180
300180
CC0360
300180
300180
CDB360
CDB360
366D80
0DB300
0DB300
ENDCHAR
STARTCHAR 00F3
ENCODING 243
SWIDTH 690 0
DWIDTH 23 0
BBX 19 35 2 0
BITMAP
000D80
000D80
003300
006C00
006C00
01B000
01B000
066000
000000
000000
0DB300
0DB300
366D80
CDB360
CDB360
300180
300180
CC0360
300180
300180
CC0360
CC0360
300180
CC0360
CC0360
300180
300180
CC0360
300180
300180
CDB360
CDB360
366D80
0DB300
0DB300
ENDCHAR
STARTCHAR 00F4
ENCODING 244
SWIDTH 690 0
DWIDTH 23 0
BBX 19 35 2 0
BITMAP
01B000
01B000
066C00
0DB300
0DB300
060C00
060C00
0DB300
000000
000000
0DB300
0DB300
366D80
CDB360
CDB360
300180
300180
CC0360
300180
300180
CC0360
CC0360
300180
CC0360
CC0360
300180
300180
CC0360
300180
300180
CDB360
CDB360
366D80
0DB300
0DB300
ENDCHAR
STARTCHAR 00F5
ENCODING 245
SWIDTH 690 0
DWIDTH 23 0
BBX 19 35 2 0
BITMAP
0D8360
0D8360
366180
CDB360
CDB360
306D80
306D80
CC3300
000000
000000
0DB300
0DB300
366D80
CDB360
CDB360
300180
300180
CC0360
300180
300180
CC0360
CC0360
300180
CC0360
CC0360
300180
300180
CC0360
300180
300180
CDB360
CDB360
366D80
0DB300
0DB300
ENDCHAR
STARTCHAR 00F6
ENCODING 246
SWIDTH 690 0
DWIDTH 23 0
BBX 19 32 2 0
BITMAP
0DB300
0DB300
060C00
060C00
0DB300
000000
000000
0DB300
0DB300
366D80
CDB360
CDB360
300180
300180
CC0360
300180
300180
CC0360
CC0360
300180
CC0360
CC0360
300180
300180
CC0360
300180
300180
CDB360
CDB360
366D80
0DB300
0DB300
ENDCHAR
STARTCHAR 00F7
ENCODING 247
SWIDTH 690 0
DWIDTH 23 0
BBX 19 19 2 3
BITMAP
01B000
01B000
006000
006000
01B000
000000
000000
CDB360
CDB360
366D80
CDB360
CDB360
000000
000000
01B000
006000
006000
01B000
01B000
ENDCHAR
STARTCHAR 00F8
ENCODING 248
SWIDTH 780 0
DWIDTH 26 0
BBX 25 25 1 0
BITMAP
0336C000
0336C000
06D9B000
1B36CC00
1B36CC00
06003000
06003000
1B00CC00
06003000
06003000
DB36CD80
DB36CD80
66D9B600
DB36CD80
DB36CD80
06003000
06003000
1B00CC00
06003000
06003000
1B36CC00
1B36CC00
06D9B000
0336C000
0336C000
ENDCHAR
STARTCHAR 00F9
ENCODING 249
SWIDTH 690 0
DWIDTH 23 0
BBX 19 35 2 0
BITMAP
CC0000
CC0000
360000
0D8000
0D8000
066000
066000
01B000
000000
000000
CC0360
CC0360
300180
CC0360
CC0360
300180
300180
CC0360
300180
300180
CC0360
CC0360
300180
CC0360
CC0360
300180
300180
CC0360
300180
300180
CDB360
CDB360
366D80
0DB300
0DB300
ENDCHAR
STARTCHAR 00FA
ENCODING 250
SWIDTH 690 0
DWIDTH 23 0
BBX 19 35 2 0
BITMAP
000D80
000D80
003300
006C00
006C00
01B000
01B000
066000
000000
000000
CC0360
CC0360
300180
CC0360
CC0360
300180
300180
CC0360
300180
300180
CC0360
CC0360
300180
CC0360
CC0360
300180
300180
CC0360
300180
300180
CDB360
CDB360
366D80
0DB300
0DB300
ENDCHAR
STARTCHAR 00FB
ENCODING 251
SWIDTH 690 0
DWIDTH 23 0
BBX 19 35 2 0
BITMAP
01B000
01B000
066C00
0DB300
0DB300
060C00
060C00
0DB300
000000
000000
CC0360
CC0360
300180
CC0360
CC0360
300180
300180
CC0360
300180
300180
CC0360
CC0360
300180
CC0360
CC0360
300180
300180
CC0360
300180
300180
CDB360
CDB360
366D80
0DB300
0DB300
ENDCHAR
STARTCHAR 00FC
ENCODING 252
SWIDTH 690 0
DWIDTH 23 0
BBX 19 32 2 0
BITMAP
0DB300
0DB300
060C00
060C00
0DB300
000000
000000
CC0360
CC0360
300180
CC0360
CC0360
300180
300180
CC0360
300180
300180
CC0360
CC0360
300180
CC0360
CC0360
300180
300180
CC0360
300180
300180
CDB360
CDB360
366D80
0DB300
0DB300
ENDCHAR
STARTCHAR 00FD
ENCODING 253
SWIDTH 690 0
DWIDTH 23 0
BBX 19 35 2 0
BITMAP
000D80
000D80
003300
006C00
006C00
01B000
01B000
066000
000000
000000
CC0360
CC0360
300180
CC0360
CC0360
300180
300180
CC0360
300180
300180
CC0360
CC0360
300180
CDB360
CDB360
366D80
366D80
0DB300
006000
006000
01B000
01B000
006000
01B000
01B000
ENDCHAR
STARTCHAR 00FE
ENCODING 254
SWIDTH 690 0
DWIDTH 23 0
BBX 19 25 2 0
BITMAP
CC0000
CC0000
300000
CDB300
CDB300
366D80
366D80
CDB360
300180
300180
CC0360
CC0360
300180
CC0360
CC0360
300180
300180
CDB360
366D80
366D80
CDB300
CDB300
300000
CC0000
CC0000
ENDCHAR
STARTCHAR 00FF
ENCODING 255
SWIDTH 690 0
DWIDTH 23 0
BBX 19 32 2 0
BITMAP
0DB300
0DB300
060C00
060C00
0DB300
000000
000000
CC0360
CC0360
300180
CC0360
CC0360
300180
300180
CC0360
300180
300180
CC0360
CC0360
300180
CDB360
CDB360
366D80
366D80
0DB300
006000
006000
01B000
01B000
006000
01B000
01B000
ENDCHAR
STARTCHAR 0100
ENCODING 256
SWIDTH 690 0
DWIDTH 23 0
BBX 19 32 2 0
BITMAP
0DB300
0DB300
066C00
066C00
0DB300
000000
000000
01B000
01B000
066C00
0DB300
0DB300
360D80
360D80
CC0360
300180
300180
CC0360
CC0360
300180
CDB360
CDB360
366D80
366D80
CDB360
300180
300180
CC0360
CC0360
300180
CC0360
CC0360
ENDCHAR
STARTCHAR 0101
ENCODING 257
SWIDTH 690 0
DWIDTH 23 0
BBX 19 32 2 0
BITMAP
0DB300
0DB300
066C00
066C00
0DB300
000000
000000
0DB300
0DB300
366D80
CDB360
CDB360
300180
300180
CC0360
300180
300180
CC0360
CC0360
300180
CDB360
CDB360
366D80
366D80
CDB360
300180
300180
CC0360
CC0360
300180
CC0360
CC0360
ENDCHAR
STARTCHAR 0102
ENCODING 258
SWIDTH 690 0
DWIDTH 23 0
BBX 19 35 2 0
BITMAP
360D80
360D80
0C0300
366D80
366D80
0DB300
0DB300
066C00
000000
000000
01B000
01B000
066C00
0DB300
0DB300
360D80
360D80
CC0360
300180
300180
CC0360
CC0360
300180
CDB360
CDB360
366D80
366D80
CDB360
300180
300180
CC0360
CC0360
300180
CC0360
CC0360
ENDCHAR
STARTCHAR 0103
ENCODING 259
SWIDTH 690 0
DWIDTH 23 0
BBX 19 35 2 0
BITMAP
360D80
360D80
0C0300
366D80
366D80
0DB300
0DB300
066C00
000000
000000
0DB300
0DB300
366D80
CDB360
CDB360
300180
300180
CC0360
300180
300180
CC0360
CC0360
300180
CDB360
CDB360
366D80
366D80
CDB360
300180
300180
CC0360
CC0360
300180
CC0360
CC0360
ENDCHAR
STARTCHAR 0104
ENCODING 260
SWIDTH 690 0
DWIDTH 23 0
BBX 22 32 2 -7
BITMAP
01B000
01B000
066C00
0DB300
0DB300
360D80
360D80
CC0360
300180
300180
CC0360
CC0360
300180
CDB360
CDB360
366D80
366D80
CDB360
300180
300180
CC0360
CC0360
300180
CC0360
CC0360
000180
000180
00036C
000198
000198
00006C
00006C
ENDCHAR
STARTCHAR 0105
ENCODING 261
SWIDTH 690 0
DWIDTH 23 0
BBX 22 32 2 -7
BITMAP
0DB300
0DB300
366D80
CDB360
CDB360
300180
300180
CC0360
300180
300180
CC0360
CC0360
300180
CDB360
CDB360
366D80
366D80
CDB360
300180
300180
CC0360
CC0360
300180
CC0360
CC0360
000180
000180
00036C
000198
000198
00006C
00006C
ENDCHAR
STARTCHAR 0106
ENCODING 262
SWIDTH 780 0
DWIDTH 26 0
BBX 22 35 2 0
BITMAP
000360
000360
000D80
003300
003300
006C00
006C00
01B000
000000
000000
01B300
01B300
066D80
0DB360
0DB360
360198
360198
CC006C
300018
300018
CC006C
CC006C
300000
CC0000
CC0000
300000
300000
CC006C
360198
360198
0DB360
0DB360
066D80
01B300
01B300
ENDCHAR
STARTCHAR 0107
ENCODING 263
SWIDTH 690 0
DWIDTH 23 0
BBX 19 35 2 0
BITMAP
000D80
000D80
003300
006C00
006C00
01B000
01B000
066000
000000
000000
0DB300
0DB300
366D80
CDB360
CDB360
300180
300180
CC0360
300180
300180
CC0360
CC0360
300000
CC0000
CC0000
300000
300000
CC0360
300180
300180
CDB360
CDB360
366D80
0DB300
0DB300
ENDCHAR
STARTCHAR 010A
ENCODING 266
SWIDTH 780 0
DWIDTH 26 0
BBX 22 32 2 0
BITMAP
006C00
006C00
003000
003000
006C00
000000
000000
01B300
01B300
066D80
0DB360
0DB360
360198
360198
CC006C
300018
300018
CC006C
CC006C
300000
CC0000
CC0000
300000
300000
CC006C
360198
360198
0DB360
0DB360
066D80
01B300
01B300
ENDCHAR
STARTCHAR 010B
ENCODING 267
SWIDTH 690 0
DWIDTH 23 0
BBX 19 32 2 0
BITMAP
01B000
01B000
006000
006000
01B000
000000
000000
0DB300
0DB300
366D80
CDB360
CDB360
300180
300180
CC0360
300180
300180
CC0360
CC0360
300000
CC0000
CC0000
300000
300000
CC0360
300180
300180
CDB360
CDB360
366D80
0DB300
0DB300
ENDCHAR
STARTCHAR 010C
ENCODING 268
SWIDTH 780 0
DWIDTH 26 0
BBX 22 35 2 0
BITMAP
066D80
066D80
018300
066D80
066D80
01B300
01B300
006C00
000000
000000
01B300
01B300
066D80
0DB360
0DB360
360198
360198
CC006C
300018
300018
CC006C
CC006C
300000
CC0000
CC0000
300000
300000
CC006C
360198
360198
0DB360
0DB360
066D80
01B300
01B300
ENDCHAR
STARTCHAR 010D
ENCODING 269
SWIDTH 690 0
DWIDTH 23 0
BBX 19 35 2 0
BITMAP
0DB300
0DB300
060C00
0DB300
0DB300
066C00
066C00
01B000
000000
000000
0DB300
0DB300
366D80
CDB360
CDB360
300180
300180
CC0360
300180
300180
CC0360
CC0360
300000
CC0000
CC0000
300000
300000
CC0360
300180
300180
CDB360
CDB360
366D80
0DB300
0DB300
ENDCHAR
STARTCHAR 010E
ENCODING 270
SWIDTH 780 0
DWIDTH 26 0
BBX 22 35 2 0
BITMAP
066D80
066D80
018300
066D80
066D80
01B300
01B300
006C00
000000
000000
CDB300
CDB300
366D80
CDB360
CDB360
300198
300198
CC006C
300018
300018
CC006C
CC006C
300018
CC006C
CC006C
300018
300018
CC006C
300198
300198
CDB360
CDB360
366D80
CDB300
CDB300
ENDCHAR
STARTCHAR 010F
ENCODING 271
SWIDTH 690 0
DWIDTH 23 0
BBX 19 35 2 0
BITMAP
0DB300
0DB300
060C00
0DB300
0DB300
066C00
066C00
01B000
000000
000000
CDB300
CDB300
366D80
CDB360
CDB360
300180
300180
CC0360
300180
300180
CC0360
CC0360
300180
CC0360
CC0360
300180
300180
CC0360
300180
300180
CDB360
CDB360
366D80
CDB300
CDB300
ENDCHAR
STARTCHAR 0110
ENCODING 272
SWIDTH 840 0
DWIDTH 28 0
BBX 25 25 1 0
BITMAP
1B36C000
1B36C000
06D9B000
1B36CC00
1B36CC00
06003600
06003600
1B000D80
06000600
06000600
DB300D80
DB300D80
66C00600
DB300D80
DB300D80
06000600
06000600
1B000D80
06003600
06003600
1B36CC00
1B36CC00
06D9B000
1B36C000
1B36C000
ENDCHAR
STARTCHAR 0111
ENCODING 273
SWIDTH 750 0
DWIDTH 25 0
BBX 22 25 1 0
BITMAP
1B36C0
1B36C0
06D9B0
1B36CC
1B36CC
060030
060030
1B00CC
060030
060030
DB30CC
DB30CC
66C030
DB30CC
DB30CC
060030
060030
1B00CC
060030
060030
1B36CC
1B36CC
06D9B0
1B36C0
1B36C0
ENDCHAR
STARTCHAR 0112
ENCODING 274
SWIDTH 690 0
DWIDTH 23 0
BBX 19 32 2 0
BITMAP
0DB300
0DB300
066C00
066C00
0DB300
000000
000000
01B360
01B360
066D80
0DB360
0DB360
360000
360000
CC0000
300000
300000
CDB300
CDB300
366C00
CDB300
CDB300
300000
300000
CC0000
360000
360000
0DB360
0DB360
066D80
01B360
01B360
ENDCHAR
STARTCHAR 0113
ENCODING 275
SWIDTH 690 0
DWIDTH 23 0
BBX 19 32 2 0
BITMAP
0DB300
0DB300
066C00
066C00
0DB300
000000
000000
0DB360
0DB360
366D80
CDB360
CDB360
300000
300000
CC0000
300000
300000
CDB300
CDB300
366C00
CDB300
CDB300
300000
300000
CC0000
300000
300000
CDB360
CDB360
366D80
0DB360
0DB360
ENDCHAR
STARTCHAR 0116
ENCODING 278
SWIDTH 690 0
DWIDTH 23 0
BBX 19 32 2 0
BITMAP
01B000
01B000
006000
006000
01B000
000000
000000
01B360
01B360
066D80
0DB360
0DB360
360000
360000
CC0000
300000
300000
CDB300
CDB300
366C00
CDB300
CDB300
300000
300000
CC0000
360000
360000
0DB360
0DB360
066D80
01B360
01B360
ENDCHAR
STARTCHAR 0117
ENCODING 279
SWIDTH 690 0
DWIDTH 23 0
BBX 19 32 2 0
BITMAP
01B000
01B000
006000
006000
01B000
000000
000000
0DB360
0DB360
366D80
CDB360
CDB360
300000
300000
CC0000
300000
300000
CDB300
CDB300
366C00
CDB300
CDB300
300000
300000
CC0000
300000
300000
CDB360
CDB360
366D80
0DB360
0DB360
ENDCHAR
STARTCHAR 0118
ENCODING 280
SWIDTH 690 0
DWIDTH 23 0
BBX 22 32 2 -7
BITMAP
01B360
01B360
066D80
0DB360
0DB360
360000
360000
CC0000
300000
300000
CDB300
CDB300
366C00
CDB300
CDB300
300000
300000
CC0000
360000
360000
0DB360
0DB360
066D80
01B360
01B360
000180
000180
00036C
000198
000198
00006C
00006C
ENDCHAR
STARTCHAR 0119
ENCODING 281
SWIDTH 690 0
DWIDTH 23 0
BBX 22 32 2 -7
BITMAP
0DB360
0DB360
366D80
CDB360
CDB360
300000
300000
CC0000
300000
300000
CDB300
CDB300
366C00
CDB300
CDB300
300000
300000
CC0000
300000
300000
CDB360
CDB360
366D80
0DB360
0DB360
000180
000180
00036C
000198
000198
00006C
00006C
ENDCHAR
STARTCHAR 011A
ENCODING 282
SWIDTH 690 0
DWIDTH 23 0
BBX 19 35 2 0
BITMAP
0DB300
0DB300
060C00
0DB300
0DB300
066C00
066C00
01B000
000000
000000
01B360
01B360
066D80
0DB360
0DB360
360000
360000
CC0000
300000
300000
CDB300
CDB300
366C00
CDB300
CDB300
300000
300000
CC0000
360000
360000
0DB360
0DB360
066D80
01B360
01B360
ENDCHAR
STARTCHAR 011B
ENCODING 283
SWIDTH 690 0
DWIDTH 23 0
BBX 19 35 2 0
BITMAP
0DB300
0DB300
060C00
0DB300
0DB300
066C00
066C00
01B000
000000
000000
0DB360
0DB360
366D80
CDB360
CDB360
300000
300000
CC0000
300000
300000
CDB300
CDB300
366C00
CDB300
CDB300
300000
300000
CC0000
300000
300000
CDB360
CDB360
366D80
0DB360
0DB360
ENDCHAR
STARTCHAR 011E
ENCODING 286
SWIDTH 780 0
DWIDTH 26 0
BBX 22 35 2 0
BITMAP
0D8360
0D8360
060180
0DB360
0DB360
066D80
066D80
01B300
000000
000000
01B36C
01B36C
066D98
0DB36C
0DB36C
360000
360000
CC0000
300000
300000
CC336C
CC336C
300D98
CC336C
CC336C
300018
300018
CC006C
360018
360018
0DB36C
0DB36C
066D98
01B36C
01B36C
ENDCHAR
STARTCHAR 011F
ENCODING 287
SWIDTH 690 0
DWIDTH 23 0
BBX 19 35 2 0
BITMAP
360D80
360D80
0C0300
366D80
366D80
0DB300
0DB300
066C00
000000
000000
0DB360
0DB360
366D80
CDB360
CDB360
300000
300000
CC0000
300000
300000
CC3360
CC3360
300D80
CC3360
CC3360
300180
300180
CC0360
300180
300180
CDB360
CDB360
366D80
0DB300
0DB300
ENDCHAR
STARTCHAR 0120
ENCODING 288
SWIDTH 780 0
DWIDTH 26 0
BBX 22 32 2 0
BITMAP
006C00
006C00
003000
003000
006C00
000000
000000
01B36C
01B36C
066D98
0DB36C
0DB36C
360000
360000
CC0000
300000
300000
CC336C
CC336C
300D98
CC336C
CC336C
300018
300018
CC006C
360018
360018
0DB36C
0DB36C
066D98
01B36C
01B36C
ENDCHAR
STARTCHAR 0121
ENCODING 289
SWIDTH 690 0
DWIDTH 23 0
BBX 19 32 2 0
BITMAP
01B000
01B000
006000
006000
01B000
000000
000000
0DB360
0DB360
366D80
CDB360
CDB360
300000
300000
CC0000
300000
300000
CC3360
CC3360
300D80
CC3360
CC3360
300180
300180
CC0360
300180
300180
CDB360
CDB360
366D80
0DB300
0DB300
ENDCHAR
STARTCHAR 0122
ENCODING 290
SWIDTH 780 0
DWIDTH 26 0
BBX 22 35 2 -10
BITMAP
01B36C
01B36C
066D98
0DB36C
0DB36C
360000
360000
CC0000
300000
300000
CC336C
CC336C
300D98
CC336C
CC336C
300018
300018
CC006C
360018
360018
0DB36C
0DB36C
066D98
01B36C
01B36C
000000
000000
006C00
003000
003000
006C00
006C00
003000
006000
006000
ENDCHAR
STARTCHAR 0123
ENCODING 291
SWIDTH 690 0
DWIDTH 23 0
BBX 19 35 2 -10
BITMAP
0DB360
0DB360
366D80
CDB360
CDB360
300000
300000
CC0000
300000
300000
CC3360
CC3360
300D80
CC3360
CC3360
300180
300180
CC0360
300180
300180
CDB360
CDB360
366D80
0DB300
0DB300
000000
000000
01B000
006000
006000
01B000
01B000
006000
018000
018000
ENDCHAR
STARTCHAR 0126
ENCODING 294
SWIDTH 900 0
DWIDTH 30 0
BBX 28 25 1 0
BITMAP
1B000D80
1B000D80
06000600
DB36CDB0
DB36CDB0
66D9B660
66D9B660
DB36CDB0
06000600
06000600
1B36CD80
1B36CD80
06D9B600
1B36CD80
1B36CD80
06000600
06000600
1B000D80
06000600
06000600
1B000D80
1B000D80
06000600
1B000D80
1B000D80
ENDCHAR
STARTCHAR 0127
ENCODING 295
SWIDTH 780 0
DWIDTH 26 0
BBX 25 25 1 0
BITMAP
1B00CC00
1B00CC00
06003000
DB36CD80
DB36CD80
66D9B600
66D9B600
DB36CD80
06003000
06003000
1B36CC00
1B36CC00
06D9B000
1B36CC00
1B36CC00
06003000
06003000
1B00CC00
06003000
06003000
1B00CC00
1B00CC00
06003000
1B00CC00
1B00CC00
ENDCHAR
STARTCHAR 0128
ENCODING 296
SWIDTH 480 0
DWIDTH 16 0
BBX 19 35 -1 0
BITMAP
198660
198660
36C180
D9B660
D9B660
30CD80
30CD80
D83600
000000
000000
19B600
19B600
06CC00
19B600
19B600
00C000
00C000
01B000
00C000
00C000
01B000
01B000
00C000
01B000
01B000
00C000
00C000
01B000
00C000
00C000
19B600
19B600
06CC00
19B600
19B600
ENDCHAR
STARTCHAR 0129
ENCODING 297
SWIDTH 300 0
DWIDTH 10 0
BBX 18 35 -4 0
BITMAP
1B06C0
1B06C0
66C180
DB36C0
DB36C0
60D980
60D980
D83600
000000
000000
033000
033000
00C000
033000
033000
00C000
00C000
033000
00C000
00C000
033000
033000
00C000
033000
033000
00C000
00C000
033000
00C000
00C000
033000
033000
00C000
033000
033000
ENDCHAR
STARTCHAR 012A
ENCODING 298
SWIDTH 480 0
DWIDTH 16 0
BBX 12 32 2 0
BITMAP
CDB0
CDB0
3660
3660
CDB0
0000
0000
CDB0
CDB0
3660
CDB0
CDB0
0600
0600
0D80
0600
0600
0D80
0D80
0600
0D80
0D80
0600
0600
0D80
0600
0600
CDB0
CDB0
3660
CDB0
CDB0
ENDCHAR
STARTCHAR 012B
ENCODING 299
SWIDTH 300 0
DWIDTH 10 0
BBX 12 32 -1 0
BITMAP
D9B0
D9B0
36C0
36C0
D9B0
0000
0000
1980
1980
0600
1980
1980
0600
0600
1980
0600
0600
1980
1980
0600
1980
1980
0600
0600
1980
0600
0600
1980
1980
0600
1980
1980
ENDCHAR
STARTCHAR 012E
ENCODING 302
SWIDTH 480 0
DWIDTH 16 0
BBX 16 32 2 -7
BITMAP
CDB0
CDB0
3660
CDB0
CDB0
0600
0600
0D80
0600
0600
0D80
0D80
0600
0D80
0D80
0600
0600
0D80
0600
0600
CDB0
CDB0
3660
CDB0
CDB0
0060
0060
01B3
006C
006C
0033
0033
ENDCHAR
STARTCHAR 012F
ENCODING 303
SWIDTH 300 0
DWIDTH 10 0
BBX 9 32 2 -7
BITMAP
CC00
CC00
3000
CC00
CC00
3000
3000
CC00
3000
3000
CC00
CC00
3000
CC00
CC00
3000
3000
CC00
3000
3000
CC00
CC00
3000
CC00
CC00
3000
3000
CD80
3600
3600
0D80
0D80
ENDCHAR
STARTCHAR 0130
ENCODING 304
SWIDTH 480 0
DWIDTH 16 0
BBX 12 32 2 0
BITMAP
0D80
0D80
0600
0600
0D80
0000
0000
CDB0
CDB0
3660
CDB0
CDB0
0600
0600
0D80
0600
0600
0D80
0D80
0600
0D80
0D80
0600
0600
0D80
0600
0600
CDB0
CDB0
3660
CDB0
CDB0
ENDCHAR
STARTCHAR 0131
ENCODING 305
SWIDTH 300 0
DWIDTH 10 0
BBX 6 25 2 0
BITMAP
CC
CC
30
CC
CC
30
30
CC
30
30
CC
CC
30
CC
CC
30
30
CC
30
30
CC
CC
30
CC
CC
ENDCHAR
STARTCHAR 0136
ENCODING 310
SWIDTH 690 0
DWIDTH 23 0
BBX 19 35 2 -10
BITMAP
CC0360
CC0360
300180
CC0360
CC0360
300D80
300D80
CC3300
306C00
306C00
CDB000
CDB000
366000
CDB000
CDB000
306C00
306C00
CC3300
300D80
300D80
CC0360
CC0360
300180
CC0360
CC0360
000000
000000
01B000
006000
006000
01B000
01B000
006000
018000
018000
ENDCHAR
STARTCHAR 0137
ENCODING 311
SWIDTH 690 0
DWIDTH 23 0
BBX 19 35 2 -10
BITMAP
CC0360
CC0360
300180
CC0360
CC0360
300180
300180
CC0360
300D80
300D80
CDB300
CDB300
366C00
CDB300
CDB300
300D80
300D80
CC0360
300180
300180
CC0360
CC0360
300180
CC0360
CC0360
000000
000000
01B000
006000
006000
01B000
01B000
006000
018000
018000
ENDCHAR
STARTCHAR 0139
ENCODING 313
SWIDTH 690 0
DWIDTH 23 0
BBX 20 35 1 0
BITMAP
033000
033000
06C000
1B0000
1B0000
660000
660000
D80000
000000
000000
660000
660000
180000
660000
660000
180000
180000
660000
180000
180000
660000
660000
180000
660000
660000
180000
180000
660000
180000
180000
66D9B0
66D9B0
1B36C0
06D9B0
06D9B0
ENDCHAR
STARTCHAR 013A
ENCODING 314
SWIDTH 600 0
DWIDTH 20 0
BBX 17 35 1 0
BITMAP
033000
033000
06C000
1B0000
1B0000
660000
660000
D80000
000000
000000
660000
660000
180000
660000
660000
180000
180000
660000
180000
180000
660000
660000
180000
660000
660000
180000
180000
660000
180000
180000
66D980
66D980
1B3600
06D980
06D980
ENDCHAR
STARTCHAR 013B
ENCODING 315
SWIDTH 690 0
DWIDTH 23 0
BBX 19 35 2 -10
BITMAP
CC0000
CC0000
300000
CC0000
CC0000
300000
300000
CC0000
300000
300000
CC0000
CC0000
300000
CC0000
CC0000
300000
300000
CC0000
300000
300000
CDB360
CDB360
366D80
0DB360
0DB360
000000
000000
01B000
006000
006000
01B000
01B000
006000
018000
018000
ENDCHAR
STARTCHAR 013C
ENCODING 316
SWIDTH 600 0
DWIDTH 20 0
BBX 16 35 2 -10
BITMAP
CC00
CC00
3000
CC00
CC00
3000
3000
CC00
3000
3000
CC00
CC00
3000
CC00
CC00
3000
3000
CC00
3000
3000
CDB3
CDB3
366C
0DB3
0DB3
0000
0000
0660
0180
0180
0660
0660
0180
0600
0600
ENDCHAR
STARTCHAR 013D
ENCODING 317
SWIDTH 690 0
DWIDTH 23 0
BBX 19 25 2 0
BITMAP
CC0360
CC0360
300180
CC0360
CC0360
300180
300180
CC0300
300000
300000
CC0000
CC0000
300000
CC0000
CC0000
300000
300000
CC0000
300000
300000
CDB360
CDB360
366D80
0DB360
0DB360
ENDCHAR
STARTCHAR 013E
ENCODING 318
SWIDTH 600 0
DWIDTH 20 0
BBX 16 25 2 0
BITMAP
CC33
CC33
300C
CC33
CC33
300C
300C
CC30
3000
3000
CC00
CC00
3000
CC00
CC00
3000
3000
CC00
3000
3000
CDB3
CDB3
366C
0DB3
0DB3
ENDCHAR
STARTCHAR 0141
ENCODING 321
SWIDTH 750 0
DWIDTH 25 0
BBX 22 25 1 0
BITMAP
1B0000
1B0000
060000
1B0000
1B0000
060000
060000
1B3000
06C000
06C000
DB3000
DB3000
660000
DB0000
DB0000
060000
060000
1B0000
060000
060000
1B36CC
1B36CC
06D9B0
0336CC
0336CC
ENDCHAR
STARTCHAR 0142
ENCODING 322
SWIDTH 630 0
DWIDTH 21 0
BBX 18 25 1 0
BITMAP
1B0000
1B0000
060000
1B0000
1B0000
060000
060000
1B3000
06C000
06C000
DB3000
DB3000
660000
DB0000
DB0000
060000
060000
1B0000
060000
060000
1B36C0
1B36C0
06D980
0336C0
0336C0
ENDCHAR
STARTCHAR 0143
ENCODING 323
SWIDTH 780 0
DWIDTH 26 0
BBX 22 35 2 0
BITMAP
000360
000360
000D80
003300
003300
006C00
006C00
01B000
000000
000000
CC006C
CC006C
360018
CD806C
CD806C
366018
366018
CDB06C
306C18
306C18
CC336C
CC336C
300D98
CC036C
CC036C
300198
300198
CC006C
300018
300018
CC006C
CC006C
300018
CC006C
CC006C
ENDCHAR
STARTCHAR 0144
ENCODING 324
SWIDTH 690 0
DWIDTH 23 0
BBX 19 35 2 0
BITMAP
000D80
000D80
003300
006C00
006C00
01B000
01B000
066000
000000
000000
CC0360
CC0360
360180
CD8360
CD8360
366180
366180
CDB360
306D80
306D80
CC3360
CC3360
300D80
CC0360
CC0360
300180
300180
CC0360
300180
300180
CC0360
CC0360
300180
CC0360
CC0360
ENDCHAR
STARTCHAR 0145
ENCODING 325
SWIDTH 780 0
DWIDTH 26 0
BBX 22 35 2 -10
BITMAP
CC006C
CC006C
360018
CD806C
CD806C
366018
366018
CDB06C
306C18
306C18
CC336C
CC336C
300D98
CC036C
CC036C
300198
300198
CC006C
300018
300018
CC006C
CC006C
300018
CC006C
CC006C
000000
000000
006C00
003000
003000
006C00
006C00
003000
006000
006000
ENDCHAR
STARTCHAR 0146
ENCODING 326
SWIDTH 690 0
DWIDTH 23 0
BBX 19 35 2 -10
BITMAP
CC0360
CC0360
360180
CD8360
CD8360
366180
366180
CDB360
306D80
306D80
CC3360
CC3360
300D80
CC0360
CC0360
300180
300180
CC0360
300180
300180
CC0360
CC0360
300180
CC0360
CC0360
000000
000000
01B000
006000
006000
01B000
01B000
006000
018000
018000
ENDCHAR
STARTCHAR 0147
ENCODING 327
SWIDTH 780 0
DWIDTH 26 0
BBX 22 35 2 0
BITMAP
066D80
066D80
018300
066D80
066D80
01B300
01B300
006C00
000000
000000
CC006C
CC006C
360018
CD806C
CD806C
366018
366018
CDB06C
306C18
306C18
CC336C
CC336C
300D98
CC036C
CC036C
300198
300198
CC006C
300018
300018
CC006C
CC006C
300018
CC006C
CC006C
ENDCHAR
STARTCHAR 0148
ENCODING 328
SWIDTH 690 0
DWIDTH 23 0
BBX 19 35 2 0
BITMAP
0DB300
0DB300
060C00
0DB300
0DB300
066C00
066C00
01B000
000000
000000
CC0360
CC0360
360180
CD8360
CD8360
366180
366180
CDB360
306D80
306D80
CC3360
CC3360
300D80
CC0360
CC0360
300180
300180
CC0360
300180
300180
CC0360
CC0360
300180
CC0360
CC0360
ENDCHAR
STARTCHAR 014A
ENCODING 330
SWIDTH 780 0
DWIDTH 26 0
BBX 22 32 2 -7
BITMAP
CC006C
CC006C
360018
CD806C
CD806C
366018
366018
CDB06C
306C18
306C18
CC336C
CC336C
300D98
CC036C
CC036C
300198
300198
CC006C
300018
300018
CC006C
CC006C
300018
CC006C
CC006C
000018
000018
00036C
000198
000198
000360
000360
ENDCHAR
STARTCHAR 014B
ENCODING 331
SWIDTH 690 0
DWIDTH 23 0
BBX 19 32 2 -7
BITMAP
CC0360
CC0360
360180
CD8360
CD8360
366180
366180
CDB360
306D80
306D80
CC3360
CC3360
300D80
CC0360
CC0360
300180
300180
CC0360
300180
300180
CC0360
CC0360
300180
CC0360
CC0360
000180
000180
003360
000D80
000D80
003300
003300
ENDCHAR
STARTCHAR 014C
ENCODING 332
SWIDTH 780 0
DWIDTH 26 0
BBX 22 32 2 0
BITMAP
066D80
066D80
01B300
01B300
066D80
000000
000000
01B300
01B300
066D80
0DB360
0DB360
360198
360198
CC006C
300018
300018
CC006C
CC006C
300018
CC006C
CC006C
300018
300018
CC006C
360198
360198
0DB360
0DB360
066D80
01B300
01B300
ENDCHAR
STARTCHAR 014D
ENCODING 333
SWIDTH 690 0
DWIDTH 23 0
BBX 19 32 2 0
BITMAP
0DB300
0DB300
066C00
066C00
0DB300
000000
000000
0DB300
0DB300
366D80
CDB360
CDB360
300180
300180
CC0360
300180
300180
CC0360
CC0360
300180
CC0360
CC0360
300180
300180
CC0360
300180
300180
CDB360
CDB360
366D80
0DB300
0DB300
ENDCHAR
STARTCHAR 0150
ENCODING 336
SWIDTH 780 0
DWIDTH 26 0
BBX 24 35 2 0
BITMAP
006C1B
006C1B
01B06C
066198
066198
0D8360
0D8360
360D80
000000
000000
01B300
01B300
066D80
0DB360
0DB360
360198
360198
CC006C
300018
300018
CC006C
CC006C
300018
CC006C
CC006C
300018
300018
CC006C
360198
360198
0DB360
0DB360
066D80
01B300
01B300
ENDCHAR
STARTCHAR 0151
ENCODING 337
SWIDTH 690 0
DWIDTH 23 0
BBX 22 35 2 0
BITMAP
01B06C
01B06C
066198
0D8360
0D8360
360D80
360D80
CC3300
000000
000000
0DB300
0DB300
366D80
CDB360
CDB360
300180
300180
CC0360
300180
300180
CC0360
CC0360
300180
CC0360
CC0360
300180
300180
CC0360
300180
300180
CDB360
CDB360
366D80
0DB300
0DB300
ENDCHAR
STARTCHAR 0152
ENCODING 338
SWIDTH 1200 0
DWIDTH 40 0
BBX 36 25 2 0
BITMAP
01B300DB30
01B300DB30
066D8366C0
0DB36CDB30
0DB36CDB30
36019B0000
36019B0000
CC006C0000
3000180000
3000180000
CC006CDB00
CC006CDB00
30001B6600
CC006CDB00
CC006CDB00
3000180000
3000180000
CC006C0000
36019B0000
36019B0000
0DB36CDB30
0DB36CDB30
066D8366C0
01B300DB30
01B300DB30
ENDCHAR
STARTCHAR 0153
ENCODING 339
SWIDTH 1080 0
DWIDTH 36 0
BBX 32 25 2 0
BITMAP
0DB36CDB
0DB36CDB
366D9B66
CDB36CDB
CDB36CDB
30018000
30018000
CC036000
30018000
30018000
CC036CD8
CC036CD8
30019B60
CC036CD8
CC036CD8
30018000
30018000
CC036000
30018000
30018000
CDB36CDB
CDB36CDB
366D9B66
0DB36CDB
0DB36CDB
ENDCHAR
STARTCHAR 0154
ENCODING 340
SWIDTH 690 0
DWIDTH 23 0
BBX 19 35 2 0
BITMAP
000D80
000D80
003300
006C00
006C00
01B000
01B000
066000
000000
000000
CDB000
CDB000
366C00
CDB300
CDB300
300D80
300D80
CC0360
300180
300180
CC0360
CC0360
300180
CC0360
CC0360
300D80
300D80
CDB300
366C00
366C00
CDB300
CDB300
300D80
CC0360
CC0360
ENDCHAR
STARTCHAR 0155
ENCODING 341
SWIDTH 690 0
DWIDTH 23 0
BBX 19 35 2 0
BITMAP
000D80
000D80
003300
006C00
006C00
01B000
01B000
066000
000000
000000
CDB300
CDB300
366D80
CDB360
CDB360
300180
300180
CC0360
300180
300180
CC0360
CC0360
300180
CDB360
CDB360
366D80
366D80
CDB300
300D80
300D80
CC0360
CC0360
300180
CC0360
CC0360
ENDCHAR
STARTCHAR 0156
ENCODING 342
SWIDTH 690 0
DWIDTH 23 0
BBX 19 35 2 -10
BITMAP
CDB000
CDB000
366C00
CDB300
CDB300
300D80
300D80
CC0360
300180
300180
CC0360
CC0360
300180
CC0360
CC0360
300D80
300D80
CDB300
366C00
366C00
CDB300
CDB300
300D80
CC0360
CC0360
000000
000000
01B000
006000
006000
01B000
01B000
006000
018000
018000
ENDCHAR
STARTCHAR 0157
ENCODING 343
SWIDTH 690 0
DWIDTH 23 0
BBX 19 35 2 -10
BITMAP
CDB300
CDB300
366D80
CDB360
CDB360
300180
300180
CC0360
300180
300180
CC0360
CC0360
300180
CDB360
CDB360
366D80
366D80
CDB300
300D80
300D80
CC0360
CC0360
300180
CC0360
CC0360
000000
000000
01B000
006000
006000
01B000
01B000
006000
018000
018000
ENDCHAR
STARTCHAR 0158
ENCODING 344
SWIDTH 690 0
DWIDTH 23 0
BBX 19 35 2 0
BITMAP
0DB300
0DB300
060C00
0DB300
0DB300
066C00
066C00
01B000
000000
000000
CDB000
CDB000
366C00
CDB300
CDB300
300D80
300D80
CC0360
300180
300180
CC0360
CC0360
300180
CC0360
CC0360
300D80
300D80
CDB300
366C00
366C00
CDB300
CDB300
300D80
CC0360
CC0360
ENDCHAR
STARTCHAR 0159
ENCODING 345
SWIDTH 690 0
DWIDTH 23 0
BBX 19 35 2 0
BITMAP
0DB300
0DB300
060C00
0DB300
0DB300
066C00
066C00
01B000
000000
000000
CDB300
CDB300
366D80
CDB360
CDB360
300180
300180
CC0360
300180
300180
CC0360
CC0360
300180
CDB360
CDB360
366D80
366D80
CDB300
300D80
300D80
CC0360
CC0360
300180
CC0360
CC0360
ENDCHAR
STARTCHAR 015A
ENCODING 346
SWIDTH 690 0
DWIDTH 23 0
BBX 19 35 2 0
BITMAP
000D80
000D80
003300
006C00
006C00
01B000
01B000
066000
000000
000000
0DB300
0DB300
366D80
CDB360
CDB360
300180
300180
CC0360
300000
300000
CDB300
CDB300
366D80
0DB360
0DB360
000180
000180
CC0360
300180
300180
CDB360
CDB360
366D80
0DB300
0DB300
ENDCHAR
STARTCHAR 015B
ENCODING 347
SWIDTH 690 0
DWIDTH 23 0
BBX 19 35 2 0
BITMAP
000D80
000D80
003300
006C00
006C00
01B000
01B000
066000
000000
000000
0DB300
0DB300
366D80
CDB360
CDB360
300180
300180
CC0360
300000
300000
CDB300
CDB300
366D80
0DB360
0DB360
000180
000180
CC0360
300180
300180
CDB360
CDB360
366D80
0DB300
0DB300
ENDCHAR
STARTCHAR 015E
ENCODING 350
SWIDTH 690 0
DWIDTH 23 0
BBX 19 32 2 -7
BITMAP
0DB300
0DB300
366D80
CDB360
CDB360
300180
300180
CC0360
300000
300000
CDB300
CDB300
366D80
0DB360
0DB360
000180
000180
CC0360
300180
300180
CDB360
CDB360
366D80
0DB300
0DB300
006000
006000
0DB000
066000
066000
0D8000
0D8000
ENDCHAR
STARTCHAR 015F
ENCODING 351
SWIDTH 690 0
DWIDTH 23 0
BBX 19 32 2 -7
BITMAP
0DB300
0DB300
366D80
CDB360
CDB360
300180
300180
CC0360
300000
300000
CDB300
CDB300
366D80
0DB360
0DB360
000180
000180
CC0360
300180
300180
CDB360
CDB360
366D80
0DB300
0DB300
006000
006000
0DB000
066000
066000
0D8000
0D8000
ENDCHAR
STARTCHAR 0160
ENCODING 352
SWIDTH 690 0
DWIDTH 23 0
BBX 19 35 2 0
BITMAP
0DB300
0DB300
060C00
0DB300
0DB300
066C00
066C00
01B000
000000
000000
0DB300
0DB300
366D80
CDB360
CDB360
300180
300180
CC0360
300000
300000
CDB300
CDB300
366D80
0DB360
0DB360
000180
000180
CC0360
300180
300180
CDB360
CDB360
366D80
0DB300
0DB300
ENDCHAR
STARTCHAR 0161
ENCODING 353
SWIDTH 690 0
DWIDTH 23 0
BBX 19 35 2 0
BITMAP
0DB300
0DB300
060C00
0DB300
0DB300
066C00
066C00
01B000
000000
000000
0DB300
0DB300
366D80
CDB360
CDB360
300180
300180
CC0360
300000
300000
CDB300
CDB300
366D80
0DB360
0DB360
000180
000180
CC0360
300180
300180
CDB360
CDB360
366D80
0DB300
0DB300
ENDCHAR
STARTCHAR 0162
ENCODING 354
SWIDTH 690 0
DWIDTH 23 0
BBX 19 32 2 -7
BITMAP
CDB360
CDB360
366D80
CDB360
CDB360
006000
006000
01B000
006000
006000
01B000
01B000
006000
01B000
01B000
006000
006000
01B000
006000
006000
01B000
01B000
006000
01B000
01B000
006000
006000
0DB000
066000
066000
0D8000
0D8000
ENDCHAR
STARTCHAR 0163
ENCODING 355
SWIDTH 690 0
DWIDTH 23 0
BBX 19 32 2 -7
BITMAP
CDB360
CDB360
366D80
CDB360
CDB360
006000
006000
01B000
006000
006000
01B000
01B000
006000
01B000
01B000
006000
006000
01B000
006000
006000
01B000
01B000
006000
01B000
01B000
006000
006000
0DB000
066000
066000
0D8000
0D8000
ENDCHAR
STARTCHAR 0164
ENCODING 356
SWIDTH 690 0
DWIDTH 23 0
BBX 19 35 2 0
BITMAP
0DB300
0DB300
060C00
0DB300
0DB300
066C00
066C00
01B000
000000
000000
CDB360
CDB360
366D80
CDB360
CDB360
006000
006000
01B000
006000
006000
01B000
01B000
006000
01B000
01B000
006000
006000
01B000
006000
006000
01B000
01B000
006000
01B000
01B000
ENDCHAR
STARTCHAR 0165
ENCODING 357
SWIDTH 690 0
DWIDTH 23 0
BBX 19 35 2 0
BITMAP
0DB300
0DB300
060C00
0DB300
0DB300
066C00
066C00
01B000
000000
000000
CDB360
CDB360
366D80
CDB360
CDB360
006000
006000
01B000
006000
006000
01B000
01B000
006000
01B000
01B000
006000
006000
01B000
006000
006000
01B000
01B000
006000
01B000
01B000
ENDCHAR
STARTCHAR 0166
ENCODING 358
SWIDTH 690 0
DWIDTH 23 0
BBX 19 25 2 0
BITMAP
CDB360
CDB360
366D80
CDB360
CDB360
006000
006000
01B000
006000
006000
0DB300
0DB300
066C00
0DB300
0DB300
006000
006000
01B000
006000
006000
01B000
01B000
006000
01B000
01B000
ENDCHAR
STARTCHAR 0167
ENCODING 359
SWIDTH 690 0
DWIDTH 23 0
BBX 19 25 2 0
BITMAP
CDB360
CDB360
366D80
CDB360
CDB360
006000
006000
01B000
006000
006000
0DB300
0DB300
066C00
0DB300
0DB300
006000
006000
01B000
006000
006000
01B000
01B000
006000
01B000
01B000
ENDCHAR
STARTCHAR 0168
ENCODING 360
SWIDTH 780 0
DWIDTH 26 0
BBX 22 35 2 0
BITMAP
066198
066198
0DB060
366D98
366D98
0C3360
0C3360
360D80
000000
000000
CC006C
CC006C
300018
CC006C
CC006C
300018
300018
CC006C
300018
300018
CC006C
CC006C
300018
CC006C
CC006C
300018
300018
CC006C
360198
360198
0DB360
0DB360
066D80
01B300
01B300
ENDCHAR
STARTCHAR 0169
ENCODING 361
SWIDTH 690 0
DWIDTH 23 0
BBX 19 35 2 0
BITMAP
0D8360
0D8360
366180
CDB360
CDB360
306D80
306D80
CC3300
000000
000000
CC0360
CC0360
300180
CC0360
CC0360
300180
300180
CC0360
300180
300180
CC0360
CC0360
300180
CC0360
CC0360
300180
300180
CC0360
300180
300180
CDB360
CDB360
366D80
0DB300
0DB300
ENDCHAR
STARTCHAR 016A
ENCODING 362
SWIDTH 780 0
DWIDTH 26 0
BBX 22 32 2 0
BITMAP
066D80
066D80
01B300
01B300
066D80
000000
000000
CC006C
CC006C
300018
CC006C
CC006C
300018
300018
CC006C
300018
300018
CC006C
CC006C
300018
CC006C
CC006C
300018
300018
CC006C
360198
360198
0DB360
0DB360
066D80
01B300
01B300
ENDCHAR
STARTCHAR 016B
ENCODING 363
SWIDTH 690 0
DWIDTH 23 0
BBX 19 32 2 0
BITMAP
0DB300
0DB300
066C00
066C00
0DB300
000000
000000
CC0360
CC0360
300180
CC0360
CC0360
300180
300180
CC0360
300180
300180
CC0360
CC0360
300180
CC0360
CC0360
300180
300180
CC0360
300180
300180
CDB360
CDB360
366D80
0DB300
0DB300
ENDCHAR
STARTCHAR 016E
ENCODING 366
SWIDTH 780 0
DWIDTH 26 0
BBX 22 42 2 0
BITMAP
01B300
01B300
066D80
066D80
0DB360
060180
060180
0D8360
0D8360
060180
0DB360
0DB360
066D80
066D80
01B300
000000
000000
CC006C
CC006C
300018
CC006C
CC006C
300018
300018
CC006C
300018
300018
CC006C
CC006C
300018
CC006C
CC006C
300018
300018
CC006C
360198
360198
0DB360
0DB360
066D80
01B300
01B300
ENDCHAR
STARTCHAR 016F
ENCODING 367
SWIDTH 690 0
DWIDTH 23 0
BBX 19 42 2 0
BITMAP
066C00
066C00
0DB300
0DB300
366D80
0C0300
0C0300
360D80
360D80
0C0300
366D80
366D80
0DB300
0DB300
066C00
000000
000000
CC0360
CC0360
300180
CC0360
CC0360
300180
300180
CC0360
300180
300180
CC0360
CC0360
300180
CC0360
CC0360
300180
300180
CC0360
300180
300180
CDB360
CDB360
366D80
0DB300
0DB300
ENDCHAR
STARTCHAR 0170
ENCODING 368
SWIDTH 780 0
DWIDTH 26 0
BBX 24 35 2 0
BITMAP
006C1B
006C1B
01B06C
066198
066198
0D8360
0D8360
360D80
000000
000000
CC006C
CC006C
300018
CC006C
CC006C
300018
300018
CC006C
300018
300018
CC006C
CC006C
300018
CC006C
CC006C
300018
300018
CC006C
360198
360198
0DB360
0DB360
066D80
01B300
01B300
ENDCHAR
STARTCHAR 0171
ENCODING 369
SWIDTH 690 0
DWIDTH 23 0
BBX 22 35 2 0
BITMAP
01B06C
01B06C
066198
0D8360
0D8360
360D80
360D80
CC3300
000000
000000
CC0360
CC0360
300180
CC0360
CC0360
300180
300180
CC0360
300180
300180
CC0360
CC0360
300180
CC0360
CC0360
300180
300180
CC0360
300180
300180
CDB360
CDB360
366D80
0DB300
0DB300
ENDCHAR
STARTCHAR 0172
ENCODING 370
SWIDTH 780 0
DWIDTH 26 0
BBX 22 32 2 -7
BITMAP
CC006C
CC006C
300018
CC006C
CC006C
300018
300018
CC006C
300018
300018
CC006C
CC006C
300018
CC006C
CC006C
300018
300018
CC006C
360198
360198
0DB360
0DB360
066D80
01B300
01B300
000C00
000C00
003360
000D80
000D80
000360
000360
ENDCHAR
STARTCHAR 0173
ENCODING 371
SWIDTH 690 0
DWIDTH 23 0
BBX 19 32 2 -7
BITMAP
CC0360
CC0360
300180
CC0360
CC0360
300180
300180
CC0360
300180
300180
CC0360
CC0360
300180
CC0360
CC0360
300180
300180
CC0360
300180
300180
CDB360
CDB360
366D80
0DB300
0DB300
000C00
000C00
003360
000D80
000D80
000360
000360
ENDCHAR
STARTCHAR 0174
ENCODING 372
SWIDTH 1080 0
DWIDTH 36 0
BBX 32 35 2 0
BITMAP
00036000
00036000
000D9800
00336C00
00336C00
000C1800
000C1800
00336C00
00000000
00000000
CC03601B
CC03601B
30018006
CC03601B
CC03601B
30018006
30018006
CC03601B
30018006
30018006
CC03601B
CC03601B
30018006
CC03601B
CC03601B
30018006
30018006
CC03601B
360D9866
360D9866
0DB36CD8
0DB36CD8
066C1B60
01B00CC0
01B00CC0
ENDCHAR
STARTCHAR 0175
ENCODING 373
SWIDTH 1080 0
DWIDTH 36 0
BBX 32 35 2 0
BITMAP
00036000
00036000
000D9800
00336C00
00336C00
000C1800
000C1800
00336C00
00000000
00000000
CC03601B
CC03601B
30018006
CC03601B
CC03601B
30018006
30018006
CC03601B
30018006
30018006
CC03601B
CC03601B
30018006
CC03601B
CC03601B
30018006
30018006
CC03601B
300D9806
300D9806
CDB36CDB
CDB36CDB
366C1B66
0DB00CD8
0DB00CD8
ENDCHAR
STARTCHAR 0176
ENCODING 374
SWIDTH 690 0
DWIDTH 23 0
BBX 19 35 2 0
BITMAP
01B000
01B000
066C00
0DB300
0DB300
060C00
060C00
0DB300
000000
000000
CC0360
CC0360
300180
CC0360
CC0360
300180
300180
CC0360
300180
300180
CC0360
CC0360
360D80
0DB300
0DB300
066C00
066C00
01B000
006000
006000
01B000
01B000
006000
01B000
01B000
ENDCHAR
STARTCHAR 0177
ENCODING 375
SWIDTH 690 0
DWIDTH 23 0
BBX 19 35 2 0
BITMAP
01B000
01B000
066C00
0DB300
0DB300
060C00
060C00
0DB300
000000
000000
CC0360
CC0360
300180
CC0360
CC0360
300180
300180
CC0360
300180
300180
CC0360
CC0360
300180
CDB360
CDB360
366D80
366D80
0DB300
006000
006000
01B000
01B000
006000
01B000
01B000
ENDCHAR
STARTCHAR 0178
ENCODING 376
SWIDTH 690 0
DWIDTH 23 0
BBX 19 32 2 0
BITMAP
0DB300
0DB300
060C00
060C00
0DB300
000000
000000
CC0360
CC0360
300180
CC0360
CC0360
300180
300180
CC0360
300180
300180
CC0360
CC0360
360D80
0DB300
0DB300
066C00
066C00
01B000
006000
006000
01B000
01B000
006000
01B000
01B000
ENDCHAR
STARTCHAR 0179
ENCODING 377
SWIDTH 690 0
DWIDTH 23 0
BBX 19 35 2 0
BITMAP
000D80
000D80
003300
006C00
006C00
01B000
01B000
066000
000000
000000
CDB360
CDB360
366D80
CDB360
CDB360
000D80
000D80
003300
006C00
006C00
01B000
01B000
066000
0D8000
0D8000
360000
360000
CC0000
300000
300000
CDB360
CDB360
366D80
CDB360
CDB360
ENDCHAR
STARTCHAR 017A
ENCODING 378
SWIDTH 690 0
DWIDTH 23 0
BBX 19 35 2 0
BITMAP
000D80
000D80
003300
006C00
006C00
01B000
01B000
066000
000000
000000
CDB360
CDB360
366D80
CDB360
CDB360
000180
000180
000360
000180
000180
0DB360
0DB360
366D80
CDB300
CDB300
300000
300000
CC0000
300000
300000
CDB360
CDB360
366D80
CDB360
CDB360
ENDCHAR
STARTCHAR 017B
ENCODING 379
SWIDTH 690 0
DWIDTH 23 0
BBX 19 32 2 0
BITMAP
01B000
01B000
006000
006000
01B000
000000
000000
CDB360
CDB360
366D80
CDB360
CDB360
000D80
000D80
003300
006C00
006C00
01B000
01B000
066000
0D8000
0D8000
360000
360000
CC0000
300000
300000
CDB360
CDB360
366D80
CDB360
CDB360
ENDCHAR
STARTCHAR 017C
ENCODING 380
SWIDTH 690 0
DWIDTH 23 0
BBX 19 32 2 0
BITMAP
01B000
01B000
006000
006000
01B000
000000
000000
CDB360
CDB360
366D80
CDB360
CDB360
000180
000180
000360
000180
000180
0DB360
0DB360
366D80
CDB300
CDB300
300000
300000
CC0000
300000
300000
CDB360
CDB360
366D80
CDB360
CDB360
ENDCHAR
STARTCHAR 017D
ENCODING 381
SWIDTH 690 0
DWIDTH 23 0
BBX 19 35 2 0
BITMAP
0DB300
0DB300
060C00
0DB300
0DB300
066C00
066C00
01B000
000000
000000
CDB360
CDB360
366D80
CDB360
CDB360
000D80
000D80
003300
006C00
006C00
01B000
01B000
066000
0D8000
0D8000
360000
360000
CC0000
300000
300000
CDB360
CDB360
366D80
CDB360
CDB360
ENDCHAR
STARTCHAR 017E
ENCODING 382
SWIDTH 690 0
DWIDTH 23 0
BBX 19 35 2 0
BITMAP
0DB300
0DB300
060C00
0DB300
0DB300
066C00
066C00
01B000
000000
000000
CDB360
CDB360
366D80
CDB360
CDB360
000180
000180
000360
000180
000180
0DB360
0DB360
366D80
CDB300
CDB300
300000
300000
CC0000
300000
300000
CDB360
CDB360
366D80
CDB360
CDB360
ENDCHAR
STARTCHAR 0192
ENCODING 402
SWIDTH 690 0
DWIDTH 23 0
BBX 19 32 2 -7
BITMAP
003360
003360
006D80
01B360
01B360
006000
006000
01B000
006000
006000
0DB300
0DB300
066C00
0DB300
0DB300
006000
006000
01B000
006000
006000
01B000
01B000
006000
01B000
01B000
006000
006000
CDB000
366000
366000
CD8000
CD8000
ENDCHAR
STARTCHAR 01A0
ENCODING 416
SWIDTH 930 0
DWIDTH 31 0
BBX 29 28 2 0
BITMAP
000000D8
00000060
00000060
0DB36CD8
0DB36CD8
366D9B60
CDB36CC0
CDB36CC0
30001800
30001800
CC006C00
30001800
30001800
CC006C00
CC006C00
30001800
CC006C00
CC006C00
30001800
30001800
CC006C00
30001800
30001800
CDB36C00
CDB36C00
366D9800
0DB36000
0DB36000
ENDCHAR
STARTCHAR 01A1
ENCODING 417
SWIDTH 840 0
DWIDTH 28 0
BBX 26 28 2 0
BITMAP
00000CC0
00000300
00000300
0DB36CC0
0DB36CC0
366D9B00
CDB36C00
CDB36C00
30018000
30018000
CC036000
30018000
30018000
CC036000
CC036000
30018000
CC036000
CC036000
30018000
30018000
CC036000
30018000
30018000
CDB36000
CDB36000
366D8000
0DB30000
0DB30000
ENDCHAR
STARTCHAR 01AF
ENCODING 431
SWIDTH 930 0
DWIDTH 31 0
BBX 29 28 2 0
BITMAP
000000D8
00000060
00000060
CC006CD8
CC006CD8
30001B60
CC006CC0
CC006CC0
30001800
30001800
CC006C00
30001800
30001800
CC006C00
CC006C00
30001800
CC006C00
CC006C00
30001800
30001800
CC006C00
36019800
36019800
0DB36000
0DB36000
066D8000
01B30000
01B30000
ENDCHAR
STARTCHAR 01B0
ENCODING 432
SWIDTH 840 0
DWIDTH 28 0
BBX 26 28 2 0
BITMAP
00000CC0
00000300
00000300
CC036CC0
CC036CC0
30019B00
CC036C00
CC036C00
30018000
30018000
CC036000
30018000
30018000
CC036000
CC036000
30018000
CC036000
CC036000
30018000
30018000
CC036000
30018000
30018000
CDB36000
CDB36000
366D8000
0DB30000
0DB30000
ENDCHAR
STARTCHAR 01CD
ENCODING 461
SWIDTH 690 0
DWIDTH 23 0
BBX 19 35 2 0
BITMAP
0DB300
0DB300
060C00
0DB300
0DB300
066C00
066C00
01B000
000000
000000
01B000
01B000
066C00
0DB300
0DB300
360D80
360D80
CC0360
300180
300180
CC0360
CC0360
300180
CDB360
CDB360
366D80
366D80
CDB360
300180
300180
CC0360
CC0360
300180
CC0360
CC0360
ENDCHAR
STARTCHAR 01CE
ENCODING 462
SWIDTH 690 0
DWIDTH 23 0
BBX 19 35 2 0
BITMAP
0DB300
0DB300
060C00
0DB300
0DB300
066C00
066C00
01B000
000000
000000
0DB300
0DB300
366D80
CDB360
CDB360
300180
300180
CC0360
300180
300180
CC0360
CC0360
300180
CDB360
CDB360
366D80
366D80
CDB360
300180
300180
CC0360
CC0360
300180
CC0360
CC0360
ENDCHAR
STARTCHAR 01CF
ENCODING 463
SWIDTH 480 0
DWIDTH 16 0
BBX 12 35 2 0
BITMAP
CDB0
CDB0
3060
CDB0
CDB0
3660
3660
0D80
0000
0000
CDB0
CDB0
3660
CDB0
CDB0
0600
0600
0D80
0600
0600
0D80
0D80
0600
0D80
0D80
0600
0600
0D80
0600
0600
CDB0
CDB0
3660
CDB0
CDB0
ENDCHAR
STARTCHAR 01D0
ENCODING 464
SWIDTH 300 0
DWIDTH 10 0
BBX 12 35 -1 0
BITMAP
D9B0
D9B0
30C0
D9B0
D9B0
36C0
36C0
1980
0000
0000
1980
1980
0600
1980
1980
0600
0600
1980
0600
0600
1980
1980
0600
1980
1980
0600
0600
1980
0600
0600
1980
1980
0600
1980
1980
ENDCHAR
STARTCHAR 01D1
ENCODING 465
SWIDTH 780 0
DWIDTH 26 0
BBX 22 35 2 0
BITMAP
066D80
066D80
018300
066D80
066D80
01B300
01B300
006C00
000000
000000
01B300
01B300
066D80
0DB360
0DB360
360198
360198
CC006C
300018
300018
CC006C
CC006C
300018
CC006C
CC006C
300018
300018
CC006C
360198
360198
0DB360
0DB360
066D80
01B300
01B300
ENDCHAR
STARTCHAR 01D2
ENCODING 466
SWIDTH 690 0
DWIDTH 23 0
BBX 19 35 2 0
BITMAP
0DB300
0DB300
060C00
0DB300
0DB300
066C00
066C00
01B000
000000
000000
0DB300
0DB300
366D80
CDB360
CDB360
300180
300180
CC0360
300180
300180
CC0360
CC0360
300180
CC0360
CC0360
300180
300180
CC0360
300180
300180
CDB360
CDB360
366D80
0DB300
0DB300
ENDCHAR
STARTCHAR 01D3
ENCODING 467
SWIDTH 780 0
DWIDTH 26 0
BBX 22 35 2 0
BITMAP
066D80
066D80
018300
066D80
066D80
01B300
01B300
006C00
000000
000000
CC006C
CC006C
300018
CC006C
CC006C
300018
300018
CC006C
300018
300018
CC006C
CC006C
300018
CC006C
CC006C
300018
300018
CC006C
360198
360198
0DB360
0DB360
066D80
01B300
01B300
ENDCHAR
STARTCHAR 01D4
ENCODING 468
SWIDTH 690 0
DWIDTH 23 0
BBX 19 35 2 0
BITMAP
0DB300
0DB300
060C00
0DB300
0DB300
066C00
066C00
01B000
000000
000000
CC0360
CC0360
300180
CC0360
CC0360
300180
300180
CC0360
300180
300180
CC0360
CC0360
300180
CC0360
CC0360
300180
300180
CC0360
300180
300180
CDB360
CDB360
366D80
0DB300
0DB300
ENDCHAR
STARTCHAR 01D5
ENCODING 469
SWIDTH 780 0
DWIDTH 26 0
BBX 22 38 2 0
BITMAP
066D80
01B300
01B300
066D80
066D80
000000
066D80
066D80
018300
018300
066D80
000000
000000
CC006C
CC006C
300018
CC006C
CC006C
300018
300018
CC006C
300018
300018
CC006C
CC006C
300018
CC006C
CC006C
300018
300018
CC006C
360198
360198
0DB360
0DB360
066D80
01B300
01B300
ENDCHAR
STARTCHAR 01D6
ENCODING 470
SWIDTH 690 0
DWIDTH 23 0
BBX 19 38 2 0
BITMAP
0DB300
066C00
066C00
0DB300
0DB300
000000
0DB300
0DB300
060C00
060C00
0DB300
000000
000000
CC0360
CC0360
300180
CC0360
CC0360
300180
300180
CC0360
300180
300180
CC0360
CC0360
300180
CC0360
CC0360
300180
300180
CC0360
300180
300180
CDB360
CDB360
366D80
0DB300
0DB300
ENDCHAR
STARTCHAR 01D7
ENCODING 471
SWIDTH 780 0
DWIDTH 26 0
BBX 22 42 2 0
BITMAP
000360
000360
000D80
000D80
003300
006C00
006C00
01B000
01B000
000000
066D80
066D80
018300
018300
066D80
000000
000000
CC006C
CC006C
300018
CC006C
CC006C
300018
300018
CC006C
300018
300018
CC006C
CC006C
300018
CC006C
CC006C
300018
300018
CC006C
360198
360198
0DB360
0DB360
066D80
01B300
01B300
ENDCHAR
STARTCHAR 01D8
ENCODING 472
SWIDTH 690 0
DWIDTH 23 0
BBX 19 42 2 0
BITMAP
000D80
000D80
003300
003300
006C00
01B000
01B000
066000
066000
000000
0DB300
0DB300
060C00
060C00
0DB300
000000
000000
CC0360
CC0360
300180
CC0360
CC0360
300180
300180
CC0360
300180
300180
CC0360
CC0360
300180
CC0360
CC0360
300180
300180
CC0360
300180
300180
CDB360
CDB360
366D80
0DB300
0DB300
ENDCHAR
STARTCHAR 01D9
ENCODING 473
SWIDTH 780 0
DWIDTH 26 0
BBX 22 42 2 0
BITMAP
066D80
066D80
018300
018300
066D80
01B300
01B300
006C00
006C00
000000
066D80
066D80
018300
018300
066D80
000000
000000
CC006C
CC006C
300018
CC006C
CC006C
300018
300018
CC006C
300018
300018
CC006C
CC006C
300018
CC006C
CC006C
300018
300018
CC006C
360198
360198
0DB360
0DB360
066D80
01B300
01B300
ENDCHAR
STARTCHAR 01DA
ENCODING 474
SWIDTH 690 0
DWIDTH 23 0
BBX 19 42 2 0
BITMAP
0DB300
0DB300
060C00
060C00
0DB300
066C00
066C00
01B000
01B000
000000
0DB300
0DB300
060C00
060C00
0DB300
000000
000000
CC0360
CC0360
300180
CC0360
CC0360
300180
300180
CC0360
300180
300180
CC0360
CC0360
300180
CC0360
CC0360
300180
300180
CC0360
300180
300180
CDB360
CDB360
366D80
0DB300
0DB300
ENDCHAR
STARTCHAR 01DB
ENCODING 475
SWIDTH 780 0
DWIDTH 26 0
BBX 22 42 2 0
BITMAP
360000
360000
0D8000
0D8000
066000
01B000
01B000
006C00
006C00
000000
066D80
066D80
018300
018300
066D80
000000
000000
CC006C
CC006C
300018
CC006C
CC006C
300018
300018
CC006C
300018
300018
CC006C
CC006C
300018
CC006C
CC006C
300018
300018
CC006C
360198
360198
0DB360
0DB360
066D80
01B300
01B300
ENDCHAR
STARTCHAR 01DC
ENCODING 476
SWIDTH 690 0
DWIDTH 23 0
BBX 19 42 2 0
BITMAP
CC0000
CC0000
360000
360000
0D8000
066000
066000
01B000
01B000
000000
0DB300
0DB300
060C00
060C00
0DB300
000000
000000
CC0360
CC0360
300180
CC0360
CC0360
300180
300180
CC0360
300180
300180
CC0360
CC0360
300180
CC0360
CC0360
300180
300180
CC0360
300180
300180
CDB360
CDB360
366D80
0DB300
0DB300
ENDCHAR
STARTCHAR 0218
ENCODING 536
SWIDTH 690 0
DWIDTH 23 0
BBX 19 35 2 -10
BITMAP
0DB300
0DB300
366D80
CDB360
CDB360
300180
300180
CC0360
300000
300000
CDB300
CDB300
366D80
0DB360
0DB360
000180
000180
CC0360
300180
300180
CDB360
CDB360
366D80
0DB300
0DB300
000000
000000
01B000
006000
006000
01B000
01B000
006000
018000
018000
ENDCHAR
STARTCHAR 0219
ENCODING 537
SWIDTH 690 0
DWIDTH 23 0
BBX 19 35 2 -10
BITMAP
0DB300
0DB300
366D80
CDB360
CDB360
300180
300180
CC0360
300000
300000
CDB300
CDB300
366D80
0DB360
0DB360
000180
000180
CC0360
300180
300180
CDB360
CDB360
366D80
0DB300
0DB300
000000
000000
01B000
006000
006000
01B000
01B000
006000
018000
018000
ENDCHAR
STARTCHAR 021A
ENCODING 538
SWIDTH 690 0
DWIDTH 23 0
BBX 19 35 2 -10
BITMAP
CDB360
CDB360
366D80
CDB360
CDB360
006000
006000
01B000
006000
006000
01B000
01B000
006000
01B000
01B000
006000
006000
01B000
006000
006000
01B000
01B000
006000
01B000
01B000
000000
000000
01B000
006000
006000
01B000
01B000
006000
018000
018000
ENDCHAR
STARTCHAR 021B
ENCODING 539
SWIDTH 690 0
DWIDTH 23 0
BBX 19 35 2 -10
BITMAP
CDB360
CDB360
366D80
CDB360
CDB360
006000
006000
01B000
006000
006000
01B000
01B000
006000
01B000
01B000
006000
006000
01B000
006000
006000
01B000
01B000
006000
01B000
01B000
000000
000000
01B000
006000
006000
01B000
01B000
006000
018000
018000
ENDCHAR
STARTCHAR 02BC
ENCODING 700
SWIDTH 180 0
DWIDTH 6 0
BBX 5 8 1 17
BITMAP
D8
D8
60
D8
D8
60
60
C0
ENDCHAR
STARTCHAR 02C6
ENCODING 710
SWIDTH 390 0
DWIDTH 13 0
BBX 12 8 1 27
BITMAP
1B00
1B00
66C0
DB30
DB30
60C0
60C0
DB30
ENDCHAR
STARTCHAR 02C7
ENCODING 711
SWIDTH 390 0
DWIDTH 13 0
BBX 12 8 1 27
BITMAP
DB30
DB30
60C0
DB30
DB30
66C0
66C0
1B00
ENDCHAR
STARTCHAR 02D8
ENCODING 728
SWIDTH 480 0
DWIDTH 16 0
BBX 15 8 1 27
BITMAP
D836
D836
6018
DB36
DB36
66D8
66D8
1B30
ENDCHAR
STARTCHAR 02D9
ENCODING 729
SWIDTH 180 0
DWIDTH 6 0
BBX 5 5 1 27
BITMAP
D8
D8
60
60
D8
ENDCHAR
STARTCHAR 02DA
ENCODING 730
SWIDTH 480 0
DWIDTH 16 0
BBX 15 15 1 27
BITMAP
1B30
1B30
66D8
66D8
DB36
6018
6018
D836
D836
6018
DB36
DB36
66D8
66D8
1B30
ENDCHAR
STARTCHAR 02DB
ENCODING 731
SWIDTH 240 0
DWIDTH 8 0
BBX 9 7 2 -7
BITMAP
3000
3000
CD80
3600
3600
0D80
0D80
ENDCHAR
STARTCHAR 02DC
ENCODING 732
SWIDTH 600 0
DWIDTH 20 0
BBX 18 8 1 27
BITMAP
1B06C0
1B06C0
66C180
DB36C0
DB36C0
60D980
60D980
D83600
ENDCHAR
STARTCHAR 02DD
ENCODING 733
SWIDTH 630 0
DWIDTH 21 0
BBX 22 8 1 27
BITMAP
0330CC
0330CC
06C1B0
1B06C0
1B06C0
661980
661980
D83600
ENDCHAR
STARTCHAR 0300
ENCODING 768
SWIDTH 0 0
DWIDTH 0 0
BBX 12 8 -14 27
BITMAP
D800
D800
6600
1B00
1B00
06C0
06C0
0330
ENDCHAR
STARTCHAR 0301
ENCODING 769
SWIDTH 0 0
DWIDTH 0 0
BBX 12 8 -11 27
BITMAP
01B0
01B0
06C0
1980
1980
3600
3600
D800
ENDCHAR
STARTCHAR 0302
ENCODING 770
SWIDTH 0 0
DWIDTH 0 0
BBX 12 8 -13 27
BITMAP
0D80
0D80
3660
CDB0
CDB0
3060
3060
CDB0
ENDCHAR
STARTCHAR 0303
ENCODING 771
SWIDTH 0 0
DWIDTH 0 0
BBX 18 8 -19 27
BITMAP
1B06C0
1B06C0
66C180
DB36C0
DB36C0
60D980
60D980
D83600
ENDCHAR
STARTCHAR 0304
ENCODING 772
SWIDTH 0 0
DWIDTH 0 0
BBX 12 5 -13 27
BITMAP
CDB0
CDB0
3660
3660
CDB0
ENDCHAR
STARTCHAR 0306
ENCODING 774
SWIDTH 0 0
DWIDTH 0 0
BBX 15 8 -16 27
BITMAP
D836
D836
300C
D9B6
D9B6
36CC
36CC
19B0
ENDCHAR
STARTCHAR 0307
ENCODING 775
SWIDTH 0 0
DWIDTH 0 0
BBX 5 5 -6 27
BITMAP
D8
D8
30
30
D8
ENDCHAR
STARTCHAR 0308
ENCODING 776
SWIDTH 0 0
DWIDTH 0 0
BBX 12 5 -13 27
BITMAP
CDB0
CDB0
3060
3060
CDB0
ENDCHAR
STARTCHAR 0309
ENCODING 777
SWIDTH 0 0
DWIDTH 0 0
BBX 12 11 -13 27
BITMAP
CD80
3660
3660
CDB0
CDB0
0060
0DB0
0DB0
0660
0660
0D80
ENDCHAR
STARTCHAR 030A
ENCODING 778
SWIDTH 0 0
DWIDTH 0 0
BBX 15 15 -16 27
BITMAP
19B0
19B0
36CC
36CC
D9B6
300C
300C
D836
D836
300C
D9B6
D9B6
36CC
36CC
19B0
ENDCHAR
STARTCHAR 030B
ENCODING 779
SWIDTH 0 0
DWIDTH 0 0
BBX 22 8 -21 27
BITMAP
01B06C
01B06C
06C1B0
198660
198660
360D80
360D80
D83600
ENDCHAR
STARTCHAR 030C
ENCODING 780
SWIDTH 0 0
DWIDTH 0 0
BBX 12 8 -13 27
BITMAP
CDB0
CDB0
3060
CDB0
CDB0
3660
3660
0D80
ENDCHAR
STARTCHAR 031B
ENCODING 795
SWIDTH 0 0
DWIDTH 0 0
BBX 12 8 -13 20
BITMAP
01B0
0060
0060
CDB0
CDB0
3660
CD80
CD80
ENDCHAR
STARTCHAR 0323
ENCODING 803
SWIDTH 0 0
DWIDTH 0 0
BBX 5 5 -6 -7
BITMAP
D8
30
30
D8
D8
ENDCHAR
STARTCHAR 0326
ENCODING 806
SWIDTH 0 0
DWIDTH 0 0
BBX 5 8 -6 -10
BITMAP
D8
30
30
D8
D8
30
C0
C0
ENDCHAR
STARTCHAR 0327
ENCODING 807
SWIDTH 0 0
DWIDTH 0 0
BBX 8 7 -9 -7
BITMAP
06
06
DB
66
66
D8
D8
ENDCHAR
STARTCHAR 0328
ENCODING 808
SWIDTH 0 0
DWIDTH 0 0
BBX 9 7 -6 -7
BITMAP
3000
3000
D980
3600
3600
1980
1980
ENDCHAR
STARTCHAR 0335
ENCODING 821
SWIDTH 0 0
DWIDTH 0 0
BBX 12 5 -14 10
BITMAP
DB30
DB30
66C0
DB30
DB30
ENDCHAR
STARTCHAR 0336
ENCODING 822
SWIDTH 0 0
DWIDTH 0 0
BBX 28 5 -29 17
BITMAP
DB36CDB0
DB36CDB0
66D9B660
66D9B660
DB36CDB0
ENDCHAR
STARTCHAR 0337
ENCODING 823
SWIDTH 0 0
DWIDTH 0 0
BBX 12 5 -14 10
BITMAP
DB30
DB30
66C0
DB30
DB30
ENDCHAR
STARTCHAR 0338
ENCODING 824
SWIDTH 0 0
DWIDTH 0 0
BBX 12 25 -13 0
BITMAP
01B0
01B0
0060
01B0
01B0
0660
0660
0180
0660
0660
0D80
0D80
0600
0D80
0D80
3600
3600
0C00
3600
3600
CC00
CC00
3000
CC00
CC00
ENDCHAR
STARTCHAR 0401
ENCODING 1025
SWIDTH 690 0
DWIDTH 23 0
BBX 19 32 2 0
BITMAP
0DB300
0DB300
060C00
060C00
0DB300
000000
000000
01B360
01B360
066D80
0DB360
0DB360
360000
360000
CC0000
300000
300000
CDB300
CDB300
366C00
CDB300
CDB300
300000
300000
CC0000
360000
360000
0DB360
0DB360
066D80
01B360
01B360
ENDCHAR
STARTCHAR 0410
ENCODING 1040
SWIDTH 690 0
DWIDTH 23 0
BBX 19 25 2 0
BITMAP
01B000
01B000
066C00
0DB300
0DB300
360D80
360D80
CC0360
300180
300180
CC0360
CC0360
300180
CDB360
CDB360
366D80
366D80
CDB360
300180
300180
CC0360
CC0360
300180
CC0360
CC0360
ENDCHAR
STARTCHAR 0411
ENCODING 1041
SWIDTH 690 0
DWIDTH 23 0
BBX 19 25 2 0
BITMAP
CDB360
CDB360
366D80
CDB360
CDB360
300000
300000
CC0000
300000
300000
CDB300
CDB300
366D80
CDB360
CDB360
300180
300180
CC0360
300180
300180
CDB360
CDB360
366D80
0DB300
0DB300
ENDCHAR
STARTCHAR 0412
ENCODING 1042
SWIDTH 690 0
DWIDTH 23 0
BBX 19 25 2 0
BITMAP
CDB300
CDB300
366D80
CDB360
CDB360
300180
300180
CC0360
300D80
300D80
CDB300
CDB300
366D80
CDB360
CDB360
300180
300180
CC0360
300180
300180
CDB360
CDB360
366D80
CDB300
CDB300
ENDCHAR
STARTCHAR 0413
ENCODING 1043
SWIDTH 690 0
DWIDTH 23 0
BBX 19 25 2 0
BITMAP
0DB360
0DB360
366D80
CDB360
CDB360
300000
300000
CC0000
300000
300000
CC0000
CC0000
300000
CC0000
CC0000
300000
300000
CC0000
300000
300000
CC0000
CC0000
300000
CC0000
CC0000
ENDCHAR
STARTCHAR 0414
ENCODING 1044
SWIDTH 780 0
DWIDTH 26 0
BBX 25 28 1 -3
BITMAP
0336CC00
0336CC00
06D9B000
1B36CC00
1B36CC00
06003000
06003000
1B00CC00
06003000
06003000
1B00CC00
1B00CC00
06003000
1B00CC00
1B00CC00
06003000
06003000
1B00CC00
06003000
06003000
1B36CC00
1B36CC00
66D9B600
DB36CD80
DB36CD80
60000600
60000600
D8000D80
ENDCHAR
STARTCHAR 0415
ENCODING 1045
SWIDTH 690 0
DWIDTH 23 0
BBX 19 25 2 0
BITMAP
01B360
01B360
066D80
0DB360
0DB360
360000
360000
CC0000
300000
300000
CDB300
CDB300
366C00
CDB300
CDB300
300000
300000
CC0000
360000
360000
0DB360
0DB360
066D80
01B360
01B360
ENDCHAR
STARTCHAR 0416
ENCODING 1046
SWIDTH 1080 0
DWIDTH 36 0
BBX 32 25 2 0
BITMAP
CC03601B
CC03601B
30018006
CC03601B
CC03601B
36018066
36018066
0D8360D8
06618360
06618360
01B36CC0
01B36CC0
006D9B00
01B36CC0
01B36CC0
06618360
06618360
0D8360D8
36018066
36018066
CC03601B
CC03601B
30018006
CC03601B
CC03601B
ENDCHAR
STARTCHAR 0417
ENCODING 1047
SWIDTH 780 0
DWIDTH 26 0
BBX 22 25 2 0
BITMAP
01B300
01B300
066D80
0DB360
0DB360
360198
360198
CC006C
000198
000198
01B360
01B360
006D80
01B360
01B360
000198
000198
CC006C
360198
360198
0DB360
0DB360
066D80
01B300
01B300
ENDCHAR
STARTCHAR 0418
ENCODING 1048
SWIDTH 780 0
DWIDTH 26 0
BBX 22 25 2 0
BITMAP
CC006C
CC006C
300018
CC006C
CC006C
300018
300018
CC006C
300198
300198
CC036C
CC036C
300D98
CC336C
CC336C
306C18
306C18
CDB06C
366018
366018
CD806C
CD806C
360018
CC006C
CC006C
ENDCHAR
STARTCHAR 0419
ENCODING 1049
SWIDTH 780 0
DWIDTH 26 0
BBX 22 35 2 0
BITMAP
0D8360
0D8360
060180
0DB360
0DB360
066D80
066D80
01B300
000000
000000
CC006C
CC006C
300018
CC006C
CC006C
300018
300018
CC006C
300198
300198
CC036C
CC036C
300D98
CC336C
CC336C
306C18
306C18
CDB06C
366018
366018
CD806C
CD806C
360018
CC006C
CC006C
ENDCHAR
STARTCHAR 041A
ENCODING 1050
SWIDTH 690 0
DWIDTH 23 0
BBX 19 25 2 0
BITMAP
CC0360
CC0360
300180
CC0360
CC0360
300D80
300D80
CC3300
306C00
306C00
CDB000
CDB000
366000
CDB000
CDB000
306C00
306C00
CC3300
300D80
300D80
CC0360
CC0360
300180
CC0360
CC0360
ENDCHAR
STARTCHAR 041B
ENCODING 1051
SWIDTH 780 0
DWIDTH 26 0
BBX 22 25 2 0
BITMAP
01B360
01B360
066D98
0DB36C
0DB36C
060018
060018
0D806C
060018
060018
0D806C
0D806C
060018
0D806C
0D806C
060018
060018
0D806C
060018
060018
CD806C
CD806C
360018
CC006C
CC006C
ENDCHAR
STARTCHAR 041C
ENCODING 1052
SWIDTH 990 0
DWIDTH 33 0
BBX 29 25 2 0
BITMAP
CC0000D8
CC0000D8
36000360
CD800CD8
CD800CD8
36601B60
36601B60
CDB06CD8
306D9860
306D9860
CC3360D8
CC3360D8
300D8060
CC0300D8
CC0300D8
30000060
30000060
CC0000D8
30000060
30000060
CC0000D8
CC0000D8
30000060
CC0000D8
CC0000D8
ENDCHAR
STARTCHAR 041D
ENCODING 1053
SWIDTH 780 0
DWIDTH 26 0
BBX 22 25 2 0
BITMAP
CC006C
CC006C
300018
CC006C
CC006C
300018
300018
CC006C
300018
300018
CDB36C
CDB36C
366D98
CDB36C
CDB36C
300018
300018
CC006C
300018
300018
CC006C
CC006C
300018
CC006C
CC006C
ENDCHAR
STARTCHAR 041E
ENCODING 1054
SWIDTH 780 0
DWIDTH 26 0
BBX 22 25 2 0
BITMAP
01B300
01B300
066D80
0DB360
0DB360
360198
360198
CC006C
300018
300018
CC006C
CC006C
300018
CC006C
CC006C
300018
300018
CC006C
360198
360198
0DB360
0DB360
066D80
01B300
01B300
ENDCHAR
STARTCHAR 041F
ENCODING 1055
SWIDTH 780 0
DWIDTH 26 0
BBX 22 25 2 0
BITMAP
0DB360
0DB360
366D98
CDB36C
CDB36C
300018
300018
CC006C
300018
300018
CC006C
CC006C
300018
CC006C
CC006C
300018
300018
CC006C
300018
300018
CC006C
CC006C
300018
CC006C
CC006C
ENDCHAR
STARTCHAR 0420
ENCODING 1056
SWIDTH 690 0
DWIDTH 23 0
BBX 19 25 2 0
BITMAP
CDB000
CDB000
366C00
CDB300
CDB300
300D80
300D80
CC0360
300180
300180
CC0360
CC0360
300180
CC0360
CC0360
300D80
300D80
CDB300
366C00
366C00
CDB000
CDB000
300000
CC0000
CC0000
ENDCHAR
STARTCHAR 0421
ENCODING 1057
SWIDTH 780 0
DWIDTH 26 0
BBX 22 25 2 0
BITMAP
01B300
01B300
066D80
0DB360
0DB360
360198
360198
CC006C
300018
300018
CC006C
CC006C
300000
CC0000
CC0000
300000
300000
CC006C
360198
360198
0DB360
0DB360
066D80
01B300
01B300
ENDCHAR
STARTCHAR 0422
ENCODING 1058
SWIDTH 690 0
DWIDTH 23 0
BBX 19 25 2 0
BITMAP
CDB360
CDB360
366D80
CDB360
CDB360
006000
006000
01B000
006000
006000
01B000
01B000
006000
01B000
01B000
006000
006000
01B000
006000
006000
01B000
01B000
006000
01B000
01B000
ENDCHAR
STARTCHAR 0423
ENCODING 1059
SWIDTH 690 0
DWIDTH 23 0
BBX 19 25 2 0
BITMAP
CC0360
CC0360
300180
CC0360
CC0360
300180
300180
CC0360
360180
360180
0DB360
0DB360
066D80
01B360
01B360
000180
000180
000360
000180
000180
CDB360
CDB360
366D80
CDB300
CDB300
ENDCHAR
STARTCHAR 0424
ENCODING 1060
SWIDTH 900 0
DWIDTH 30 0
BBX 26 31 2 -3
BITMAP
00330000
000C0000
000C0000
01B36000
01B36000
066D9800
0DB36C00
0DB36C00
360C1B00
360C1B00
CC330CC0
300C0300
300C0300
CC330CC0
CC330CC0
300C0300
CC330CC0
CC330CC0
300C0300
300C0300
CC330CC0
360C1B00
360C1B00
0DB36C00
0DB36C00
066D9800
01B36000
01B36000
000C0000
000C0000
00330000
ENDCHAR
STARTCHAR 0425
ENCODING 1061
SWIDTH 780 0
DWIDTH 26 0
BBX 22 25 2 0
BITMAP
CC006C
CC006C
300018
CC006C
CC006C
300018
300018
CC006C
360198
360198
0DB360
0DB360
066D80
0DB360
0DB360
360198
360198
CC006C
300018
300018
CC006C
CC006C
300018
CC006C
CC006C
ENDCHAR
STARTCHAR 0426
ENCODING 1062
SWIDTH 840 0
DWIDTH 28 0
BBX 26 28 2 -3
BITMAP
CC006C00
CC006C00
30001800
CC006C00
CC006C00
30001800
30001800
CC006C00
30001800
30001800
CC006C00
CC006C00
30001800
CC006C00
CC006C00
30001800
30001800
CC006C00
30001800
30001800
CDB36C00
CDB36C00
366D9B00
0DB36CC0
0DB36CC0
00000300
00000300
00000CC0
ENDCHAR
STARTCHAR 0427
ENCODING 1063
SWIDTH 690 0
DWIDTH 23 0
BBX 19 25 2 0
BITMAP
CC0360
CC0360
300180
CC0360
CC0360
300180
300180
CC0360
360180
360180
0DB360
0DB360
066D80
01B360
01B360
000180
000180
000360
000180
000180
000360
000360
000180
000360
000360
ENDCHAR
STARTCHAR 0428
ENCODING 1064
SWIDTH 1080 0
DWIDTH 36 0
BBX 32 25 2 0
BITMAP
CC03601B
CC03601B
30018006
CC03601B
CC03601B
30018006
30018006
CC03601B
30018006
30018006
CC03601B
CC03601B
30018006
CC03601B
CC03601B
30018006
30018006
CC03601B
30018006
30018006
CDB36CDB
CDB36CDB
366D9B66
0DB36CD8
0DB36CD8
ENDCHAR
STARTCHAR 0429
ENCODING 1065
SWIDTH 1140 0
DWIDTH 38 0
BBX 36 28 2 -3
BITMAP
CC03601B00
CC03601B00
3001800600
CC03601B00
CC03601B00
3001800600
3001800600
CC03601B00
3001800600
3001800600
CC03601B00
CC03601B00
3001800600
CC03601B00
CC03601B00
3001800600
3001800600
CC03601B00
3001800600
3001800600
CDB36CDB00
CDB36CDB00
366D9B66C0
0DB36CDB30
0DB36CDB30
00000000C0
00000000C0
0000000330
ENDCHAR
STARTCHAR 042A
ENCODING 1066
SWIDTH 780 0
DWIDTH 26 0
BBX 22 25 2 0
BITMAP
CD8000
CD8000
360000
CD8000
CD8000
060000
060000
0D8000
060000
060000
0DB360
0DB360
066D98
0DB36C
0DB36C
060018
060018
0D806C
060018
060018
0DB36C
0DB36C
066D98
01B360
01B360
ENDCHAR
STARTCHAR 042B
ENCODING 1067
SWIDTH 930 0
DWIDTH 31 0
BBX 27 25 2 0
BITMAP
CC000360
CC000360
300000C0
CC000360
CC000360
300000C0
300000C0
CC000360
300000C0
300000C0
CDB30360
CDB30360
366D80C0
CDB36360
CDB36360
300180C0
300180C0
CC036360
300180C0
300180C0
CDB36360
CDB36360
366D80C0
0DB30360
0DB30360
ENDCHAR
STARTCHAR 042C
ENCODING 1068
SWIDTH 690 0
DWIDTH 23 0
BBX 19 25 2 0
BITMAP
CC0000
CC0000
300000
CC0000
CC0000
300000
300000
CC0000
300000
300000
CDB300
CDB300
366D80
CDB360
CDB360
300180
300180
CC0360
300180
300180
CDB360
CDB360
366D80
0DB300
0DB300
ENDCHAR
STARTCHAR 042D
ENCODING 1069
SWIDTH 780 0
DWIDTH 26 0
BBX 22 25 2 0
BITMAP
01B300
01B300
066D80
0DB360
0DB360
360198
360198
CC006C
000018
000018
01B36C
01B36C
006D98
01B36C
01B36C
000018
000018
CC006C
360198
360198
0DB360
0DB360
066D80
01B300
01B300
ENDCHAR
STARTCHAR 042E
ENCODING 1070
SWIDTH 1080 0
DWIDTH 36 0
BBX 32 25 2 0
BITMAP
CC006CC0
CC006CC0
30019B60
CC036CD8
CC036CD8
300D8066
300D8066
CC33001B
300C0006
300C0006
CDB3001B
CDB3001B
366C0006
CDB3001B
CDB3001B
300C0006
300C0006
CC33001B
300D8066
300D8066
CC036CD8
CC036CD8
30019B60
CC006CC0
CC006CC0
ENDCHAR
STARTCHAR 042F
ENCODING 1071
SWIDTH 690 0
DWIDTH 23 0
BBX 19 25 2 0
BITMAP
01B360
01B360
066D80
0DB360
0DB360
360180
360180
CC0360
300180
300180
CC0360
CC0360
300180
CC0360
CC0360
360180
360180
0DB360
066D80
066D80
0DB360
0DB360
360180
CC0360
CC0360
ENDCHAR
STARTCHAR 0430
ENCODING 1072
SWIDTH 690 0
DWIDTH 23 0
BBX 19 25 2 0
BITMAP
0DB300
0DB300
366D80
CDB360
CDB360
300180
300180
CC0360
300180
300180
CC0360
CC0360
300180
CDB360
CDB360
366D80
366D80
CDB360
300180
300180
CC0360
CC0360
300180
CC0360
CC0360
ENDCHAR
STARTCHAR 0431
ENCODING 1073
SWIDTH 690 0
DWIDTH 23 0
BBX 19 25 2 0
BITMAP
CDB360
CDB360
366D80
CDB360
CDB360
300000
300000
CC0000
300000
300000
CDB300
CDB300
366D80
CDB360
CDB360
300180
300180
CC0360
300180
300180
CDB360
CDB360
366D80
0DB300
0DB300
ENDCHAR
STARTCHAR 0432
ENCODING 1074
SWIDTH 690 0
DWIDTH 23 0
BBX 19 25 2 0
BITMAP
CDB300
CDB300
366D80
CDB360
CDB360
300180
300180
CC0360
300D80
300D80
CDB300
CDB300
366C00
CDB300
CDB300
300D80
300D80
CC0360
300180
300180
CDB360
CDB360
366D80
CDB300
CDB300
ENDCHAR
STARTCHAR 0433
ENCODING 1075
SWIDTH 600 0
DWIDTH 20 0
BBX 16 25 2 0
BITMAP
0DB3
0DB3
366C
CDB3
CDB3
3000
3000
CC00
3000
3000
CC00
CC00
3000
CC00
CC00
3000
3000
CC00
3000
3000
CC00
CC00
3000
CC00
CC00
ENDCHAR
STARTCHAR 0434
ENCODING 1076
SWIDTH 780 0
DWIDTH 26 0
BBX 25 28 1 -3
BITMAP
0336CC00
0336CC00
06D9B000
1B36CC00
1B36CC00
06003000
06003000
1B00CC00
06003000
06003000
1B00CC00
1B00CC00
06003000
1B00CC00
1B00CC00
06003000
06003000
1B00CC00
06003000
06003000
1B36CC00
1B36CC00
66D9B600
DB36CD80
DB36CD80
60000600
60000600
D8000D80
ENDCHAR
STARTCHAR 0435
ENCODING 1077
SWIDTH 690 0
DWIDTH 23 0
BBX 19 25 2 0
BITMAP
0DB360
0DB360
366D80
CDB360
CDB360
300000
300000
CC0000
300000
300000
CDB300
CDB300
366C00
CDB300
CDB300
300000
300000
CC0000
300000
300000
CDB360
CDB360
366D80
0DB360
0DB360
ENDCHAR
STARTCHAR 0436
ENCODING 1078
SWIDTH 1080 0
DWIDTH 36 0
BBX 32 25 2 0
BITMAP
CC03601B
CC03601B
30018006
CC03601B
CC03601B
30018006
30018006
CC03601B
36018066
36018066
0DB36CD8
0DB36CD8
066D9B60
0DB36CD8
0DB36CD8
36018066
36018066
CC03601B
30018006
30018006
CC03601B
CC03601B
30018006
CC03601B
CC03601B
ENDCHAR
STARTCHAR 0437
ENCODING 1079
SWIDTH 690 0
DWIDTH 23 0
BBX 19 25 2 0
BITMAP
0DB300
0DB300
366D80
CDB360
CDB360
300180
300180
CC0360
000D80
000D80
01B300
01B300
006C00
01B300
01B300
000D80
000D80
CC0360
300180
300180
CDB360
CDB360
366D80
0DB300
0DB300
ENDCHAR
STARTCHAR 0438
ENCODING 1080
SWIDTH 690 0
DWIDTH 23 0
BBX 19 25 2 0
BITMAP
CC0360
CC0360
300180
CC0360
CC0360
300180
300180
CC0360
300180
300180
CC0360
CC0360
300D80
CC3360
CC3360
306D80
306D80
CDB360
366180
366180
CD8360
CD8360
360180
CC0360
CC0360
ENDCHAR
STARTCHAR 0439
ENCODING 1081
SWIDTH 690 0
DWIDTH 23 0
BBX 19 35 2 0
BITMAP
360D80
360D80
0C0300
366D80
366D80
0DB300
0DB300
066C00
000000
000000
CC0360
CC0360
300180
CC0360
CC0360
300180
300180
CC0360
300180
300180
CC0360
CC0360
300D80
CC3360
CC3360
306D80
306D80
CDB360
366180
366180
CD8360
CD8360
360180
CC0360
CC0360
ENDCHAR
STARTCHAR 043A
ENCODING 1082
SWIDTH 690 0
DWIDTH 23 0
BBX 19 25 2 0
BITMAP
CC0360
CC0360
300180
CC0360
CC0360
300180
300180
CC0360
300D80
300D80
CDB300
CDB300
366C00
CDB300
CDB300
300D80
300D80
CC0360
300180
300180
CC0360
CC0360
300180
CC0360
CC0360
ENDCHAR
STARTCHAR 043B
ENCODING 1083
SWIDTH 780 0
DWIDTH 26 0
BBX 22 25 2 0
BITMAP
01B360
01B360
066D98
0DB36C
0DB36C
060018
060018
0D806C
060018
060018
0D806C
0D806C
060018
0D806C
0D806C
060018
060018
0D806C
060018
060018
CD806C
CD806C
360018
CC006C
CC006C
ENDCHAR
STARTCHAR 043C
ENCODING 1084
SWIDTH 900 0
DWIDTH 30 0
BBX 26 25 2 0
BITMAP
CC000CC0
CC000CC0
36001B00
CD806CC0
CD806CC0
36619B00
36619B00
CDB36CC0
306D8300
306D8300
CC330CC0
CC330CC0
300C0300
CC000CC0
CC000CC0
30000300
30000300
CC000CC0
30000300
30000300
CC000CC0
CC000CC0
30000300
CC000CC0
CC000CC0
ENDCHAR
STARTCHAR 043D
ENCODING 1085
SWIDTH 690 0
DWIDTH 23 0
BBX 19 25 2 0
BITMAP
CC0360
CC0360
300180
CC0360
CC0360
300180
300180
CC0360
300180
300180
CDB360
CDB360
366D80
CDB360
CDB360
300180
300180
CC0360
300180
300180
CC0360
CC0360
300180
CC0360
CC0360
ENDCHAR
STARTCHAR 043E
ENCODING 1086
SWIDTH 690 0
DWIDTH 23 0
BBX 19 25 2 0
BITMAP
0DB300
0DB300
366D80
CDB360
CDB360
300180
300180
CC0360
300180
300180
CC0360
CC0360
300180
CC0360
CC0360
300180
300180
CC0360
300180
300180
CDB360
CDB360
366D80
0DB300
0DB300
ENDCHAR
STARTCHAR 043F
ENCODING 1087
SWIDTH 690 0
DWIDTH 23 0
BBX 19 25 2 0
BITMAP
0DB300
0DB300
366D80
CDB360
CDB360
300180
300180
CC0360
300180
300180
CC0360
CC0360
300180
CC0360
CC0360
300180
300180
CC0360
300180
300180
CC0360
CC0360
300180
CC0360
CC0360
ENDCHAR
STARTCHAR 0440
ENCODING 1088
SWIDTH 690 0
DWIDTH 23 0
BBX 19 25 2 0
BITMAP
CDB300
CDB300
366D80
CDB360
CDB360
300180
300180
CC0360
300180
300180
CC0360
CC0360
300180
CDB360
CDB360
366D80
366D80
CDB300
300000
300000
CC0000
CC0000
300000
CC0000
CC0000
ENDCHAR
STARTCHAR 0441
ENCODING 1089
SWIDTH 690 0
DWIDTH 23 0
BBX 19 25 2 0
BITMAP
0DB300
0DB300
366D80
CDB360
CDB360
300180
300180
CC0360
300180
300180
CC0360
CC0360
300000
CC0000
CC0000
300000
300000
CC0360
300180
300180
CDB360
CDB360
366D80
0DB300
0DB300
ENDCHAR
STARTCHAR 0442
ENCODING 1090
SWIDTH 690 0
DWIDTH 23 0
BBX 19 25 2 0
BITMAP
CDB360
CDB360
366D80
CDB360
CDB360
006000
006000
01B000
006000
006000
01B000
01B000
006000
01B000
01B000
006000
006000
01B000
006000
006000
01B000
01B000
006000
01B000
01B000
ENDCHAR
STARTCHAR 0443
ENCODING 1091
SWIDTH 690 0
DWIDTH 23 0
BBX 19 25 2 0
BITMAP
CC0360
CC0360
300180
CC0360
CC0360
300180
300180
CC0360
300180
300180
CDB360
CDB360
366D80
0DB360
0DB360
000180
000180
000360
000180
000180
CDB360
CDB360
366D80
CDB300
CDB300
ENDCHAR
STARTCHAR 0444
ENCODING 1092
SWIDTH 900 0
DWIDTH 30 0
BBX 26 31 2 -3
BITMAP
00330000
000C0000
000C0000
0DB36C00
0DB36C00
366D9B00
CDB36CC0
CDB36CC0
300C0300
300C0300
CC330CC0
300C0300
300C0300
CC330CC0
CC330CC0
300C0300
CC330CC0
CC330CC0
300C0300
300C0300
CC330CC0
300C0300
300C0300
CDB36CC0
CDB36CC0
366D9B00
0DB36C00
0DB36C00
000C0000
000C0000
00330000
ENDCHAR
STARTCHAR 0445
ENCODING 1093
SWIDTH 690 0
DWIDTH 23 0
BBX 19 25 2 0
BITMAP
CC0360
CC0360
300180
CC0360
CC0360
300180
300180
CC0360
360D80
360D80
0DB300
0DB300
066C00
0DB300
0DB300
360D80
360D80
CC0360
300180
300180
CC0360
CC0360
300180
CC0360
CC0360
ENDCHAR
STARTCHAR 0446
ENCODING 1094
SWIDTH 750 0
DWIDTH 25 0
BBX 22 28 2 -3
BITMAP
CC0360
CC0360
300180
CC0360
CC0360
300180
300180
CC0360
300180
300180
CC0360
CC0360
300180
CC0360
CC0360
300180
300180
CC0360
300180
300180
CDB360
CDB360
366D98
0DB36C
0DB36C
000018
000018
00006C
ENDCHAR
STARTCHAR 0447
ENCODING 1095
SWIDTH 690 0
DWIDTH 23 0
BBX 19 25 2 0
BITMAP
CC0360
CC0360
300180
CC0360
CC0360
300180
300180
CC0360
300180
300180
CDB360
CDB360
366D80
0DB360
0DB360
000180
000180
000360
000180
000180
000360
000360
000180
000360
000360
ENDCHAR
STARTCHAR 0448
ENCODING 1096
SWIDTH 900 0
DWIDTH 30 0
BBX 26 25 2 0
BITMAP
CC330CC0
CC330CC0
300C0300
CC330CC0
CC330CC0
300C0300
300C0300
CC330CC0
300C0300
300C0300
CC330CC0
CC330CC0
300C0300
CC330CC0
CC330CC0
300C0300
300C0300
CC330CC0
300C0300
300C0300
CDB36CC0
CDB36CC0
366D9B00
0DB36C00
0DB36C00
ENDCHAR
STARTCHAR 0449
ENCODING 1097
SWIDTH 930 0
DWIDTH 31 0
BBX 29 28 2 -3
BITMAP
CC330CC0
CC330CC0
300C0300
CC330CC0
CC330CC0
300C0300
300C0300
CC330CC0
300C0300
300C0300
CC330CC0
CC330CC0
300C0300
CC330CC0
CC330CC0
300C0300
300C0300
CC330CC0
300C0300
300C0300
CDB36CC0
CDB36CC0
366D9B60
0DB36CD8
0DB36CD8
00000060
00000060
000000D8
ENDCHAR
STARTCHAR 044A
ENCODING 1098
SWIDTH 780 0
DWIDTH 26 0
BBX 22 25 2 0
BITMAP
CD8000
CD8000
360000
CD8000
CD8000
060000
060000
0D8000
060000
060000
0DB360
0DB360
066D98
0DB36C
0DB36C
060018
060018
0D806C
060018
060018
0DB36C
0DB36C
066D98
01B360
01B360
ENDCHAR
STARTCHAR 044B
ENCODING 1099
SWIDTH 930 0
DWIDTH 31 0
BBX 27 25 2 0
BITMAP
CC000360
CC000360
300000C0
CC000360
CC000360
300000C0
300000C0
CC000360
300000C0
300000C0
CDB30360
CDB30360
366D80C0
CDB36360
CDB36360
300180C0
300180C0
CC036360
300180C0
300180C0
CDB36360
CDB36360
366D80C0
0DB30360
0DB30360
ENDCHAR
STARTCHAR 044C
ENCODING 1100
SWIDTH 690 0
DWIDTH 23 0
BBX 19 25 2 0
BITMAP
CC0000
CC0000
300000
CC0000
CC0000
300000
300000
CC0000
300000
300000
CDB300
CDB300
366D80
CDB360
CDB360
300180
300180
CC0360
300180
300180
CDB360
CDB360
366D80
0DB300
0DB300
ENDCHAR
STARTCHAR 044D
ENCODING 1101
SWIDTH 780 0
DWIDTH 26 0
BBX 22 25 2 0
BITMAP
0DB360
0DB360
366D98
CDB36C
CDB36C
300018
300018
CC006C
000018
000018
01B36C
01B36C
006D98
01B36C
01B36C
000018
000018
CC006C
300018
300018
CDB36C
CDB36C
366D98
0DB360
0DB360
ENDCHAR
STARTCHAR 044E
ENCODING 1102
SWIDTH 990 0
DWIDTH 33 0
BBX 29 25 2 0
BITMAP
CC036CC0
CC036CC0
300D9B60
CC336CD8
CC336CD8
300C0060
300C0060
CC3300D8
300C0060
300C0060
CDB300D8
CDB300D8
366C0060
CDB300D8
CDB300D8
300C0060
300C0060
CC3300D8
300C0060
300C0060
CC336CD8
CC336CD8
300D9B60
CC036CC0
CC036CC0
ENDCHAR
STARTCHAR 044F
ENCODING 1103
SWIDTH 690 0
DWIDTH 23 0
BBX 19 25 2 0
BITMAP
0DB360
0DB360
366D80
CDB360
CDB360
300180
300180
CC0360
300180
300180
CC0360
CC0360
300180
CDB360
CDB360
366D80
366D80
0DB360
360180
360180
CC0360
CC0360
300180
CC0360
CC0360
ENDCHAR
STARTCHAR 0451
ENCODING 1105
SWIDTH 690 0
DWIDTH 23 0
BBX 19 32 2 0
BITMAP
0DB300
0DB300
060C00
060C00
0DB300
000000
000000
0DB360
0DB360
366D80
CDB360
CDB360
300000
300000
CC0000
300000
300000
CDB300
CDB300
366C00
CDB300
CDB300
300000
300000
CC0000
300000
300000
CDB360
CDB360
366D80
0DB360
0DB360
ENDCHAR
STARTCHAR 1E80
ENCODING 7808
SWIDTH 1080 0
DWIDTH 36 0
BBX 32 35 2 0
BITMAP
01B00000
01B00000
006C0000
00330000
00330000
000D8000
000D8000
00036000
00000000
00000000
CC03601B
CC03601B
30018006
CC03601B
CC03601B
30018006
30018006
CC03601B
30018006
30018006
CC03601B
CC03601B
30018006
CC03601B
CC03601B
30018006
30018006
CC03601B
360D9866
360D9866
0DB36CD8
0DB36CD8
066C1B60
01B00CC0
01B00CC0
ENDCHAR
STARTCHAR 1E81
ENCODING 7809
SWIDTH 1080 0
DWIDTH 36 0
BBX 32 35 2 0
BITMAP
01B00000
01B00000
006C0000
00330000
00330000
000D8000
000D8000
00036000
00000000
00000000
CC03601B
CC03601B
30018006
CC03601B
CC03601B
30018006
30018006
CC03601B
30018006
30018006
CC03601B
CC03601B
30018006
CC03601B
CC03601B
30018006
30018006
CC03601B
300D9806
300D9806
CDB36CDB
CDB36CDB
366C1B66
0DB00CD8
0DB00CD8
ENDCHAR
STARTCHAR 1E82
ENCODING 7810
SWIDTH 1080 0
DWIDTH 36 0
BBX 32 35 2 0
BITMAP
00001B00
00001B00
00006C00
00019800
00019800
00036000
00036000
000D8000
00000000
00000000
CC03601B
CC03601B
30018006
CC03601B
CC03601B
30018006
30018006
CC03601B
30018006
30018006
CC03601B
CC03601B
30018006
CC03601B
CC03601B
30018006
30018006
CC03601B
360D9866
360D9866
0DB36CD8
0DB36CD8
066C1B60
01B00CC0
01B00CC0
ENDCHAR
STARTCHAR 1E83
ENCODING 7811
SWIDTH 1080 0
DWIDTH 36 0
BBX 32 35 2 0
BITMAP
00001B00
00001B00
00006C00
00019800
00019800
00036000
00036000
000D8000
00000000
00000000
CC03601B
CC03601B
30018006
CC03601B
CC03601B
30018006
30018006
CC03601B
30018006
30018006
CC03601B
CC03601B
30018006
CC03601B
CC03601B
30018006
30018006
CC03601B
300D9806
300D9806
CDB36CDB
CDB36CDB
366C1B66
0DB00CD8
0DB00CD8
ENDCHAR
STARTCHAR 1E84
ENCODING 7812
SWIDTH 1080 0
DWIDTH 36 0
BBX 32 32 2 0
BITMAP
00336C00
00336C00
000C1800
000C1800
00336C00
00000000
00000000
CC03601B
CC03601B
30018006
CC03601B
CC03601B
30018006
30018006
CC03601B
30018006
30018006
CC03601B
CC03601B
30018006
CC03601B
CC03601B
30018006
30018006
CC03601B
360D9866
360D9866
0DB36CD8
0DB36CD8
066C1B60
01B00CC0
01B00CC0
ENDCHAR
STARTCHAR 1E85
ENCODING 7813
SWIDTH 1080 0
DWIDTH 36 0
BBX 32 32 2 0
BITMAP
00336C00
00336C00
000C1800
000C1800
00336C00
00000000
00000000
CC03601B
CC03601B
30018006
CC03601B
CC03601B
30018006
30018006
CC03601B
30018006
30018006
CC03601B
CC03601B
30018006
CC03601B
CC03601B
30018006
30018006
CC03601B
300D9806
300D9806
CDB36CDB
CDB36CDB
366C1B66
0DB00CD8
0DB00CD8
ENDCHAR
STARTCHAR 1E9E
ENCODING 7838
SWIDTH 690 0
DWIDTH 23 0
BBX 19 25 2 0
BITMAP
0DB300
0DB300
366D80
CDB360
CDB360
300180
300180
CC0360
300D80
300D80
CDB300
CDB300
306D80
CDB360
CDB360
300180
300180
CC0360
300180
300180
CDB360
CDB360
306D80
CDB300
CDB300
ENDCHAR
STARTCHAR 1EA0
ENCODING 7840
SWIDTH 690 0
DWIDTH 23 0
BBX 19 32 2 -7
BITMAP
01B000
01B000
066C00
0DB300
0DB300
360D80
360D80
CC0360
300180
300180
CC0360
CC0360
300180
CDB360
CDB360
366D80
366D80
CDB360
300180
300180
CC0360
CC0360
300180
CC0360
CC0360
000000
000000
01B000
006000
006000
01B000
01B000
ENDCHAR
STARTCHAR 1EA1
ENCODING 7841
SWIDTH 690 0
DWIDTH 23 0
BBX 19 32 2 -7
BITMAP
0DB300
0DB300
366D80
CDB360
CDB360
300180
300180
CC0360
300180
300180
CC0360
CC0360
300180
CDB360
CDB360
366D80
366D80
CDB360
300180
300180
CC0360
CC0360
300180
CC0360
CC0360
000000
000000
01B000
006000
006000
01B000
01B000
ENDCHAR
STARTCHAR 1EA2
ENCODING 7842
SWIDTH 690 0
DWIDTH 23 0
BBX 19 38 2 0
BITMAP
0DB000
066C00
066C00
0DB300
0DB300
000C00
01B300
01B300
006C00
006C00
01B000
000000
000000
01B000
01B000
066C00
0DB300
0DB300
360D80
360D80
CC0360
300180
300180
CC0360
CC0360
300180
CDB360
CDB360
366D80
366D80
CDB360
300180
300180
CC0360
CC0360
300180
CC0360
CC0360
ENDCHAR
STARTCHAR 1EA3
ENCODING 7843
SWIDTH 690 0
DWIDTH 23 0
BBX 19 38 2 0
BITMAP
0DB000
066C00
066C00
0DB300
0DB300
000C00
01B300
01B300
006C00
006C00
01B000
000000
000000
0DB300
0DB300
366D80
CDB360
CDB360
300180
300180
CC0360
300180
300180
CC0360
CC0360
300180
CDB360
CDB360
366D80
366D80
CDB360
300180
300180
CC0360
CC0360
300180
CC0360
CC0360
ENDCHAR
STARTCHAR 1EA4
ENCODING 7844
SWIDTH 690 0
DWIDTH 23 0
BBX 19 45 2 0
BITMAP
000D80
000D80
003300
006C00
006C00
01B000
01B000
066000
000000
000000
01B000
01B000
066C00
0DB300
0DB300
060C00
060C00
0DB300
000000
000000
01B000
01B000
066C00
0DB300
0DB300
360D80
360D80
CC0360
300180
300180
CC0360
CC0360
300180
CDB360
CDB360
366D80
366D80
CDB360
300180
300180
CC0360
CC0360
300180
CC0360
CC0360
ENDCHAR
STARTCHAR 1EA5
ENCODING 7845
SWIDTH 690 0
DWIDTH 23 0
BBX 19 45 2 0
BITMAP
000D80
000D80
003300
006C00
006C00
01B000
01B000
066000
000000
000000
01B000
01B000
066C00
0DB300
0DB300
060C00
060C00
0DB300
000000
000000
0DB300
0DB300
366D80
CDB360
CDB360
300180
300180
CC0360
300180
300180
CC0360
CC0360
300180
CDB360
CDB360
366D80
366D80
CDB360
300180
300180
CC0360
CC0360
300180
CC0360
CC0360
ENDCHAR
STARTCHAR 1EA6
ENCODING 7846
SWIDTH 690 0
DWIDTH 23 0
BBX 19 45 2 0
BITMAP
CC0000
CC0000
360000
0D8000
0D8000
066000
066000
01B000
000000
000000
01B000
01B000
066C00
0DB300
0DB300
060C00
060C00
0DB300
000000
000000
01B000
01B000
066C00
0DB300
0DB300
360D80
360D80
CC0360
300180
300180
CC0360
CC0360
300180
CDB360
CDB360
366D80
366D80
CDB360
300180
300180
CC0360
CC0360
300180
CC0360
CC0360
ENDCHAR
STARTCHAR 1EA7
ENCODING 7847
SWIDTH 690 0
DWIDTH 23 0
BBX 19 45 2 0
BITMAP
CC0000
CC0000
360000
0D8000
0D8000
066000
066000
01B000
000000
000000
01B000
01B000
066C00
0DB300
0DB300
060C00
060C00
0DB300
000000
000000
0DB300
0DB300
366D80
CDB360
CDB360
300180
300180
CC0360
300180
300180
CC0360
CC0360
300180
CDB360
CDB360
366D80
366D80
CDB360
300180
300180
CC0360
CC0360
300180
CC0360
CC0360
ENDCHAR
STARTCHAR 1EA8
ENCODING 7848
SWIDTH 690 0
DWIDTH 23 0
BBX 19 48 2 0
BITMAP
0DB000
066C00
066C00
0DB300
0DB300
000C00
01B300
01B300
006C00
006C00
01B000
000000
000000
01B000
01B000
066C00
0DB300
0DB300
060C00
060C00
0DB300
000000
000000
01B000
01B000
066C00
0DB300
0DB300
360D80
360D80
CC0360
300180
300180
CC0360
CC0360
300180
CDB360
CDB360
366D80
366D80
CDB360
300180
300180
CC0360
CC0360
300180
CC0360
CC0360
ENDCHAR
STARTCHAR 1EA9
ENCODING 7849
SWIDTH 690 0
DWIDTH 23 0
BBX 19 48 2 0
BITMAP
0DB000
066C00
066C00
0DB300
0DB300
000C00
01B300
01B300
006C00
006C00
01B000
000000
000000
01B000
01B000
066C00
0DB300
0DB300
060C00
060C00
0DB300
000000
000000
0DB300
0DB300
366D80
CDB360
CDB360
300180
300180
CC0360
300180
300180
CC0360
CC0360
300180
CDB360
CDB360
366D80
366D80
CDB360
300180
300180
CC0360
CC0360
300180
CC0360
CC0360
ENDCHAR
STARTCHAR 1EAA
ENCODING 7850
SWIDTH 690 0
DWIDTH 23 0
BBX 19 45 2 0
BITMAP
0D8360
0D8360
366180
CDB360
CDB360
306D80
306D80
CC3300
000000
000000
01B000
01B000
066C00
0DB300
0DB300
060C00
060C00
0DB300
000000
000000
01B000
01B000
066C00
0DB300
0DB300
360D80
360D80
CC0360
300180
300180
CC0360
CC0360
300180
CDB360
CDB360
366D80
366D80
CDB360
300180
300180
CC0360
CC0360
300180
CC0360
CC0360
ENDCHAR
STARTCHAR 1EAB
ENCODING 7851
SWIDTH 690 0
DWIDTH 23 0
BBX 19 45 2 0
BITMAP
0D8360
0D8360
366180
CDB360
CDB360
306D80
306D80
CC3300
000000
000000
01B000
01B000
066C00
0DB300
0DB300
060C00
060C00
0DB300
000000
000000
0DB300
0DB300
366D80
CDB360
CDB360
300180
300180
CC0360
300180
300180
CC0360
CC0360
300180
CDB360
CDB360
366D80
366D80
CDB360
300180
300180
CC0360
CC0360
300180
CC0360
CC0360
ENDCHAR
STARTCHAR 1EAC
ENCODING 7852
SWIDTH 690 0
DWIDTH 23 0
BBX 19 42 2 -7
BITMAP
01B000
01B000
066C00
0DB300
0DB300
060C00
060C00
0DB300
000000
000000
01B000
01B000
066C00
0DB300
0DB300
360D80
360D80
CC0360
300180
300180
CC0360
CC0360
300180
CDB360
CDB360
366D80
366D80
CDB360
300180
300180
CC0360
CC0360
300180
CC0360
CC0360
000000
000000
01B000
006000
006000
01B000
01B000
ENDCHAR
STARTCHAR 1EAD
ENCODING 7853
SWIDTH 690 0
DWIDTH 23 0
BBX 19 42 2 -7
BITMAP
01B000
01B000
066C00
0DB300
0DB300
060C00
060C00
0DB300
000000
000000
0DB300
0DB300
366D80
CDB360
CDB360
300180
300180
CC0360
300180
300180
CC0360
CC0360
300180
CDB360
CDB360
366D80
366D80
CDB360
300180
300180
CC0360
CC0360
300180
CC0360
CC0360
000000
000000
01B000
006000
006000
01B000
01B000
ENDCHAR
STARTCHAR 1EAE
ENCODING 7854
SWIDTH 690 0
DWIDTH 23 0
BBX 19 45 2 0
BITMAP
000D80
000D80
003300
006C00
006C00
01B000
01B000
066000
000000
000000
360D80
360D80
0C0300
366D80
366D80
0DB300
0DB300
066C00
000000
000000
01B000
01B000
066C00
0DB300
0DB300
360D80
360D80
CC0360
300180
300180
CC0360
CC0360
300180
CDB360
CDB360
366D80
366D80
CDB360
300180
300180
CC0360
CC0360
300180
CC0360
CC0360
ENDCHAR
STARTCHAR 1EAF
ENCODING 7855
SWIDTH 690 0
DWIDTH 23 0
BBX 19 45 2 0
BITMAP
000D80
000D80
003300
006C00
006C00
01B000
01B000
066000
000000
000000
360D80
360D80
0C0300
366D80
366D80
0DB300
0DB300
066C00
000000
000000
0DB300
0DB300
366D80
CDB360
CDB360
300180
300180
CC0360
300180
300180
CC0360
CC0360
300180
CDB360
CDB360
366D80
366D80
CDB360
300180
300180
CC0360
CC0360
300180
CC0360
CC0360
ENDCHAR
STARTCHAR 1EB0
ENCODING 7856
SWIDTH 690 0
DWIDTH 23 0
BBX 19 45 2 0
BITMAP
D80000
D80000
360000
198000
198000
06C000
06C000
01B000
000000
000000
360D80
360D80
0C0300
366D80
366D80
0DB300
0DB300
066C00
000000
000000
01B000
01B000
066C00
0DB300
0DB300
360D80
360D80
CC0360
300180
300180
CC0360
CC0360
300180
CDB360
CDB360
366D80
366D80
CDB360
300180
300180
CC0360
CC0360
300180
CC0360
CC0360
ENDCHAR
STARTCHAR 1EB1
ENCODING 7857
SWIDTH 690 0
DWIDTH 23 0
BBX 19 45 2 0
BITMAP
D80000
D80000
360000
198000
198000
06C000
06C000
01B000
000000
000000
360D80
360D80
0C0300
366D80
366D80
0DB300
0DB300
066C00
000000
000000
0DB300
0DB300
366D80
CDB360
CDB360
300180
300180
CC0360
300180
300180
CC0360
CC0360
300180
CDB360
CDB360
366D80
366D80
CDB360
300180
300180
CC0360
CC0360
300180
CC0360
CC0360
ENDCHAR
STARTCHAR 1EB2
ENCODING 7858
SWIDTH 690 0
DWIDTH 23 0
BBX 19 48 2 0
BITMAP
0DB000
066C00
066C00
0DB300
0DB300
000C00
01B300
01B300
006C00
006C00
01B000
000000
000000
360D80
360D80
0C0300
366D80
366D80
0DB300
0DB300
066C00
000000
000000
01B000
01B000
066C00
0DB300
0DB300
360D80
360D80
CC0360
300180
300180
CC0360
CC0360
300180
CDB360
CDB360
366D80
366D80
CDB360
300180
300180
CC0360
CC0360
300180
CC0360
CC0360
ENDCHAR
STARTCHAR 1EB3
ENCODING 7859
SWIDTH 690 0
DWIDTH 23 0
BBX 19 48 2 0
BITMAP
0DB000
066C00
066C00
0DB300
0DB300
000C00
01B300
01B300
006C00
006C00
01B000
000000
000000
360D80
360D80
0C0300
366D80
366D80
0DB300
0DB300
066C00
000000
000000
0DB300
0DB300
366D80
CDB360
CDB360
300180
300180
CC0360
300180
300180
CC0360
CC0360
300180
CDB360
CDB360
366D80
366D80
CDB360
300180
300180
CC0360
CC0360
300180
CC0360
CC0360
ENDCHAR
STARTCHAR 1EB4
ENCODING 7860
SWIDTH 690 0
DWIDTH 23 0
BBX 19 45 2 0
BITMAP
0D8360
0D8360
366180
CDB360
CDB360
306D80
306D80
CC3300
000000
000000
360D80
360D80
0C0300
366D80
366D80
0DB300
0DB300
066C00
000000
000000
01B000
01B000
066C00
0DB300
0DB300
360D80
360D80
CC0360
300180
300180
CC0360
CC0360
300180
CDB360
CDB360
366D80
366D80
CDB360
300180
300180
CC0360
CC0360
300180
CC0360
CC0360
ENDCHAR
STARTCHAR 1EB5
ENCODING 7861
SWIDTH 690 0
DWIDTH 23 0
BBX 19 45 2 0
BITMAP
0D8360
0D8360
366180
CDB360
CDB360
306D80
306D80
CC3300
000000
000000
360D80
360D80
0C0300
366D80
366D80
0DB300
0DB300
066C00
000000
000000
0DB300
0DB300
366D80
CDB360
CDB360
300180
300180
CC0360
300180
300180
CC0360
CC0360
300180
CDB360
CDB360
366D80
366D80
CDB360
300180
300180
CC0360
CC0360
300180
CC0360
CC0360
ENDCHAR
STARTCHAR 1EB6
ENCODING 7862
SWIDTH 690 0
DWIDTH 23 0
BBX 19 42 2 -7
BITMAP
360D80
360D80
0C0300
366D80
366D80
0DB300
0DB300
066C00
000000
000000
01B000
01B000
066C00
0DB300
0DB300
360D80
360D80
CC0360
300180
300180
CC0360
CC0360
300180
CDB360
CDB360
366D80
366D80
CDB360
300180
300180
CC0360
CC0360
300180
CC0360
CC0360
000000
000000
01B000
006000
006000
01B000
01B000
ENDCHAR
STARTCHAR 1EB7
ENCODING 7863
SWIDTH 690 0
DWIDTH 23 0
BBX 19 42 2 -7
BITMAP
360D80
360D80
0C0300
366D80
366D80
0DB300
0DB300
066C00
000000
000000
0DB300
0DB300
366D80
CDB360
CDB360
300180
300180
CC0360
300180
300180
CC0360
CC0360
300180
CDB360
CDB360
366D80
366D80
CDB360
300180
300180
CC0360
CC0360
300180
CC0360
CC0360
000000
000000
01B000
006000
006000
01B000
01B000
ENDCHAR
STARTCHAR 1EB8
ENCODING 7864
SWIDTH 690 0
DWIDTH 23 0
BBX 19 32 2 -7
BITMAP
01B360
01B360
066D80
0DB360
0DB360
360000
360000
CC0000
300000
300000
CDB300
CDB300
366C00
CDB300
CDB300
300000
300000
CC0000
360000
360000
0DB360
0DB360
066D80
01B360
01B360
000000
000000
01B000
006000
006000
01B000
01B000
ENDCHAR
STARTCHAR 1EB9
ENCODING 7865
SWIDTH 690 0
DWIDTH 23 0
BBX 19 32 2 -7
BITMAP
0DB360
0DB360
366D80
CDB360
CDB360
300000
300000
CC0000
300000
300000
CDB300
CDB300
366C00
CDB300
CDB300
300000
300000
CC0000
300000
300000
CDB360
CDB360
366D80
0DB360
0DB360
000000
000000
01B000
006000
006000
01B000
01B000
ENDCHAR
STARTCHAR 1EBA
ENCODING 7866
SWIDTH 690 0
DWIDTH 23 0
BBX 19 38 2 0
BITMAP
0DB000
066C00
066C00
0DB300
0DB300
000C00
01B300
01B300
006C00
006C00
01B000
000000
000000
01B360
01B360
066D80
0DB360
0DB360
360000
360000
CC0000
300000
300000
CDB300
CDB300
366C00
CDB300
CDB300
300000
300000
CC0000
360000
360000
0DB360
0DB360
066D80
01B360
01B360
ENDCHAR
STARTCHAR 1EBB
ENCODING 7867
SWIDTH 690 0
DWIDTH 23 0
BBX 19 38 2 0
BITMAP
0DB000
066C00
066C00
0DB300
0DB300
000C00
01B300
01B300
006C00
006C00
01B000
000000
000000
0DB360
0DB360
366D80
CDB360
CDB360
300000
300000
CC0000
300000
300000
CDB300
CDB300
366C00
CDB300
CDB300
300000
300000
CC0000
300000
300000
CDB360
CDB360
366D80
0DB360
0DB360
ENDCHAR
STARTCHAR 1EBC
ENCODING 7868
SWIDTH 690 0
DWIDTH 23 0
BBX 19 35 2 0
BITMAP
0D8360
0D8360
366180
CDB360
CDB360
306D80
306D80
CC3300
000000
000000
01B360
01B360
066D80
0DB360
0DB360
360000
360000
CC0000
300000
300000
CDB300
CDB300
366C00
CDB300
CDB300
300000
300000
CC0000
360000
360000
0DB360
0DB360
066D80
01B360
01B360
ENDCHAR
STARTCHAR 1EBD
ENCODING 7869
SWIDTH 690 0
DWIDTH 23 0
BBX 19 35 2 0
BITMAP
0D8360
0D8360
366180
CDB360
CDB360
306D80
306D80
CC3300
000000
000000
0DB360
0DB360
366D80
CDB360
CDB360
300000
300000
CC0000
300000
300000
CDB300
CDB300
366C00
CDB300
CDB300
300000
300000
CC0000
300000
300000
CDB360
CDB360
366D80
0DB360
0DB360
ENDCHAR
STARTCHAR 1EBE
ENCODING 7870
SWIDTH 690 0
DWIDTH 23 0
BBX 19 45 2 0
BITMAP
000D80
000D80
003300
006C00
006C00
01B000
01B000
066000
000000
000000
01B000
01B000
066C00
0DB300
0DB300
060C00
060C00
0DB300
000000
000000
01B360
01B360
066D80
0DB360
0DB360
360000
360000
CC0000
300000
300000
CDB300
CDB300
366C00
CDB300
CDB300
300000
300000
CC0000
360000
360000
0DB360
0DB360
066D80
01B360
01B360
ENDCHAR
STARTCHAR 1EBF
ENCODING 7871
SWIDTH 690 0
DWIDTH 23 0
BBX 19 45 2 0
BITMAP
000D80
000D80
003300
006C00
006C00
01B000
01B000
066000
000000
000000
01B000
01B000
066C00
0DB300
0DB300
060C00
060C00
0DB300
000000
000000
0DB360
0DB360
366D80
CDB360
CDB360
300000
300000
CC0000
300000
300000
CDB300
CDB300
366C00
CDB300
CDB300
300000
300000
CC0000
300000
300000
CDB360
CDB360
366D80
0DB360
0DB360
ENDCHAR
STARTCHAR 1EC0
ENCODING 7872
SWIDTH 690 0
DWIDTH 23 0
BBX 19 45 2 0
BITMAP
CC0000
CC0000
360000
0D8000
0D8000
066000
066000
01B000
000000
000000
01B000
01B000
066C00
0DB300
0DB300
060C00
060C00
0DB300
000000
000000
01B360
01B360
066D80
0DB360
0DB360
360000
360000
CC0000
300000
300000
CDB300
CDB300
366C00
CDB300
CDB300
300000
300000
CC0000
360000
360000
0DB360
0DB360
066D80
01B360
01B360
ENDCHAR
STARTCHAR 1EC1
ENCODING 7873
SWIDTH 690 0
DWIDTH 23 0
BBX 19 45 2 0
BITMAP
CC0000
CC0000
360000
0D8000
0D8000
066000
066000
01B000
000000
000000
01B000
01B000
066C00
0DB300
0DB300
060C00
060C00
0DB300
000000
000000
0DB360
0DB360
366D80
CDB360
CDB360
300000
300000
CC0000
300000
300000
CDB300
CDB300
366C00
CDB300
CDB300
300000
300000
CC0000
300000
300000
CDB360
CDB360
366D80
0DB360
0DB360
ENDCHAR
STARTCHAR 1EC2
ENCODING 7874
SWIDTH 690 0
DWIDTH 23 0
BBX 19 48 2 0
BITMAP
0DB000
066C00
066C00
0DB300
0DB300
000C00
01B300
01B300
006C00
006C00
01B000
000000
000000
01B000
01B000
066C00
0DB300
0DB300
060C00
060C00
0DB300
000000
000000
01B360
01B360
066D80
0DB360
0DB360
360000
360000
CC0000
300000
300000
CDB300
CDB300
366C00
CDB300
CDB300
300000
300000
CC0000
360000
360000
0DB360
0DB360
066D80
01B360
01B360
ENDCHAR
STARTCHAR 1EC3
ENCODING 7875
SWIDTH 690 0
DWIDTH 23 0
BBX 19 48 2 0
BITMAP
0DB000
066C00
066C00
0DB300
0DB300
000C00
01B300
01B300
006C00
006C00
01B000
000000
000000
01B000
01B000
066C00
0DB300
0DB300
060C00
060C00
0DB300
000000
000000
0DB360
0DB360
366D80
CDB360
CDB360
300000
300000
CC0000
300000
300000
CDB300
CDB300
366C00
CDB300
CDB300
300000
300000
CC0000
300000
300000
CDB360
CDB360
366D80
0DB360
0DB360
ENDCHAR
STARTCHAR 1EC4
ENCODING 7876
SWIDTH 690 0
DWIDTH 23 0
BBX 19 45 2 0
BITMAP
0D8360
0D8360
366180
CDB360
CDB360
306D80
306D80
CC3300
000000
000000
01B000
01B000
066C00
0DB300
0DB300
060C00
060C00
0DB300
000000
000000
01B360
01B360
066D80
0DB360
0DB360
360000
360000
CC0000
300000
300000
CDB300
CDB300
366C00
CDB300
CDB300
300000
300000
CC0000
360000
360000
0DB360
0DB360
066D80
01B360
01B360
ENDCHAR
STARTCHAR 1EC5
ENCODING 7877
SWIDTH 690 0
DWIDTH 23 0
BBX 19 45 2 0
BITMAP
0D8360
0D8360
366180
CDB360
CDB360
306D80
306D80
CC3300
000000
000000
01B000
01B000
066C00
0DB300
0DB300
060C00
060C00
0DB300
000000
000000
0DB360
0DB360
366D80
CDB360
CDB360
300000
300000
CC0000
300000
300000
CDB300
CDB300
366C00
CDB300
CDB300
300000
300000
CC0000
300000
300000
CDB360
CDB360
366D80
0DB360
0DB360
ENDCHAR
STARTCHAR 1EC6
ENCODING 7878
SWIDTH 690 0
DWIDTH 23 0
BBX 19 42 2 -7
BITMAP
01B000
01B000
066C00
0DB300
0DB300
060C00
060C00
0DB300
000000
000000
01B360
01B360
066D80
0DB360
0DB360
360000
360000
CC0000
300000
300000
CDB300
CDB300
366C00
CDB300
CDB300
300000
300000
CC0000
360000
360000
0DB360
0DB360
066D80
01B360
01B360
000000
000000
01B000
006000
006000
01B000
01B000
ENDCHAR
STARTCHAR 1EC7
ENCODING 7879
SWIDTH 690 0
DWIDTH 23 0
BBX 19 42 2 -7
BITMAP
01B000
01B000
066C00
0DB300
0DB300
060C00
060C00
0DB300
000000
000000
0DB360
0DB360
366D80
CDB360
CDB360
300000
300000
CC0000
300000
300000
CDB300
CDB300
366C00
CDB300
CDB300
300000
300000
CC0000
300000
300000
CDB360
CDB360
366D80
0DB360
0DB360
000000
000000
01B000
006000
006000
01B000
01B000
ENDCHAR
STARTCHAR 1EC8
ENCODING 7880
SWIDTH 480 0
DWIDTH 16 0
BBX 12 38 2 0
BITMAP
CD80
3660
3660
CDB0
CDB0
0060
0DB0
0DB0
0660
0660
0D80
0000
0000
CDB0
CDB0
3660
CDB0
CDB0
0600
0600
0D80
0600
0600
0D80
0D80
0600
0D80
0D80
0600
0600
0D80
0600
0600
CDB0
CDB0
3660
CDB0
CDB0
ENDCHAR
STARTCHAR 1EC9
ENCODING 7881
SWIDTH 300 0
DWIDTH 10 0
BBX 12 38 -1 0
BITMAP
D980
36C0
36C0
D9B0
D9B0
00C0
19B0
19B0
06C0
06C0
1980
0000
0000
1980
1980
0600
1980
1980
0600
0600
1980
0600
0600
1980
1980
0600
1980
1980
0600
0600
1980
0600
0600
1980
1980
0600
1980
1980
ENDCHAR
STARTCHAR 1ECA
ENCODING 7882
SWIDTH 480 0
DWIDTH 16 0
BBX 12 32 2 -7
BITMAP
CDB0
CDB0
3660
CDB0
CDB0
0600
0600
0D80
0600
0600
0D80
0D80
0600
0D80
0D80
0600
0600
0D80
0600
0600
CDB0
CDB0
3660
CDB0
CDB0
0000
0000
0D80
0600
0600
0D80
0D80
ENDCHAR
STARTCHAR 1ECB
ENCODING 7883
SWIDTH 300 0
DWIDTH 10 0
BBX 6 32 2 -7
BITMAP
CC
CC
30
CC
CC
30
30
CC
30
30
CC
CC
30
CC
CC
30
30
CC
30
30
CC
CC
30
CC
CC
00
00
CC
30
30
CC
CC
ENDCHAR
STARTCHAR 1ECC
ENCODING 7884
SWIDTH 780 0
DWIDTH 26 0
BBX 22 32 2 -7
BITMAP
01B300
01B300
066D80
0DB360
0DB360
360198
360198
CC006C
300018
300018
CC006C
CC006C
300018
CC006C
CC006C
300018
300018
CC006C
360198
360198
0DB360
0DB360
066D80
01B300
01B300
000000
000000
006C00
003000
003000
006C00
006C00
ENDCHAR
STARTCHAR 1ECD
ENCODING 7885
SWIDTH 690 0
DWIDTH 23 0
BBX 19 32 2 -7
BITMAP
0DB300
0DB300
366D80
CDB360
CDB360
300180
300180
CC0360
300180
300180
CC0360
CC0360
300180
CC0360
CC0360
300180
300180
CC0360
300180
300180
CDB360
CDB360
366D80
0DB300
0DB300
000000
000000
01B000
006000
006000
01B000
01B000
ENDCHAR
STARTCHAR 1ECE
ENCODING 7886
SWIDTH 780 0
DWIDTH 26 0
BBX 22 38 2 0
BITMAP
066C00
01B300
01B300
066D80
066D80
000300
006D80
006D80
003300
003300
006C00
000000
000000
01B300
01B300
066D80
0DB360
0DB360
360198
360198
CC006C
300018
300018
CC006C
CC006C
300018
CC006C
CC006C
300018
300018
CC006C
360198
360198
0DB360
0DB360
066D80
01B300
01B300
ENDCHAR
STARTCHAR 1ECF
ENCODING 7887
SWIDTH 690 0
DWIDTH 23 0
BBX 19 38 2 0
BITMAP
0DB000
066C00
066C00
0DB300
0DB300
000C00
01B300
01B300
006C00
006C00
01B000
000000
000000
0DB300
0DB300
366D80
CDB360
CDB360
300180
300180
CC0360
300180
300180
CC0360
CC0360
300180
CC0360
CC0360
300180
300180
CC0360
300180
300180
CDB360
CDB360
366D80
0DB300
0DB300
ENDCHAR
STARTCHAR 1ED0
ENCODING 7888
SWIDTH 780 0
DWIDTH 26 0
BBX 22 45 2 0
BITMAP
000360
000360
000D80
003300
003300
006C00
006C00
01B000
000000
000000
006C00
006C00
01B300
066D80
066D80
018300
018300
066D80
000000
000000
01B300
01B300
066D80
0DB360
0DB360
360198
360198
CC006C
300018
300018
CC006C
CC006C
300018
CC006C
CC006C
300018
300018
CC006C
360198
360198
0DB360
0DB360
066D80
01B300
01B300
ENDCHAR
STARTCHAR 1ED1
ENCODING 7889
SWIDTH 690 0
DWIDTH 23 0
BBX 19 45 2 0
BITMAP
000D80
000D80
003300
006C00
006C00
01B000
01B000
066000
000000
000000
01B000
01B000
066C00
0DB300
0DB300
060C00
060C00
0DB300
000000
000000
0DB300
0DB300
366D80
CDB360
CDB360
300180
300180
CC0360
300180
300180
CC0360
CC0360
300180
CC0360
CC0360
300180
300180
CC0360
300180
300180
CDB360
CDB360
366D80
0DB300
0DB300
ENDCHAR
STARTCHAR 1ED2
ENCODING 7890
SWIDTH 780 0
DWIDTH 26 0
BBX 22 45 2 0
BITMAP
360000
360000
0D8000
066000
066000
01B000
01B000
006C00
000000
000000
006C00
006C00
01B300
066D80
066D80
018300
018300
066D80
000000
000000
01B300
01B300
066D80
0DB360
0DB360
360198
360198
CC006C
300018
300018
CC006C
CC006C
300018
CC006C
CC006C
300018
300018
CC006C
360198
360198
0DB360
0DB360
066D80
01B300
01B300
ENDCHAR
STARTCHAR 1ED3
ENCODING 7891
SWIDTH 690 0
DWIDTH 23 0
BBX 19 45 2 0
BITMAP
CC0000
CC0000
360000
0D8000
0D8000
066000
066000
01B000
000000
000000
01B000
01B000
066C00
0DB300
0DB300
060C00
060C00
0DB300
000000
000000
0DB300
0DB300
366D80
CDB360
CDB360
300180
300180
CC0360
300180
300180
CC0360
CC0360
300180
CC0360
CC0360
300180
300180
CC0360
300180
300180
CDB360
CDB360
366D80
0DB300
0DB300
ENDCHAR
STARTCHAR 1ED4
ENCODING 7892
SWIDTH 780 0
DWIDTH 26 0
BBX 22 48 2 0
BITMAP
066C00
01B300
01B300
066D80
066D80
000300
006D80
006D80
003300
003300
006C00
000000
000000
006C00
006C00
01B300
066D80
066D80
018300
018300
066D80
000000
000000
01B300
01B300
066D80
0DB360
0DB360
360198
360198
CC006C
300018
300018
CC006C
CC006C
300018
CC006C
CC006C
300018
300018
CC006C
360198
360198
0DB360
0DB360
066D80
01B300
01B300
ENDCHAR
STARTCHAR 1ED5
ENCODING 7893
SWIDTH 690 0
DWIDTH 23 0
BBX 19 48 2 0
BITMAP
0DB000
066C00
066C00
0DB300
0DB300
000C00
01B300
01B300
006C00
006C00
01B000
000000
000000
01B000
01B000
066C00
0DB300
0DB300
060C00
060C00
0DB300
000000
000000
0DB300
0DB300
366D80
CDB360
CDB360
300180
300180
CC0360
300180
300180
CC0360
CC0360
300180
CC0360
CC0360
300180
300180
CC0360
300180
300180
CDB360
CDB360
366D80
0DB300
0DB300
ENDCHAR
STARTCHAR 1ED6
ENCODING 7894
SWIDTH 780 0
DWIDTH 26 0
BBX 22 45 2 0
BITMAP
066198
066198
0DB060
366D98
366D98
0C3360
0C3360
360D80
000000
000000
006C00
006C00
01B300
066D80
066D80
018300
018300
066D80
000000
000000
01B300
01B300
066D80
0DB360
0DB360
360198
360198
CC006C
300018
300018
CC006C
CC006C
300018
CC006C
CC006C
300018
300018
CC006C
360198
360198
0DB360
0DB360
066D80
01B300
01B300
ENDCHAR
STARTCHAR 1ED7
ENCODING 7895
SWIDTH 690 0
DWIDTH 23 0
BBX 19 45 2 0
BITMAP
0D8360
0D8360
366180
CDB360
CDB360
306D80
306D80
CC3300
000000
000000
01B000
01B000
066C00
0DB300
0DB300
060C00
060C00
0DB300
000000
000000
0DB300
0DB300
366D80
CDB360
CDB360
300180
300180
CC0360
300180
300180
CC0360
CC0360
300180
CC0360
CC0360
300180
300180
CC0360
300180
300180
CDB360
CDB360
366D80
0DB300
0DB300
ENDCHAR
STARTCHAR 1ED8
ENCODING 7896
SWIDTH 780 0
DWIDTH 26 0
BBX 22 42 2 -7
BITMAP
006C00
006C00
01B300
066D80
066D80
018300
018300
066D80
000000
000000
01B300
01B300
066D80
0DB360
0DB360
360198
360198
CC006C
300018
300018
CC006C
CC006C
300018
CC006C
CC006C
300018
300018
CC006C
360198
360198
0DB360
0DB360
066D80
01B300
01B300
000000
000000
006C00
003000
003000
006C00
006C00
ENDCHAR
STARTCHAR 1ED9
ENCODING 7897
SWIDTH 690 0
DWIDTH 23 0
BBX 19 42 2 -7
BITMAP
01B000
01B000
066C00
0DB300
0DB300
060C00
060C00
0DB300
000000
000000
0DB300
0DB300
366D80
CDB360
CDB360
300180
300180
CC0360
300180
300180
CC0360
CC0360
300180
CC0360
CC0360
300180
300180
CC0360
300180
300180
CDB360
CDB360
366D80
0DB300
0DB300
000000
000000
01B000
006000
006000
01B000
01B000
ENDCHAR
STARTCHAR 1EDA
ENCODING 7898
SWIDTH 930 0
DWIDTH 31 0
BBX 29 35 2 0
BITMAP
00036000
00036000
000D8000
00330000
00330000
006C0000
006C0000
01B000D8
00000060
00000060
0DB36CD8
0DB36CD8
366D9B60
CDB36CC0
CDB36CC0
30001800
30001800
CC006C00
30001800
30001800
CC006C00
CC006C00
30001800
CC006C00
CC006C00
30001800
30001800
CC006C00
30001800
30001800
CDB36C00
CDB36C00
366D9800
0DB36000
0DB36000
ENDCHAR
STARTCHAR 1EDB
ENCODING 7899
SWIDTH 840 0
DWIDTH 28 0
BBX 26 35 2 0
BITMAP
000D8000
000D8000
00330000
006C0000
006C0000
01B00000
01B00000
06600CC0
00000300
00000300
0DB36CC0
0DB36CC0
366D9B00
CDB36C00
CDB36C00
30018000
30018000
CC036000
30018000
30018000
CC036000
CC036000
30018000
CC036000
CC036000
30018000
30018000
CC036000
30018000
30018000
CDB36000
CDB36000
366D8000
0DB30000
0DB30000
ENDCHAR
STARTCHAR 1EDC
ENCODING 7900
SWIDTH 930 0
DWIDTH 31 0
BBX 29 35 2 0
BITMAP
36000000
36000000
0D800000
06600000
06600000
01B00000
01B00000
006C00D8
00000060
00000060
0DB36CD8
0DB36CD8
366D9B60
CDB36CC0
CDB36CC0
30001800
30001800
CC006C00
30001800
30001800
CC006C00
CC006C00
30001800
CC006C00
CC006C00
30001800
30001800
CC006C00
30001800
30001800
CDB36C00
CDB36C00
366D9800
0DB36000
0DB36000
ENDCHAR
STARTCHAR 1EDD
ENCODING 7901
SWIDTH 840 0
DWIDTH 28 0
BBX 26 35 2 0
BITMAP
CC000000
CC000000
36000000
0D800000
0D800000
06600000
06600000
01B00CC0
00000300
00000300
0DB36CC0
0DB36CC0
366D9B00
CDB36C00
CDB36C00
30018000
30018000
CC036000
30018000
30018000
CC036000
CC036000
30018000
CC036000
CC036000
30018000
30018000
CC036000
30018000
30018000
CDB36000
CDB36000
366D8000
0DB30000
0DB30000
ENDCHAR
STARTCHAR 1EDE
ENCODING 7902
SWIDTH 930 0
DWIDTH 31 0
BBX 29 38 2 0
BITMAP
066C0000
01B30000
01B30000
066D8000
066D8000
00030000
006D8000
006D8000
00330000
00330000
006C00D8
00000060
00000060
0DB36CD8
0DB36CD8
366D9B60
CDB36CC0
CDB36CC0
30001800
30001800
CC006C00
30001800
30001800
CC006C00
CC006C00
30001800
CC006C00
CC006C00
30001800
30001800
CC006C00
30001800
30001800
CDB36C00
CDB36C00
366D9800
0DB36000
0DB36000
ENDCHAR
STARTCHAR 1EDF
ENCODING 7903
SWIDTH 840 0
DWIDTH 28 0
BBX 26 38 2 0
BITMAP
0DB00000
066C0000
066C0000
0DB30000
0DB30000
000C0000
01B30000
01B30000
006C0000
006C0000
01B00CC0
00000300
00000300
0DB36CC0
0DB36CC0
366D9B00
CDB36C00
CDB36C00
30018000
30018000
CC036000
30018000
30018000
CC036000
CC036000
30018000
CC036000
CC036000
30018000
30018000
CC036000
30018000
30018000
CDB36000
CDB36000
366D8000
0DB30000
0DB30000
ENDCHAR
STARTCHAR 1EE0
ENCODING 7904
SWIDTH 930 0
DWIDTH 31 0
BBX 29 35 2 0
BITMAP
06619800
06619800
0DB06000
366D9800
366D9800
0C336000
0C336000
360D80D8
00000060
00000060
0DB36CD8
0DB36CD8
366D9B60
CDB36CC0
CDB36CC0
30001800
30001800
CC006C00
30001800
30001800
CC006C00
CC006C00
30001800
CC006C00
CC006C00
30001800
30001800
CC006C00
30001800
30001800
CDB36C00
CDB36C00
366D9800
0DB36000
0DB36000
ENDCHAR
STARTCHAR 1EE1
ENCODING 7905
SWIDTH 840 0
DWIDTH 28 0
BBX 26 35 2 0
BITMAP
0D836000
0D836000
36618000
CDB36000
CDB36000
306D8000
306D8000
CC330CC0
00000300
00000300
0DB36CC0
0DB36CC0
366D9B00
CDB36C00
CDB36C00
30018000
30018000
CC036000
30018000
30018000
CC036000
CC036000
30018000
CC036000
CC036000
30018000
30018000
CC036000
30018000
30018000
CDB36000
CDB36000
366D8000
0DB30000
0DB30000
ENDCHAR
STARTCHAR 1EE2
ENCODING 7906
SWIDTH 930 0
DWIDTH 31 0
BBX 29 35 2 -7
BITMAP
000000D8
00000060
00000060
0DB36CD8
0DB36CD8
366D9B60
CDB36CC0
CDB36CC0
30001800
30001800
CC006C00
30001800
30001800
CC006C00
CC006C00
30001800
CC006C00
CC006C00
30001800
30001800
CC006C00
30001800
30001800
CDB36C00
CDB36C00
366D9800
0DB36000
0DB36000
00000000
00000000
006C0000
00300000
00300000
006C0000
006C0000
ENDCHAR
STARTCHAR 1EE3
ENCODING 7907
SWIDTH 840 0
DWIDTH 28 0
BBX 26 35 2 -7
BITMAP
00000CC0
00000300
00000300
0DB36CC0
0DB36CC0
366D9B00
CDB36C00
CDB36C00
30018000
30018000
CC036000
30018000
30018000
CC036000
CC036000
30018000
CC036000
CC036000
30018000
30018000
CC036000
30018000
30018000
CDB36000
CDB36000
366D8000
0DB30000
0DB30000
00000000
00000000
01B00000
00600000
00600000
01B00000
01B00000
ENDCHAR
STARTCHAR 1EE4
ENCODING 7908
SWIDTH 780 0
DWIDTH 26 0
BBX 22 32 2 -7
BITMAP
CC006C
CC006C
300018
CC006C
CC006C
300018
300018
CC006C
300018
300018
CC006C
CC006C
300018
CC006C
CC006C
300018
300018
CC006C
360198
360198
0DB360
0DB360
066D80
01B300
01B300
000000
000000
006C00
003000
003000
006C00
006C00
ENDCHAR
STARTCHAR 1EE5
ENCODING 7909
SWIDTH 690 0
DWIDTH 23 0
BBX 19 32 2 -7
BITMAP
CC0360
CC0360
300180
CC0360
CC0360
300180
300180
CC0360
300180
300180
CC0360
CC0360
300180
CC0360
CC0360
300180
300180
CC0360
300180
300180
CDB360
CDB360
366D80
0DB300
0DB300
000000
000000
01B000
006000
006000
01B000
01B000
ENDCHAR
STARTCHAR 1EE6
ENCODING 7910
SWIDTH 780 0
DWIDTH 26 0
BBX 22 38 2 0
BITMAP
066C00
01B300
01B300
066D80
066D80
000300
006D80
006D80
003300
003300
006C00
000000
000000
CC006C
CC006C
300018
CC006C
CC006C
300018
300018
CC006C
300018
300018
CC006C
CC006C
300018
CC006C
CC006C
300018
300018
CC006C
360198
360198
0DB360
0DB360
066D80
01B300
01B300
ENDCHAR
STARTCHAR 1EE7
ENCODING 7911
SWIDTH 690 0
DWIDTH 23 0
BBX 19 38 2 0
BITMAP
0DB000
066C00
066C00
0DB300
0DB300
000C00
01B300
01B300
006C00
006C00
01B000
000000
000000
CC0360
CC0360
300180
CC0360
CC0360
300180
300180
CC0360
300180
300180
CC0360
CC0360
300180
CC0360
CC0360
300180
300180
CC0360
300180
300180
CDB360
CDB360
366D80
0DB300
0DB300
ENDCHAR
STARTCHAR 1EE8
ENCODING 7912
SWIDTH 930 0
DWIDTH 31 0
BBX 29 35 2 0
BITMAP
00036000
00036000
000D8000
00330000
00330000
006C0000
006C0000
01B000D8
00000060
00000060
CC006CD8
CC006CD8
30001B60
CC006CC0
CC006CC0
30001800
30001800
CC006C00
30001800
30001800
CC006C00
CC006C00
30001800
CC006C00
CC006C00
30001800
30001800
CC006C00
36019800
36019800
0DB36000
0DB36000
066D8000
01B30000
01B30000
ENDCHAR
STARTCHAR 1EE9
ENCODING 7913
SWIDTH 840 0
DWIDTH 28 0
BBX 26 35 2 0
BITMAP
000D8000
000D8000
00330000
006C0000
006C0000
01B00000
01B00000
06600CC0
00000300
00000300
CC036CC0
CC036CC0
30019B00
CC036C00
CC036C00
30018000
30018000
CC036000
30018000
30018000
CC036000
CC036000
30018000
CC036000
CC036000
30018000
30018000
CC036000
30018000
30018000
CDB36000
CDB36000
366D8000
0DB30000
0DB30000
ENDCHAR
STARTCHAR 1EEA
ENCODING 7914
SWIDTH 930 0
DWIDTH 31 0
BBX 29 35 2 0
BITMAP
36000000
36000000
0D800000
06600000
06600000
01B00000
01B00000
006C00D8
00000060
00000060
CC006CD8
CC006CD8
30001B60
CC006CC0
CC006CC0
30001800
30001800
CC006C00
30001800
30001800
CC006C00
CC006C00
30001800
CC006C00
CC006C00
30001800
30001800
CC006C00
36019800
36019800
0DB36000
0DB36000
066D8000
01B30000
01B30000
ENDCHAR
STARTCHAR 1EEB
ENCODING 7915
SWIDTH 840 0
DWIDTH 28 0
BBX 26 35 2 0
BITMAP
CC000000
CC000000
36000000
0D800000
0D800000
06600000
06600000
01B00CC0
00000300
00000300
CC036CC0
CC036CC0
30019B00
CC036C00
CC036C00
30018000
30018000
CC036000
30018000
30018000
CC036000
CC036000
30018000
CC036000
CC036000
30018000
30018000
CC036000
30018000
30018000
CDB36000
CDB36000
366D8000
0DB30000
0DB30000
ENDCHAR
STARTCHAR 1EEC
ENCODING 7916
SWIDTH 930 0
DWIDTH 31 0
BBX 29 38 2 0
BITMAP
066C0000
01B30000
01B30000
066D8000
066D8000
00030000
006D8000
006D8000
00330000
00330000
006C00D8
00000060
00000060
CC006CD8
CC006CD8
30001B60
CC006CC0
CC006CC0
30001800
30001800
CC006C00
30001800
30001800
CC006C00
CC006C00
30001800
CC006C00
CC006C00
30001800
30001800
CC006C00
36019800
36019800
0DB36000
0DB36000
066D8000
01B30000
01B30000
ENDCHAR
STARTCHAR 1EED
ENCODING 7917
SWIDTH 840 0
DWIDTH 28 0
BBX 26 38 2 0
BITMAP
0DB00000
066C0000
066C0000
0DB30000
0DB30000
000C0000
01B30000
01B30000
006C0000
006C0000
01B00CC0
00000300
00000300
CC036CC0
CC036CC0
30019B00
CC036C00
CC036C00
30018000
30018000
CC036000
30018000
30018000
CC036000
CC036000
30018000
CC036000
CC036000
30018000
30018000
CC036000
30018000
30018000
CDB36000
CDB36000
366D8000
0DB30000
0DB30000
ENDCHAR
STARTCHAR 1EEE
ENCODING 7918
SWIDTH 930 0
DWIDTH 31 0
BBX 29 35 2 0
BITMAP
06619800
06619800
0DB06000
366D9800
366D9800
0C336000
0C336000
360D80D8
00000060
00000060
CC006CD8
CC006CD8
30001B60
CC006CC0
CC006CC0
30001800
30001800
CC006C00
30001800
30001800
CC006C00
CC006C00
30001800
CC006C00
CC006C00
30001800
30001800
CC006C00
36019800
36019800
0DB36000
0DB36000
066D8000
01B30000
01B30000
ENDCHAR
STARTCHAR 1EEF
ENCODING 7919
SWIDTH 840 0
DWIDTH 28 0
BBX 26 35 2 0
BITMAP
0D836000
0D836000
36618000
CDB36000
CDB36000
306D8000
306D8000
CC330CC0
00000300
00000300
CC036CC0
CC036CC0
30019B00
CC036C00
CC036C00
30018000
30018000
CC036000
30018000
30018000
CC036000
CC036000
30018000
CC036000
CC036000
30018000
30018000
CC036000
30018000
30018000
CDB36000
CDB36000
366D8000
0DB30000
0DB30000
ENDCHAR
STARTCHAR 1EF0
ENCODING 7920
SWIDTH 930 0
DWIDTH 31 0
BBX 29 35 2 -7
BITMAP
000000D8
00000060
00000060
CC006CD8
CC006CD8
30001B60
CC006CC0
CC006CC0
30001800
30001800
CC006C00
30001800
30001800
CC006C00
CC006C00
30001800
CC006C00
CC006C00
30001800
30001800
CC006C00
36019800
36019800
0DB36000
0DB36000
066D8000
01B30000
01B30000
00000000
00000000
006C0000
00300000
00300000
006C0000
006C0000
ENDCHAR
STARTCHAR 1EF1
ENCODING 7921
SWIDTH 840 0
DWIDTH 28 0
BBX 26 35 2 -7
BITMAP
00000CC0
00000300
00000300
CC036CC0
CC036CC0
30019B00
CC036C00
CC036C00
30018000
30018000
CC036000
30018000
30018000
CC036000
CC036000
30018000
CC036000
CC036000
30018000
30018000
CC036000
30018000
30018000
CDB36000
CDB36000
366D8000
0DB30000
0DB30000
00000000
00000000
01B00000
00600000
00600000
01B00000
01B00000
ENDCHAR
STARTCHAR 1EF2
ENCODING 7922
SWIDTH 690 0
DWIDTH 23 0
BBX 19 35 2 0
BITMAP
CC0000
CC0000
360000
0D8000
0D8000
066000
066000
01B000
000000
000000
CC0360
CC0360
300180
CC0360
CC0360
300180
300180
CC0360
300180
300180
CC0360
CC0360
360D80
0DB300
0DB300
066C00
066C00
01B000
006000
006000
01B000
01B000
006000
01B000
01B000
ENDCHAR
STARTCHAR 1EF3
ENCODING 7923
SWIDTH 690 0
DWIDTH 23 0
BBX 19 35 2 0
BITMAP
CC0000
CC0000
360000
0D8000
0D8000
066000
066000
01B000
000000
000000
CC0360
CC0360
300180
CC0360
CC0360
300180
300180
CC0360
300180
300180
CC0360
CC0360
300180
CDB360
CDB360
366D80
366D80
0DB300
006000
006000
01B000
01B000
006000
01B000
01B000
ENDCHAR
STARTCHAR 1EF4
ENCODING 7924
SWIDTH 690 0
DWIDTH 23 0
BBX 19 32 2 -7
BITMAP
CC0360
CC0360
300180
CC0360
CC0360
300180
300180
CC0360
300180
300180
CC0360
CC0360
360D80
0DB300
0DB300
066C00
066C00
01B000
006000
006000
01B000
01B000
006000
01B000
01B000
000000
000000
01B000
006000
006000
01B000
01B000
ENDCHAR
STARTCHAR 1EF5
ENCODING 7925
SWIDTH 690 0
DWIDTH 23 0
BBX 19 32 2 -7
BITMAP
CC0360
CC0360
300180
CC0360
CC0360
300180
300180
CC0360
300180
300180
CC0360
CC0360
300180
CDB360
CDB360
366D80
366D80
0DB300
006000
006000
01B000
01B000
006000
01B000
01B000
000000
000000
01B000
006000
006000
01B000
01B000
ENDCHAR
STARTCHAR 1EF6
ENCODING 7926
SWIDTH 690 0
DWIDTH 23 0
BBX 19 38 2 0
BITMAP
0DB000
066C00
066C00
0DB300
0DB300
000C00
01B300
01B300
006C00
006C00
01B000
000000
000000
CC0360
CC0360
300180
CC0360
CC0360
300180
300180
CC0360
300180
300180
CC0360
CC0360
360D80
0DB300
0DB300
066C00
066C00
01B000
006000
006000
01B000
01B000
006000
01B000
01B000
ENDCHAR
STARTCHAR 1EF7
ENCODING 7927
SWIDTH 690 0
DWIDTH 23 0
BBX 19 38 2 0
BITMAP
0DB000
066C00
066C00
0DB300
0DB300
000C00
01B300
01B300
006C00
006C00
01B000
000000
000000
CC0360
CC0360
300180
CC0360
CC0360
300180
300180
CC0360
300180
300180
CC0360
CC0360
300180
CDB360
CDB360
366D80
366D80
0DB300
006000
006000
01B000
01B000
006000
01B000
01B000
ENDCHAR
STARTCHAR 1EF8
ENCODING 7928
SWIDTH 690 0
DWIDTH 23 0
BBX 19 35 2 0
BITMAP
0D8360
0D8360
366180
CDB360
CDB360
306D80
306D80
CC3300
000000
000000
CC0360
CC0360
300180
CC0360
CC0360
300180
300180
CC0360
300180
300180
CC0360
CC0360
360D80
0DB300
0DB300
066C00
066C00
01B000
006000
006000
01B000
01B000
006000
01B000
01B000
ENDCHAR
STARTCHAR 1EF9
ENCODING 7929
SWIDTH 690 0
DWIDTH 23 0
BBX 19 35 2 0
BITMAP
0D8360
0D8360
366180
CDB360
CDB360
306D80
306D80
CC3300
000000
000000
CC0360
CC0360
300180
CC0360
CC0360
300180
300180
CC0360
300180
300180
CC0360
CC0360
300180
CDB360
CDB360
366D80
366D80
0DB300
006000
006000
01B000
01B000
006000
01B000
01B000
ENDCHAR
STARTCHAR 2013
ENCODING 8211
SWIDTH 690 0
DWIDTH 23 0
BBX 22 5 1 10
BITMAP
DB36CC
DB36CC
66D9B0
DB36CC
DB36CC
ENDCHAR
STARTCHAR 2014
ENCODING 8212
SWIDTH 990 0
DWIDTH 33 0
BBX 32 5 1 10
BITMAP
DB36CDB3
DB36CDB3
66D9B66C
DB36CDB3
DB36CDB3
ENDCHAR
STARTCHAR 2018
ENCODING 8216
SWIDTH 180 0
DWIDTH 6 0
BBX 5 8 1 20
BITMAP
18
60
60
D8
D8
60
D8
D8
ENDCHAR
STARTCHAR 2019
ENCODING 8217
SWIDTH 180 0
DWIDTH 6 0
BBX 5 8 1 20
BITMAP
D8
60
60
D8
D8
60
C0
C0
ENDCHAR
STARTCHAR 201A
ENCODING 8218
SWIDTH 180 0
DWIDTH 6 0
BBX 5 8 1 -3
BITMAP
D8
D8
60
D8
D8
60
60
C0
ENDCHAR
STARTCHAR 201C
ENCODING 8220
SWIDTH 450 0
DWIDTH 15 0
BBX 13 8 1 20
BITMAP
1818
6030
6030
D8D8
D8D8
6030
D8D8
D8D8
ENDCHAR
STARTCHAR 201D
ENCODING 8221
SWIDTH 450 0
DWIDTH 15 0
BBX 13 8 1 20
BITMAP
D8D8
6030
6030
D8D8
D8D8
6030
C0C0
C0C0
ENDCHAR
STARTCHAR 201E
ENCODING 8222
SWIDTH 450 0
DWIDTH 15 0
BBX 13 8 1 -3
BITMAP
D8D8
D8D8
6030
D8D8
D8D8
6030
6030
C0C0
ENDCHAR
STARTCHAR 2020
ENCODING 8224
SWIDTH 480 0
DWIDTH 16 0
BBX 12 25 2 0
BITMAP
0D80
0D80
0600
CDB0
CDB0
3660
3660
CDB0
0600
0600
0D80
0D80
0600
0D80
0D80
0600
0600
0D80
0600
0600
0D80
0D80
0600
0D80
0D80
ENDCHAR
STARTCHAR 2021
ENCODING 8225
SWIDTH 480 0
DWIDTH 16 0
BBX 12 25 2 0
BITMAP
0D80
0D80
0600
CDB0
CDB0
3660
3660
CDB0
0600
0600
0D80
0D80
0600
CDB0
CDB0
3660
3660
CDB0
0600
0600
0D80
0D80
0600
0D80
0D80
ENDCHAR
STARTCHAR 2022
ENCODING 8226
SWIDTH 390 0
DWIDTH 13 0
BBX 12 11 1 7
BITMAP
1B00
66C0
66C0
DB30
DB30
66C0
DB30
DB30
66C0
66C0
1B00
ENDCHAR
STARTCHAR 2026
ENCODING 8230
SWIDTH 600 0
DWIDTH 20 0
BBX 18 5 1 0
BITMAP
DB36C0
DB36C0
60C180
DB36C0
DB36C0
ENDCHAR
STARTCHAR 2030
ENCODING 8240
SWIDTH 1770 0
DWIDTH 59 0
BBX 55 25 2 0
BITMAP
0DB00CC0000000
0DB00CC0000000
366C0300000000
CDB30CC0000000
CDB30CC0000000
300C1B00000000
300C1B00000000
CC330C00000000
300C1B00000000
300C1B00000000
CDB36C1B300DB0
CDB36C1B300DB0
366C1866D8364C
0DB06CDB36CDB2
0DB06CDB36CDB2
0001986018300C
0001986018300C
000060D836CC32
0001986018300C
0001986018300C
000360DB36CDB2
000360DB36CDB2
00018066D8364C
0003601B300DB0
0003601B300DB0
ENDCHAR
STARTCHAR 2039
ENCODING 8249
SWIDTH 540 0
DWIDTH 18 0
BBX 13 19 1 3
BITMAP
00D8
00D8
0330
0330
06C0
1B00
1B00
6600
6600
D800
6600
6600
1B00
1B00
06C0
0330
0330
00D8
00D8
ENDCHAR
STARTCHAR 203A
ENCODING 8250
SWIDTH 540 0
DWIDTH 18 0
BBX 14 19 4 3
BITMAP
D800
D800
3600
3600
1980
06C0
06C0
01B0
01B0
00CC
01B0
01B0
06C0
06C0
1980
3600
3600
D800
D800
ENDCHAR
STARTCHAR 2044
ENCODING 8260
SWIDTH 390 0
DWIDTH 13 0
BBX 12 25 1 0
BITMAP
0330
0330
00C0
0330
0330
06C0
06C0
0300
06C0
06C0
1B00
1B00
0600
1B00
1B00
6600
6600
1800
6600
6600
D800
D800
6000
D800
D800
ENDCHAR
STARTCHAR 20AC
ENCODING 8364
SWIDTH 780 0
DWIDTH 26 0
BBX 22 35 2 -3
BITMAP
00336C
00336C
006D98
006D98
01B36C
066000
066000
0D8000
0D8000
060000
CDB360
CDB360
366D80
366D80
CDB360
060000
060000
0D8000
0D8000
060000
CDB360
CDB360
366D80
366D80
CDB360
060000
060000
0D8000
0D8000
066000
01B36C
01B36C
006D98
006D98
00336C
ENDCHAR
STARTCHAR 2212
ENCODING 8722
SWIDTH 690 0
DWIDTH 23 0
BBX 19 5 2 10
BITMAP
CDB360
CDB360
366D80
CDB360
CDB360
ENDCHAR
STARTCHAR E000
ENCODING 57344
SWIDTH 690 0
DWIDTH 23 0
BBX 19 25 2 0
BITMAP
CDB360
CDB360
366D80
CDB360
CDB360
300180
300180
CC0360
300180
300180
CC0360
CC0360
300180
CDB360
CDB360
366D80
366D80
CDB360
300180
300180
CC0360
CC0360
300180
CC0360
CC0360
ENDCHAR
STARTCHAR E017
ENCODING 57367
SWIDTH 1080 0
DWIDTH 36 0
BBX 32 25 2 0
BITMAP
CDB36CDB
CDB36CDB
366D9B66
CDB36CDB
CDB36CDB
30018000
30018000
CC036000
30018000
30018000
CC036CD8
CC036CD8
30019B60
CDB36CD8
CDB36CD8
366D8000
366D8000
CDB36000
30018000
30018000
CC036CDB
CC036CDB
30019B66
CC036CDB
CC036CDB
ENDCHAR
STARTCHAR E018
ENCODING 57368
SWIDTH 690 0
DWIDTH 23 0
BBX 19 25 2 0
BITMAP
CDB360
CDB360
366D80
CDB360
CDB360
300180
300180
CC0360
300D80
300D80
CDB300
CDB300
366C00
CDB300
CDB300
300D80
300D80
CC0360
300180
300180
CDB360
CDB360
366D80
CDB360
CDB360
ENDCHAR
STARTCHAR E019
ENCODING 57369
SWIDTH 780 0
DWIDTH 26 0
BBX 22 25 2 0
BITMAP
CDB36C
CDB36C
366D98
CDB36C
CDB36C
300018
300018
CC006C
300018
300018
CC006C
CC006C
300000
CC0000
CC0000
300000
300000
CC006C
300018
300018
CDB36C
CDB36C
366D98
CDB36C
CDB36C
ENDCHAR
STARTCHAR E01E
ENCODING 57374
SWIDTH 780 0
DWIDTH 26 0
BBX 22 25 2 0
BITMAP
CDB360
CDB360
366D98
CDB36C
CDB36C
300018
300018
CC006C
300018
300018
CC006C
CC006C
300018
CC006C
CC006C
300018
300018
CC006C
300018
300018
CDB36C
CDB36C
366D98
CDB360
CDB360
ENDCHAR
STARTCHAR E01F
ENCODING 57375
SWIDTH 840 0
DWIDTH 28 0
BBX 25 25 1 0
BITMAP
1B36CC00
1B36CC00
06D9B600
1B36CD80
1B36CD80
06000600
06000600
1B000D80
06000600
06000600
DB300D80
DB300D80
66C00600
DB300D80
DB300D80
06000600
06000600
1B000D80
06000600
06000600
1B36CD80
1B36CD80
06D9B600
1B36CC00
1B36CC00
ENDCHAR
STARTCHAR E021
ENCODING 57377
SWIDTH 840 0
DWIDTH 28 0
BBX 25 25 1 0
BITMAP
1B36CC00
1B36CC00
06D9B600
1B36CD80
1B36CD80
06000600
06000600
1B000D80
06000600
06000600
DB300D80
DB300D80
66C00600
DB300D80
DB300D80
06000600
06000600
1B000D80
06000600
06000600
1B36CD80
1B36CD80
06D9B600
1B36CC00
1B36CC00
ENDCHAR
STARTCHAR E022
ENCODING 57378
SWIDTH 690 0
DWIDTH 23 0
BBX 19 25 2 0
BITMAP
CDB360
CDB360
366D80
CDB360
CDB360
300000
300000
CC0000
300000
300000
CDB300
CDB300
366C00
CDB300
CDB300
300000
300000
CC0000
300000
300000
CDB360
CDB360
366D80
CDB360
CDB360
ENDCHAR
STARTCHAR E033
ENCODING 57395
SWIDTH 690 0
DWIDTH 23 0
BBX 19 25 2 0
BITMAP
CDB360
CDB360
366D80
CDB360
CDB360
300000
300000
CC0000
300000
300000
CDB300
CDB300
366C00
CDB300
CDB300
300000
300000
CC0000
300000
300000
CC0000
CC0000
300000
CC0000
CC0000
ENDCHAR
STARTCHAR E034
ENCODING 57396
SWIDTH 780 0
DWIDTH 26 0
BBX 22 25 2 0
BITMAP
CDB36C
CDB36C
366D98
CDB36C
CDB36C
300000
300000
CC0000
300000
300000
CC336C
CC336C
300D98
CC336C
CC336C
300018
300018
CC006C
300018
300018
CDB36C
CDB36C
366D98
CDB36C
CDB36C
ENDCHAR
STARTCHAR E038
ENCODING 57400
SWIDTH 600 0
DWIDTH 20 0
BBX 16 25 2 0
BITMAP
CDB3
CDB3
366C
CDB3
CDB3
000C
000C
0033
000C
000C
0033
0033
000C
CC33
CC33
300C
300C
CC33
300C
300C
CDB3
CDB3
366C
CDB0
CDB0
ENDCHAR
STARTCHAR E039
ENCODING 57401
SWIDTH 690 0
DWIDTH 23 0
BBX 19 25 2 0
BITMAP
CC0360
CC0360
300180
CC0360
CC0360
300D80
300D80
CC3300
306C00
306C00
CDB360
CDB360
366D80
CDB360
CDB360
300180
300180
CC0360
300180
300180
CC0360
CC0360
300180
CC0360
CC0360
ENDCHAR
STARTCHAR E03B
ENCODING 57403
SWIDTH 690 0
DWIDTH 23 0
BBX 19 25 2 0
BITMAP
CC0000
CC0000
300000
CC0000
CC0000
300000
300000
CC0000
300000
300000
CC0000
CC0000
300000
CC0000
CC0000
300000
300000
CC0000
300000
300000
CDB360
CDB360
366D80
CDB360
CDB360
ENDCHAR
STARTCHAR E040
ENCODING 57408
SWIDTH 1080 0
DWIDTH 36 0
BBX 32 25 2 0
BITMAP
CDB36CDB
CDB36CDB
366D9B66
CDB36CDB
CDB36CDB
30018006
30018006
CC03601B
30018006
30018006
CC03601B
CC03601B
30018006
CC03601B
CC03601B
30018006
30018006
CC03601B
30018006
30018006
CC03601B
CC03601B
30018006
CC03601B
CC03601B
ENDCHAR
STARTCHAR E041
ENCODING 57409
SWIDTH 780 0
DWIDTH 26 0
BBX 22 25 2 0
BITMAP
CDB36C
CDB36C
366D98
CDB36C
CDB36C
300018
300018
CC006C
300018
300018
CC006C
CC006C
300018
CC006C
CC006C
300018
300018
CC006C
300018
300018
CC006C
CC006C
300018
CC006C
CC006C
ENDCHAR
STARTCHAR E045
ENCODING 57413
SWIDTH 780 0
DWIDTH 26 0
BBX 22 32 2 -7
BITMAP
CDB36C
CDB36C
366D98
CDB36C
CDB36C
300018
300018
CC006C
300018
300018
CC006C
CC006C
300018
CC006C
CC006C
300018
300018
CC006C
300018
300018
CC006C
CC006C
300018
CC006C
CC006C
000018
000018
00036C
000198
000198
000360
000360
ENDCHAR
STARTCHAR E047
ENCODING 57415
SWIDTH 780 0
DWIDTH 26 0
BBX 22 25 2 0
BITMAP
CDB36C
CDB36C
366D98
CDB36C
CDB36C
300018
300018
CC006C
300018
300018
CC006C
CC006C
300018
CC006C
CC006C
300018
300018
CC006C
300018
300018
CDB36C
CDB36C
366D98
CDB36C
CDB36C
ENDCHAR
STARTCHAR E054
ENCODING 57428
SWIDTH 930 0
DWIDTH 31 0
BBX 29 28 2 0
BITMAP
000000D8
00000060
00000060
CDB36CD8
CDB36CD8
366D9B60
CDB36CC0
CDB36CC0
30001800
30001800
CC006C00
30001800
30001800
CC006C00
CC006C00
30001800
CC006C00
CC006C00
30001800
30001800
CC006C00
30001800
30001800
CDB36C00
CDB36C00
366D9800
CDB36C00
CDB36C00
ENDCHAR
STARTCHAR E05E
ENCODING 57438
SWIDTH 1200 0
DWIDTH 40 0
BBX 36 25 2 0
BITMAP
CDB36CDB30
CDB36CDB30
366D9B66C0
CDB36CDB30
CDB36CDB30
3000180000
3000180000
CC006C0000
3000180000
3000180000
CC006CDB00
CC006CDB00
30001B6600
CC006CDB00
CC006CDB00
3000180000
3000180000
CC006C0000
3000180000
3000180000
CDB36CDB30
CDB36CDB30
366D9B66C0
CDB36CDB30
CDB36CDB30
ENDCHAR
STARTCHAR E05F
ENCODING 57439
SWIDTH 690 0
DWIDTH 23 0
BBX 19 25 2 0
BITMAP
CDB360
CDB360
366D80
CDB360
CDB360
300180
300180
CC0360
300180
300180
CC0360
CC0360
300180
CC0360
CC0360
300180
300180
CDB360
366D80
366D80
CDB360
CDB360
300000
CC0000
CC0000
ENDCHAR
STARTCHAR E060
ENCODING 57440
SWIDTH 690 0
DWIDTH 23 0
BBX 19 25 2 0
BITMAP
CC0000
CC0000
300000
CDB360
CDB360
366D80
366D80
CDB360
300180
300180
CC0360
CC0360
300180
CC0360
CC0360
300180
300180
CDB360
366D80
366D80
CDB360
CDB360
300000
CC0000
CC0000
ENDCHAR
STARTCHAR E061
ENCODING 57441
SWIDTH 780 0
DWIDTH 26 0
BBX 22 28 2 -3
BITMAP
CDB36C
CDB36C
366D98
CDB36C
CDB36C
300018
300018
CC006C
300018
300018
CC006C
CC006C
300018
CC006C
CC006C
300018
300018
CC336C
300C18
300C18
CDB36C
CDB36C
366D98
CDB36C
CDB36C
000C00
000C00
003300
ENDCHAR
STARTCHAR E062
ENCODING 57442
SWIDTH 690 0
DWIDTH 23 0
BBX 19 25 2 0
BITMAP
CDB360
CDB360
366D80
CDB360
CDB360
300180
300180
CC0360
300180
300180
CC0360
CC0360
300180
CC0360
CC0360
300180
300180
CDB360
366D80
366D80
CDB300
CDB300
300D80
CC0360
CC0360
ENDCHAR
STARTCHAR E066
ENCODING 57446
SWIDTH 690 0
DWIDTH 23 0
BBX 19 25 2 0
BITMAP
CDB360
CDB360
366D80
CDB360
CDB360
300180
300180
CC0360
300000
300000
CDB300
CDB300
366D80
0DB360
0DB360
000180
000180
CC0360
300180
300180
CDB360
CDB360
366D80
CDB360
CDB360
ENDCHAR
STARTCHAR E06C
ENCODING 57452
SWIDTH 780 0
DWIDTH 26 0
BBX 22 25 2 0
BITMAP
CC006C
CC006C
300018
CC006C
CC006C
300018
300018
CC006C
300018
300018
CC006C
CC006C
300018
CC006C
CC006C
300018
300018
CC006C
300018
300018
CDB36C
CDB36C
366D98
CDB36C
CDB36C
ENDCHAR
STARTCHAR E078
ENCODING 57464
SWIDTH 930 0
DWIDTH 31 0
BBX 29 28 2 0
BITMAP
000000D8
00000060
00000060
CC006CD8
CC006CD8
30001B60
CC006CC0
CC006CC0
30001800
30001800
CC006C00
30001800
30001800
CC006C00
CC006C00
30001800
CC006C00
CC006C00
30001800
30001800
CC006C00
30001800
30001800
CDB36C00
CDB36C00
366D9800
CDB36C00
CDB36C00
ENDCHAR
STARTCHAR E083
ENCODING 57475
SWIDTH 1080 0
DWIDTH 36 0
BBX 32 25 2 0
BITMAP
CC03601B
CC03601B
30018006
CC03601B
CC03601B
30018006
30018006
CC03601B
30018006
30018006
CC03601B
CC03601B
30018006
CC03601B
CC03601B
30018006
30018006
CC03601B
30018006
30018006
CDB36CDB
CDB36CDB
366D9B66
CDB36CDB
CDB36CDB
ENDCHAR
STARTCHAR E088
ENCODING 57480
SWIDTH 780 0
DWIDTH 26 0
BBX 22 25 2 0
BITMAP
CC006C
CC006C
300018
CC006C
CC006C
300018
300018
CC006C
360198
360198
0DB360
0DB360
066D80
0DB360
0DB360
360198
360198
CC006C
300018
300018
CC006C
CC006C
300018
CC006C
CC006C
ENDCHAR
STARTCHAR E089
ENCODING 57481
SWIDTH 690 0
DWIDTH 23 0
BBX 19 25 2 0
BITMAP
CC0360
CC0360
300180
CC0360
CC0360
300180
300180
CC0360
300180
300180
CC0360
CC0360
300180
CDB360
CDB360
366D80
366D80
CDB360
006000
006000
01B000
01B000
006000
01B000
01B000
ENDCHAR
STARTCHAR E091
ENCODING 57489
SWIDTH 690 0
DWIDTH 23 0
BBX 19 25 2 0
BITMAP
CDB360
CDB360
366D80
CDB360
CDB360
000180
000180
000360
000180
000180
CDB360
CDB360
366D80
CDB360
CDB360
300000
300000
CC0000
300000
300000
CDB360
CDB360
366D80
CDB360
CDB360
ENDCHAR
STARTCHAR E095
ENCODING 57493
SWIDTH 780 0
DWIDTH 26 0
BBX 22 25 2 0
BITMAP
0DB360
0DB360
366D98
CDB36C
CDB36C
300018
300018
CC006C
000018
000018
0DB36C
0DB36C
366D98
CDB36C
CDB36C
300018
300018
CC006C
300018
300018
CDB36C
CDB36C
366D98
0DB360
0DB360
ENDCHAR
STARTCHAR E0AC
ENCODING 57516
SWIDTH 1290 0
DWIDTH 43 0
BBX 39 25 2 0
BITMAP
0DB36CDB30
0DB36CDB30
366D9B66D8
CDB36CDB36
CDB36CDB36
3000180018
3000180018
CC006C0036
0000180018
0000180018
0DB36CDB36
0DB36CDB36
366D9B66D8
CDB36CDB36
CDB36CDB36
3000180000
3000180000
CC006C0000
3000180000
3000180000
CDB36CDB36
CDB36CDB36
366D9B66D8
0DB36CDB36
0DB36CDB36
ENDCHAR
STARTCHAR E0AD
ENCODING 57517
SWIDTH 690 0
DWIDTH 23 0
BBX 19 25 2 0
BITMAP
01B360
01B360
066D80
0DB360
0DB360
360000
360000
CC0000
300000
300000
CC0000
CC0000
300000
CC0000
CC0000
300000
300000
CC0000
360000
360000
0DB360
0DB360
066D80
01B360
01B360
ENDCHAR
STARTCHAR E0B2
ENCODING 57522
SWIDTH 780 0
DWIDTH 26 0
BBX 22 25 2 0
BITMAP
01B300
01B300
066D80
0DB360
0DB360
360198
360198
CC006C
300018
300018
CDB36C
CDB36C
366D98
CDB36C
CDB36C
300000
300000
CC0000
360000
360000
0DB36C
0DB36C
066D98
01B36C
01B36C
ENDCHAR
STARTCHAR E0C3
ENCODING 57539
SWIDTH 600 0
DWIDTH 20 0
BBX 16 25 2 0
BITMAP
0033
0033
000C
0033
0033
000C
000C
0033
000C
000C
0033
0033
000C
0033
0033
000C
000C
0033
006C
006C
CDB0
CDB0
3660
CD80
CD80
ENDCHAR
STARTCHAR E0C4
ENCODING 57540
SWIDTH 1290 0
DWIDTH 43 0
BBX 39 25 2 0
BITMAP
01B300DB00
01B300DB00
066D8366C0
0DB36CDB30
0DB36CDB30
36019B00D8
36019B00D8
CC006C0036
3000180018
3000180018
CC006C0036
CC006C0036
3000180018
CC006C0036
CC006C0036
3000180018
3000180018
CC006C0036
3000180018
3000180018
CC006C0036
CC006C0036
3000180018
CC006C0036
CC006C0036
ENDCHAR
STARTCHAR E0C5
ENCODING 57541
SWIDTH 780 0
DWIDTH 26 0
BBX 22 25 2 0
BITMAP
01B300
01B300
066D80
0DB360
0DB360
360198
360198
CC006C
300018
300018
CC006C
CC006C
300018
CC006C
CC006C
300018
300018
CC006C
300018
300018
CC006C
CC006C
300018
CC006C
CC006C
ENDCHAR
STARTCHAR E0C9
ENCODING 57545
SWIDTH 780 0
DWIDTH 26 0
BBX 22 32 2 -7
BITMAP
01B300
01B300
066D80
0DB360
0DB360
360198
360198
CC006C
300018
300018
CC006C
CC006C
300018
CC006C
CC006C
300018
300018
CC006C
300018
300018
CC006C
CC006C
300018
CC006C
CC006C
000018
000018
00036C
000198
000198
000360
000360
ENDCHAR
STARTCHAR E0CB
ENCODING 57547
SWIDTH 1290 0
DWIDTH 43 0
BBX 39 25 2 0
BITMAP
01B300DB00
01B300DB00
066D8366C0
0DB36CDB30
0DB36CDB30
36019B00D8
36019B00D8
CC006C0036
3000180018
3000180018
CC006CDB36
CC006CDB36
30001B66D8
CC006CDB36
CC006CDB36
3000180000
3000180000
CC006C0000
36019B0000
36019B0000
0DB36CDB36
0DB36CDB36
066D8366D8
01B300DB36
01B300DB36
ENDCHAR
STARTCHAR E0CC
ENCODING 57548
SWIDTH 600 0
DWIDTH 20 0
BBX 16 25 2 0
BITMAP
01B3
01B3
066C
0DB3
0DB3
3600
3600
CC00
3000
3000
CC00
CC00
3000
CC00
CC00
3000
3000
CC00
3000
3000
CC00
CC00
3000
CC00
CC00
ENDCHAR
STARTCHAR E0D0
ENCODING 57552
SWIDTH 690 0
DWIDTH 23 0
BBX 19 25 2 0
BITMAP
0DB360
0DB360
366D80
CDB360
CDB360
300000
300000
CC0000
300000
300000
CDB300
CDB300
366D80
0DB360
0DB360
000180
000180
000360
000180
000180
CDB360
CDB360
366D80
CDB300
CDB300
ENDCHAR
STARTCHAR E0D5
ENCODING 57557
SWIDTH 1290 0
DWIDTH 43 0
BBX 39 25 2 0
BITMAP
CC006C0036
CC006C0036
3000180018
CC006C0036
CC006C0036
3000180018
3000180018
CC006C0036
3000180018
3000180018
CC006C0036
CC006C0036
3000180018
CC006C0036
CC006C0036
3000180018
3000180018
CC006C0036
36019B00D8
36019B00D8
0DB36CDB30
0DB36CDB30
066D8366C0
01B300DB00
01B300DB00
ENDCHAR
STARTCHAR E0DA
ENCODING 57562
SWIDTH 690 0
DWIDTH 23 0
BBX 19 25 2 0
BITMAP
CC0360
CC0360
300180
CC0360
CC0360
300180
300180
CC0360
360180
360180
0DB360
0DB360
066D80
01B360
01B360
000180
000180
000360
000180
000180
CDB360
CDB360
366D80
CDB300
CDB300
ENDCHAR
STARTCHAR E0E2
ENCODING 57570
SWIDTH 690 0
DWIDTH 23 0
BBX 19 25 2 0
BITMAP
003360
003360
006D80
01B360
01B360
066180
066180
0D8360
360180
360180
CC0360
CC0360
300180
CDB360
CDB360
366D80
366D80
CDB360
300180
300180
CC0360
CC0360
300180
CC0360
CC0360
ENDCHAR
STARTCHAR E0FA
ENCODING 57594
SWIDTH 690 0
DWIDTH 23 0
BBX 19 25 2 0
BITMAP
CDB360
CDB360
366D80
CDB360
CDB360
300180
300180
CC0360
300D80
300D80
CDB360
CDB360
366D80
CDB360
CDB360
300180
300180
CC0360
300D80
300D80
CDB300
CDB300
366C00
CDB000
CDB000
ENDCHAR
STARTCHAR E0FB
ENCODING 57595
SWIDTH 690 0
DWIDTH 23 0
BBX 19 25 2 0
BITMAP
003360
003360
006D80
01B360
01B360
066000
066000
0D8000
360000
360000
CC0000
CC0000
300000
CC0000
CC0000
300000
300000
CC0000
300000
300000
CDB360
CDB360
366D80
CDB360
CDB360
ENDCHAR
STARTCHAR E100
ENCODING 57600
SWIDTH 780 0
DWIDTH 26 0
BBX 22 25 2 0
BITMAP
CDB000
CDB000
366C00
CDB300
CDB300
300D80
300D80
CC0360
300198
300198
CC006C
CC006C
300018
CC006C
CC006C
300018
300018
CC006C
300018
300018
CDB36C
CDB36C
366D98
CDB36C
CDB36C
ENDCHAR
STARTCHAR E101
ENCODING 57601
SWIDTH 840 0
DWIDTH 28 0
BBX 25 25 1 0
BITMAP
1B360000
1B360000
06D98000
1B36C000
1B36C000
0601B000
0601B000
1B00CC00
06003600
06003600
DB300D80
DB300D80
66C00600
DB300D80
DB300D80
06000600
06000600
1B000D80
06000600
06000600
1B36CD80
1B36CD80
06D9B600
1B36CD80
1B36CD80
ENDCHAR
STARTCHAR E103
ENCODING 57603
SWIDTH 840 0
DWIDTH 28 0
BBX 25 25 1 0
BITMAP
1B360000
1B360000
06D98000
1B36C000
1B36C000
0601B000
0601B000
1B00CC00
06003600
06003600
DB300D80
DB300D80
66C00600
DB300D80
DB300D80
06000600
06000600
1B000D80
06000600
06000600
1B36CD80
1B36CD80
06D9B600
1B36CD80
1B36CD80
ENDCHAR
STARTCHAR E104
ENCODING 57604
SWIDTH 690 0
DWIDTH 23 0
BBX 19 25 2 0
BITMAP
CDB360
CDB360
366D80
CDB360
CDB360
300000
300000
CC0000
300000
300000
CDB300
CDB300
366C00
CDB300
CDB300
300000
300000
CC0000
360000
360000
0DB360
0DB360
066D80
01B360
01B360
ENDCHAR
STARTCHAR E115
ENCODING 57621
SWIDTH 780 0
DWIDTH 26 0
BBX 22 25 2 0
BITMAP
01B36C
01B36C
066D98
0DB36C
0DB36C
360000
360000
CC0000
300000
300000
CC336C
CC336C
300D98
CC336C
CC336C
300018
300018
CC006C
300018
300018
CDB36C
CDB36C
366D98
CDB36C
CDB36C
ENDCHAR
STARTCHAR E119
ENCODING 57625
SWIDTH 690 0
DWIDTH 23 0
BBX 19 25 2 0
BITMAP
CC0000
CC0000
300000
CC0000
CC0000
300000
300000
CC0000
300000
300000
CC0000
CC0000
300000
CC0000
CC0000
300000
300000
CC0000
360000
360000
0DB360
0DB360
066D80
01B360
01B360
ENDCHAR
STARTCHAR E11E
ENCODING 57630
SWIDTH 1080 0
DWIDTH 36 0
BBX 32 25 2 0
BITMAP
CD836C00
CD836C00
36619B00
CDB36CC0
CDB36CC0
306D8360
306D8360
CC3360D8
300D8066
300D8066
CC03601B
CC03601B
30018006
CC03601B
CC03601B
30018006
30018006
CC03601B
30018006
30018006
CC03601B
CC03601B
30018006
CC03601B
CC03601B
ENDCHAR
STARTCHAR E11F
ENCODING 57631
SWIDTH 690 0
DWIDTH 23 0
BBX 19 25 2 0
BITMAP
CD8000
CD8000
366000
CDB000
CDB000
306C00
306C00
CC3300
300D80
300D80
CC0360
CC0360
300180
CC0360
CC0360
300180
300180
CC0360
300180
300180
CC0360
CC0360
300180
CC0360
CC0360
ENDCHAR
STARTCHAR E123
ENCODING 57635
SWIDTH 690 0
DWIDTH 23 0
BBX 19 32 2 -7
BITMAP
CD8000
CD8000
366000
CDB000
CDB000
306C00
306C00
CC3300
300D80
300D80
CC0360
CC0360
300180
CC0360
CC0360
300180
300180
CC0360
300180
300180
CC0360
CC0360
300180
CC0360
CC0360
000180
000180
003360
000D80
000D80
003300
003300
ENDCHAR
STARTCHAR E125
ENCODING 57637
SWIDTH 780 0
DWIDTH 26 0
BBX 22 25 2 0
BITMAP
CDB300
CDB300
366D80
CDB360
CDB360
300198
300198
CC006C
300018
300018
CC006C
CC006C
300018
CC006C
CC006C
300018
300018
CC006C
360018
360018
0DB36C
0DB36C
066D98
01B36C
01B36C
ENDCHAR
STARTCHAR E136
ENCODING 57654
SWIDTH 690 0
DWIDTH 23 0
BBX 19 25 2 0
BITMAP
CDB360
CDB360
366D80
CDB360
CDB360
300180
300180
CC0360
300180
300180
CC0360
CC0360
300180
CC0360
CC0360
300D80
300D80
CDB300
366C00
366C00
CDB000
CDB000
300000
CC0000
CC0000
ENDCHAR
STARTCHAR E137
ENCODING 57655
SWIDTH 690 0
DWIDTH 23 0
BBX 19 25 2 0
BITMAP
CC0000
CC0000
300000
CDB360
CDB360
366D80
366D80
CDB360
300180
300180
CC0360
CC0360
300180
CC0360
CC0360
300D80
300D80
CDB300
366C00
366C00
CDB000
CDB000
300000
CC0000
CC0000
ENDCHAR
STARTCHAR E138
ENCODING 57656
SWIDTH 780 0
DWIDTH 26 0
BBX 22 28 2 -3
BITMAP
CDB300
CDB300
366D80
CDB360
CDB360
300198
300198
CC006C
300018
300018
CC006C
CC006C
300018
CC006C
CC006C
300018
300018
CC336C
360C18
360C18
0DB36C
0DB36C
066D98
01B36C
01B36C
000C00
000C00
003300
ENDCHAR
STARTCHAR E139
ENCODING 57657
SWIDTH 690 0
DWIDTH 23 0
BBX 19 25 2 0
BITMAP
CDB360
CDB360
366D80
CDB360
CDB360
300180
300180
CC0360
300180
300180
CC0360
CC0360
300180
CC0360
CC0360
300D80
300D80
CDB300
366C00
366C00
CDB300
CDB300
300D80
CC0360
CC0360
ENDCHAR
STARTCHAR E13D
ENCODING 57661
SWIDTH 690 0
DWIDTH 23 0
BBX 19 25 2 0
BITMAP
01B360
01B360
066D80
0DB360
0DB360
360000
360000
CC0000
300000
300000
CDB360
CDB360
366D80
CDB360
CDB360
000180
000180
000360
000D80
000D80
CDB300
CDB300
366C00
CDB000
CDB000
ENDCHAR
STARTCHAR E141
ENCODING 57665
SWIDTH 690 0
DWIDTH 23 0
BBX 19 25 2 0
BITMAP
CC0360
CC0360
300180
CC0360
CC0360
300180
300180
CC0360
300180
300180
CC0360
CC0360
300180
CC0360
CC0360
300D80
300D80
CC3300
306C00
306C00
CDB000
CDB000
366000
CD8000
CD8000
ENDCHAR
STARTCHAR E142
ENCODING 57666
SWIDTH 1080 0
DWIDTH 36 0
BBX 32 25 2 0
BITMAP
CC03601B
CC03601B
30018006
CC03601B
CC03601B
30018006
30018006
CC03601B
30018006
30018006
CC03601B
CC03601B
30018006
CC03601B
CC03601B
300D8066
300D8066
CC3360D8
306D8360
306D8360
CDB36CC0
CDB36CC0
36619B00
CD836C00
CD836C00
ENDCHAR
STARTCHAR E147
ENCODING 57671
SWIDTH 300 0
DWIDTH 10 0
BBX 6 32 2 0
BITMAP
CC
CC
30
30
CC
00
00
CC
CC
30
CC
CC
30
30
CC
30
30
CC
CC
30
CC
CC
30
30
CC
30
30
CC
CC
30
CC
CC
ENDCHAR
STARTCHAR E148
ENCODING 57672
SWIDTH 690 0
DWIDTH 23 0
BBX 19 25 2 0
BITMAP
CDB360
CDB360
366D80
CDB360
CDB360
000180
000180
000360
000180
000180
CDB360
CDB360
366D80
CDB360
CDB360
300180
300180
CC0360
300180
300180
CDB360
CDB360
366D80
CDB360
CDB360
ENDCHAR
STARTCHAR E15F
ENCODING 57695
SWIDTH 1080 0
DWIDTH 36 0
BBX 32 25 2 0
BITMAP
CDB36CDB
CDB36CDB
366D9B66
CDB36CDB
CDB36CDB
00018006
00018006
0003601B
00018006
00018006
CDB36CDB
CDB36CDB
366D9B66
CDB36CDB
CDB36CDB
30018000
30018000
CC036000
30018000
30018000
CDB36CDB
CDB36CDB
366D9B66
CDB36CDB
CDB36CDB
ENDCHAR
STARTCHAR E160
ENCODING 57696
SWIDTH 690 0
DWIDTH 23 0
BBX 19 25 2 0
BITMAP
CDB360
CDB360
366D80
CDB360
CDB360
300180
300180
CC0360
300D80
300D80
CDB300
CDB300
366C00
CDB300
CDB300
300D80
300D80
CC0360
300180
300180
CDB360
CDB360
366D80
CDB360
CDB360
ENDCHAR
STARTCHAR E161
ENCODING 57697
SWIDTH 690 0
DWIDTH 23 0
BBX 19 25 2 0
BITMAP
CDB360
CDB360
366D80
CDB360
CDB360
300180
300180
CC0360
300180
300180
CC0360
CC0360
300000
CC0000
CC0000
300000
300000
CC0360
300180
300180
CDB360
CDB360
366D80
CDB360
CDB360
ENDCHAR
STARTCHAR E166
ENCODING 57702
SWIDTH 690 0
DWIDTH 23 0
BBX 19 25 2 0
BITMAP
CDB360
CDB360
366D80
CDB360
CDB360
300180
300180
CC0360
300180
300180
CDB360
CDB360
366D80
CDB360
CDB360
300000
300000
CC0000
300000
300000
CDB360
CDB360
366D80
CDB360
CDB360
ENDCHAR
STARTCHAR E177
ENCODING 57719
SWIDTH 690 0
DWIDTH 23 0
BBX 19 25 2 0
BITMAP
CDB360
CDB360
366D80
CDB360
CDB360
300000
300000
CC0000
300000
300000
CDB300
CDB300
366C00
CDB300
CDB300
300000
300000
CC0000
300000
300000
CC0000
CC0000
300000
CC0000
CC0000
ENDCHAR
STARTCHAR E178
ENCODING 57720
SWIDTH 690 0
DWIDTH 23 0
BBX 19 25 2 0
BITMAP
CDB360
CDB360
366D80
CDB360
CDB360
300000
300000
CC0000
300000
300000
CC3360
CC3360
300D80
CC3360
CC3360
300180
300180
CC0360
300180
300180
CDB360
CDB360
366D80
CDB360
CDB360
ENDCHAR
STARTCHAR E17C
ENCODING 57724
SWIDTH 480 0
DWIDTH 16 0
BBX 12 25 2 0
BITMAP
01B0
01B0
0060
01B0
01B0
0060
0060
01B0
0060
0060
01B0
01B0
0060
01B0
01B0
0060
0060
01B0
0060
0060
CDB0
CDB0
3660
CDB0
CDB0
ENDCHAR
STARTCHAR E17D
ENCODING 57725
SWIDTH 690 0
DWIDTH 23 0
BBX 19 25 2 0
BITMAP
CC0360
CC0360
300180
CC0360
CC0360
300D80
300D80
CC3300
306C00
306C00
CDB360
CDB360
366D80
CDB360
CDB360
300180
300180
CC0360
300180
300180
CC0360
CC0360
300180
CC0360
CC0360
ENDCHAR
STARTCHAR E17F
ENCODING 57727
SWIDTH 600 0
DWIDTH 20 0
BBX 16 25 2 0
BITMAP
CC00
CC00
3000
CC00
CC00
3000
3000
CC00
3000
3000
CC00
CC00
3000
CC00
CC00
3000
3000
CC00
3000
3000
CDB3
CDB3
366C
CDB3
CDB3
ENDCHAR
STARTCHAR E184
ENCODING 57732
SWIDTH 900 0
DWIDTH 30 0
BBX 26 25 2 0
BITMAP
CDB36CC0
CDB36CC0
366D9B00
CDB36CC0
CDB36CC0
300C0300
300C0300
CC330CC0
300C0300
300C0300
CC330CC0
CC330CC0
300C0300
CC330CC0
CC330CC0
300C0300
300C0300
CC330CC0
300C0300
300C0300
CC330CC0
CC330CC0
300C0300
CC330CC0
CC330CC0
ENDCHAR
STARTCHAR E185
ENCODING 57733
SWIDTH 690 0
DWIDTH 23 0
BBX 19 25 2 0
BITMAP
CDB360
CDB360
366D80
CDB360
CDB360
300180
300180
CC0360
300180
300180
CC0360
CC0360
300180
CC0360
CC0360
300180
300180
CC0360
300180
300180
CC0360
CC0360
300180
CC0360
CC0360
ENDCHAR
STARTCHAR E189
ENCODING 57737
SWIDTH 690 0
DWIDTH 23 0
BBX 19 32 2 -7
BITMAP
CDB360
CDB360
366D80
CDB360
CDB360
300180
300180
CC0360
300180
300180
CC0360
CC0360
300180
CC0360
CC0360
300180
300180
CC0360
300180
300180
CC0360
CC0360
300180
CC0360
CC0360
000180
000180
003360
000D80
000D80
003300
003300
ENDCHAR
STARTCHAR E18B
ENCODING 57739
SWIDTH 690 0
DWIDTH 23 0
BBX 19 25 2 0
BITMAP
CDB360
CDB360
366D80
CDB360
CDB360
300180
300180
CC0360
300180
300180
CC0360
CC0360
300180
CC0360
CC0360
300180
300180
CC0360
300180
300180
CDB360
CDB360
366D80
CDB360
CDB360
ENDCHAR
STARTCHAR E198
ENCODING 57752
SWIDTH 840 0
DWIDTH 28 0
BBX 26 28 2 0
BITMAP
00000CC0
00000300
00000300
CDB36CC0
CDB36CC0
366D9B00
CDB36C00
CDB36C00
30018000
30018000
CC036000
30018000
30018000
CC036000
CC036000
30018000
CC036000
CC036000
30018000
30018000
CC036000
30018000
30018000
CDB36000
CDB36000
366D8000
CDB36000
CDB36000
ENDCHAR
STARTCHAR E1A2
ENCODING 57762
SWIDTH 1080 0
DWIDTH 36 0
BBX 32 25 2 0
BITMAP
CDB36CDB
CDB36CDB
366D9B66
CDB36CDB
CDB36CDB
30018006
30018006
CC03601B
30018006
30018006
CC036CDB
CC036CDB
30019B66
CC036CDB
CC036CDB
30018000
30018000
CC036000
30018000
30018000
CDB36CDB
CDB36CDB
366D9B66
CDB36CDB
CDB36CDB
ENDCHAR
STARTCHAR E1A3
ENCODING 57763
SWIDTH 690 0
DWIDTH 23 0
BBX 19 25 2 0
BITMAP
CDB360
CDB360
366D80
CDB360
CDB360
300180
300180
CC0360
300180
300180
CC0360
CC0360
300180
CDB360
CDB360
366D80
366D80
CDB360
300000
300000
CC0000
CC0000
300000
CC0000
CC0000
ENDCHAR
STARTCHAR E1A4
ENCODING 57764
SWIDTH 690 0
DWIDTH 23 0
BBX 19 25 2 0
BITMAP
CC0000
CC0000
300000
CDB360
CDB360
366D80
366D80
CDB360
300180
300180
CC0360
CC0360
300180
CC0360
CC0360
300180
300180
CDB360
366D80
366D80
CDB360
CDB360
300000
CC0000
CC0000
ENDCHAR
STARTCHAR E1A5
ENCODING 57765
SWIDTH 690 0
DWIDTH 23 0
BBX 19 28 2 -3
BITMAP
CDB360
CDB360
366D80
CDB360
CDB360
300180
300180
CC0360
300180
300180
CC0360
CC0360
300180
CC0360
CC0360
300180
300180
CDB360
306180
306180
CDB360
CDB360
366D80
CDB360
CDB360
006000
006000
01B000
ENDCHAR
STARTCHAR E1A6
ENCODING 57766
SWIDTH 690 0
DWIDTH 23 0
BBX 19 25 2 0
BITMAP
CDB360
CDB360
366D80
CDB360
CDB360
300180
300180
CC0360
300180
300180
CC0360
CC0360
300180
CDB360
CDB360
366D80
366D80
CDB300
300D80
300D80
CC0360
CC0360
300180
CC0360
CC0360
ENDCHAR
STARTCHAR E1AA
ENCODING 57770
SWIDTH 690 0
DWIDTH 23 0
BBX 19 25 2 0
BITMAP
CDB360
CDB360
366D80
CDB360
CDB360
300000
300000
CC0000
300000
300000
CDB360
CDB360
366D80
CDB360
CDB360
000180
000180
000360
000180
000180
CDB360
CDB360
366D80
CDB360
CDB360
ENDCHAR
STARTCHAR E1B0
ENCODING 57776
SWIDTH 690 0
DWIDTH 23 0
BBX 19 25 2 0
BITMAP
CC0360
CC0360
300180
CC0360
CC0360
300180
300180
CC0360
300180
300180
CC0360
CC0360
300180
CC0360
CC0360
300180
300180
CC0360
300180
300180
CDB360
CDB360
366D80
CDB360
CDB360
ENDCHAR
STARTCHAR E1BC
ENCODING 57788
SWIDTH 840 0
DWIDTH 28 0
BBX 26 28 2 0
BITMAP
00000CC0
00000300
00000300
CC036CC0
CC036CC0
30019B00
CC036C00
CC036C00
30018000
30018000
CC036000
30018000
30018000
CC036000
CC036000
30018000
CC036000
CC036000
30018000
30018000
CC036000
30018000
30018000
CDB36000
CDB36000
366D8000
CDB36000
CDB36000
ENDCHAR
STARTCHAR E1C7
ENCODING 57799
SWIDTH 900 0
DWIDTH 30 0
BBX 26 25 2 0
BITMAP
CC330CC0
CC330CC0
300C0300
CC330CC0
CC330CC0
300C0300
300C0300
CC330CC0
300C0300
300C0300
CC330CC0
CC330CC0
300C0300
CC330CC0
CC330CC0
300C0300
300C0300
CC330CC0
300C0300
300C0300
CDB36CC0
CDB36CC0
366D9B00
CDB36CC0
CDB36CC0
ENDCHAR
STARTCHAR E1CC
ENCODING 57804
SWIDTH 690 0
DWIDTH 23 0
BBX 19 25 2 0
BITMAP
CC0360
CC0360
300180
CC0360
CC0360
300180
300180
CC0360
300180
300180
CDB360
CDB360
366D80
CDB360
CDB360
000180
000180
000360
000180
000180
CDB360
CDB360
366D80
CDB360
CDB360
ENDCHAR
STARTCHAR E1D4
ENCODING 57812
SWIDTH 690 0
DWIDTH 23 0
BBX 19 25 2 0
BITMAP
CDB360
CDB360
366D80
CDB360
CDB360
000180
000180
000360
000180
000180
CDB360
CDB360
366D80
CDB360
CDB360
300000
300000
CC0000
300000
300000
CDB360
CDB360
366D80
CDB360
CDB360
ENDCHAR
STARTCHAR E1D8
ENCODING 57816
SWIDTH 690 0
DWIDTH 23 0
BBX 19 25 2 0
BITMAP
CDB300
CDB300
366D80
CDB360
CDB360
000180
000180
000360
000180
000180
0DB360
0DB360
366D80
CDB360
CDB360
300180
300180
CC0360
300180
300180
CDB360
CDB360
366D80
0DB300
0DB300
ENDCHAR
STARTCHAR E1EF
ENCODING 57839
SWIDTH 1080 0
DWIDTH 36 0
BBX 32 25 2 0
BITMAP
CDB36CD8
CDB36CD8
366D9B66
CDB36CDB
CDB36CDB
00018006
00018006
0003601B
00018006
00018006
0DB36CDB
0DB36CDB
366D9B66
CDB36CDB
CDB36CDB
30018000
30018000
CC036000
30018000
30018000
CDB36CDB
CDB36CDB
366D9B66
0DB36CDB
0DB36CDB
ENDCHAR
STARTCHAR E1F0
ENCODING 57840
SWIDTH 690 0
DWIDTH 23 0
BBX 19 25 2 0
BITMAP
0DB360
0DB360
366D80
CDB360
CDB360
300000
300000
CC0000
300000
300000
CC0000
CC0000
300000
CC0000
CC0000
300000
300000
CC0000
300000
300000
CDB360
CDB360
366D80
0DB360
0DB360
ENDCHAR
STARTCHAR E1F5
ENCODING 57845
SWIDTH 690 0
DWIDTH 23 0
BBX 19 25 2 0
BITMAP
0DB300
0DB300
366D80
CDB360
CDB360
300180
300180
CC0360
300180
300180
CDB360
CDB360
366D80
CDB360
CDB360
300000
300000
CC0000
300000
300000
CDB360
CDB360
366D80
0DB360
0DB360
ENDCHAR
STARTCHAR E206
ENCODING 57862
SWIDTH 690 0
DWIDTH 23 0
BBX 19 25 2 0
BITMAP
0DB300
0DB300
366D80
CDB360
CDB360
300180
300180
CC0360
300000
300000
CDB000
CDB000
366000
CDB000
CDB000
300000
300000
CC0000
300000
300000
CC0000
CC0000
300000
CC0000
CC0000
ENDCHAR
STARTCHAR E207
ENCODING 57863
SWIDTH 690 0
DWIDTH 23 0
BBX 19 25 2 0
BITMAP
0DB360
0DB360
366D80
CDB360
CDB360
300180
300180
CC0360
300180
300180
CDB360
CDB360
366D80
0DB360
0DB360
000180
000180
000360
000180
000180
CDB360
CDB360
366D80
CDB300
CDB300
ENDCHAR
STARTCHAR E20B
ENCODING 57867
SWIDTH 600 0
DWIDTH 20 0
BBX 16 25 2 0
BITMAP
0033
0033
000C
0033
0033
000C
000C
0033
000C
000C
0033
0033
000C
0033
0033
000C
000C
CC33
300C
300C
CDB3
CDB3
366C
0DB0
0DB0
ENDCHAR
STARTCHAR E20C
ENCODING 57868
SWIDTH 1080 0
DWIDTH 36 0
BBX 32 25 2 0
BITMAP
0DB36CD8
0DB36CD8
366D9B66
CDB36CDB
CDB36CDB
30018006
30018006
CC03601B
30018006
30018006
CC03601B
CC03601B
30018006
CC03601B
CC03601B
30018006
30018006
CC03601B
30018006
30018006
CC03601B
CC03601B
30018006
CC03601B
CC03601B
ENDCHAR
STARTCHAR E20D
ENCODING 57869
SWIDTH 690 0
DWIDTH 23 0
BBX 19 25 2 0
BITMAP
0DB300
0DB300
366D80
CDB360
CDB360
300180
300180
CC0360
300180
300180
CC0360
CC0360
300180
CC0360
CC0360
300180
300180
CC0360
300180
300180
CC0360
CC0360
300180
CC0360
CC0360
ENDCHAR
STARTCHAR E211
ENCODING 57873
SWIDTH 690 0
DWIDTH 23 0
BBX 19 32 2 -7
BITMAP
0DB300
0DB300
366D80
CDB360
CDB360
300180
300180
CC0360
300180
300180
CC0360
CC0360
300180
CC0360
CC0360
300180
300180
CC0360
300180
300180
CC0360
CC0360
300180
CC0360
CC0360
000180
000180
003360
000D80
000D80
003300
003300
ENDCHAR
STARTCHAR E213
ENCODING 57875
SWIDTH 1080 0
DWIDTH 36 0
BBX 32 25 2 0
BITMAP
0DB36CD8
0DB36CD8
366D9B66
CDB36CDB
CDB36CDB
30018006
30018006
CC03601B
30018006
30018006
CC036CDB
CC036CDB
30019B66
CC036CDB
CC036CDB
30018000
30018000
CC036000
30018000
30018000
CDB36CDB
CDB36CDB
366D9B66
0DB36CDB
0DB36CDB
ENDCHAR
STARTCHAR E214
ENCODING 57876
SWIDTH 600 0
DWIDTH 20 0
BBX 16 25 2 0
BITMAP
0DB3
0DB3
366C
CDB3
CDB3
3000
3000
CC00
3000
3000
CC00
CC00
3000
CC00
CC00
3000
3000
CC00
3000
3000
CC00
CC00
3000
CC00
CC00
ENDCHAR
STARTCHAR E218
ENCODING 57880
SWIDTH 690 0
DWIDTH 23 0
BBX 19 25 2 0
BITMAP
0DB360
0DB360
366D80
CDB360
CDB360
300000
300000
CC0000
300000
300000
CDB300
CDB300
366D80
0DB360
0DB360
000180
000180
000360
000180
000180
CDB360
CDB360
366D80
CDB300
CDB300
ENDCHAR
STARTCHAR E21D
ENCODING 57885
SWIDTH 1080 0
DWIDTH 36 0
BBX 32 25 2 0
BITMAP
CC03601B
CC03601B
30018006
CC03601B
CC03601B
30018006
30018006
CC03601B
30018006
30018006
CC03601B
CC03601B
30018006
CC03601B
CC03601B
30018006
30018006
CC03601B
30018006
30018006
CDB36CDB
CDB36CDB
366D9B66
0DB36CD8
0DB36CD8
ENDCHAR
STARTCHAR E222
ENCODING 57890
SWIDTH 690 0
DWIDTH 23 0
BBX 19 25 2 0
BITMAP
CC0360
CC0360
300180
CC0360
CC0360
300180
300180
CC0360
300180
300180
CDB360
CDB360
366D80
0DB360
0DB360
000180
000180
000360
000180
000180
CDB360
CDB360
366D80
CDB300
CDB300
ENDCHAR
STARTCHAR E22A
ENCODING 57898
SWIDTH 690 0
DWIDTH 23 0
BBX 19 25 2 0
BITMAP
CD8000
CD8000
366000
CDB000
CDB000
306C00
306C00
CC3300
300D80
300D80
CC0360
CC0360
300180
CDB360
CDB360
366D80
366D80
CDB360
300180
300180
CC0360
CC0360
300180
CC0360
CC0360
ENDCHAR
STARTCHAR E242
ENCODING 57922
SWIDTH 690 0
DWIDTH 23 0
BBX 19 25 2 0
BITMAP
CDB360
CDB360
366D80
CDB360
CDB360
300180
300180
CC0360
300D80
300D80
CDB360
CDB360
366D80
CDB360
CDB360
300180
300180
CC0360
300D80
300D80
CDB300
CDB300
366C00
CDB000
CDB000
ENDCHAR
STARTCHAR E243
ENCODING 57923
SWIDTH 690 0
DWIDTH 23 0
BBX 19 25 2 0
BITMAP
CDB360
CDB360
366D80
CDB360
CDB360
300000
300000
CC0000
300000
300000
CC0000
CC0000
300000
CC0000
CC0000
360000
360000
0D8000
066000
066000
01B360
01B360
006D80
003360
003360
ENDCHAR
STARTCHAR E248
ENCODING 57928
SWIDTH 780 0
DWIDTH 26 0
BBX 22 25 2 0
BITMAP
CDB36C
CDB36C
366D98
CDB36C
CDB36C
300018
300018
CC006C
300018
300018
CC006C
CC006C
300018
CC006C
CC006C
300198
300198
CC0360
300D80
300D80
CDB300
CDB300
366C00
CDB000
CDB000
ENDCHAR
STARTCHAR E249
ENCODING 57929
SWIDTH 840 0
DWIDTH 28 0
BBX 25 25 1 0
BITMAP
1B36CD80
1B36CD80
06D9B600
1B36CD80
1B36CD80
06000600
06000600
1B000D80
06000600
06000600
DB300D80
DB300D80
66C00600
DB300D80
DB300D80
06003600
06003600
1B00CC00
0601B000
0601B000
1B36C000
1B36C000
06D98000
1B360000
1B360000
ENDCHAR
STARTCHAR E24B
ENCODING 57931
SWIDTH 840 0
DWIDTH 28 0
BBX 25 25 1 0
BITMAP
1B36CD80
1B36CD80
06D9B600
1B36CD80
1B36CD80
06000600
06000600
1B000D80
06000600
06000600
DB300D80
DB300D80
66C00600
DB300D80
DB300D80
06003600
06003600
1B00CC00
0601B000
0601B000
1B36C000
1B36C000
06D98000
1B360000
1B360000
ENDCHAR
STARTCHAR E24C
ENCODING 57932
SWIDTH 690 0
DWIDTH 23 0
BBX 19 25 2 0
BITMAP
01B360
01B360
066D80
0DB360
0DB360
360000
360000
CC0000
300000
300000
CDB300
CDB300
366C00
CDB300
CDB300
300000
300000
CC0000
300000
300000
CDB360
CDB360
366D80
CDB360
CDB360
ENDCHAR
STARTCHAR E25D
ENCODING 57949
SWIDTH 780 0
DWIDTH 26 0
BBX 22 25 2 0
BITMAP
CDB36C
CDB36C
366D98
CDB36C
CDB36C
300000
300000
CC0000
300000
300000
CC336C
CC336C
300D98
CC336C
CC336C
300018
300018
CC006C
360018
360018
0DB36C
0DB36C
066D98
01B36C
01B36C
ENDCHAR
STARTCHAR E261
ENCODING 57953
SWIDTH 600 0
DWIDTH 20 0
BBX 16 25 2 0
BITMAP
CDB3
CDB3
366C
CDB3
CDB3
000C
000C
0033
000C
000C
0033
0033
000C
0033
0033
000C
000C
CC33
306C
306C
CDB0
CDB0
3660
CD80
CD80
ENDCHAR
STARTCHAR E262
ENCODING 57954
SWIDTH 600 0
DWIDTH 20 0
BBX 16 25 2 0
BITMAP
CC00
CC00
3000
CC00
CC00
3000
3000
CC00
3000
3000
CC00
CC00
3000
CC00
CC00
3000
3000
CC00
3600
3600
0DB3
0DB3
066C
01B3
01B3
ENDCHAR
STARTCHAR E267
ENCODING 57959
SWIDTH 1080 0
DWIDTH 36 0
BBX 32 25 2 0
BITMAP
003360DB
003360DB
006D8366
01B36CDB
01B36CDB
06619B06
06619B06
0D836C1B
36019806
36019806
CC03601B
CC03601B
30018006
CC03601B
CC03601B
30018006
30018006
CC03601B
30018006
30018006
CC03601B
CC03601B
30018006
CC03601B
CC03601B
ENDCHAR
STARTCHAR E268
ENCODING 57960
SWIDTH 690 0
DWIDTH 23 0
BBX 19 25 2 0
BITMAP
003360
003360
006D80
01B360
01B360
066180
066180
0D8360
360180
360180
CC0360
CC0360
300180
CC0360
CC0360
300180
300180
CC0360
300180
300180
CC0360
CC0360
300180
CC0360
CC0360
ENDCHAR
STARTCHAR E26C
ENCODING 57964
SWIDTH 690 0
DWIDTH 23 0
BBX 19 32 2 -7
BITMAP
003360
003360
006D80
01B360
01B360
066180
066180
0D8360
360180
360180
CC0360
CC0360
300180
CC0360
CC0360
300180
300180
CC0360
300180
300180
CC0360
CC0360
300180
CC0360
CC0360
000180
000180
003360
000D80
000D80
003300
003300
ENDCHAR
STARTCHAR E26E
ENCODING 57966
SWIDTH 780 0
DWIDTH 26 0
BBX 22 25 2 0
BITMAP
01B36C
01B36C
066D98
0DB36C
0DB36C
360018
360018
CC006C
300018
300018
CC006C
CC006C
300018
CC006C
CC006C
300018
300018
CC006C
300198
300198
CDB360
CDB360
366D80
CDB300
CDB300
ENDCHAR
STARTCHAR E27F
ENCODING 57983
SWIDTH 690 0
DWIDTH 23 0
BBX 19 25 2 0
BITMAP
CDB360
CDB360
366D80
CDB360
CDB360
300180
300180
CC0360
300180
300180
CC0360
CC0360
300D80
CDB300
CDB300
366C00
366C00
CDB000
300000
300000
CC0000
CC0000
300000
CC0000
CC0000
ENDCHAR
STARTCHAR E280
ENCODING 57984
SWIDTH 690 0
DWIDTH 23 0
BBX 19 25 2 0
BITMAP
CC0000
CC0000
300000
CDB360
CDB360
366D80
366D80
CDB360
300180
300180
CC0360
CC0360
300180
CC0360
CC0360
300D80
300D80
CDB300
366C00
366C00
CDB000
CDB000
300000
CC0000
CC0000
ENDCHAR
STARTCHAR E281
ENCODING 57985
SWIDTH 780 0
DWIDTH 26 0
BBX 22 28 2 -3
BITMAP
01B36C
01B36C
066D98
0DB36C
0DB36C
360018
360018
CC006C
300018
300018
CC006C
CC006C
300018
CC006C
CC006C
300018
300018
CDB06C
306198
306198
CDB360
CDB360
366D80
CDB300
CDB300
006000
006000
01B000
ENDCHAR
STARTCHAR E282
ENCODING 57986
SWIDTH 690 0
DWIDTH 23 0
BBX 19 25 2 0
BITMAP
CDB360
CDB360
366D80
CDB360
CDB360
300180
300180
CC0360
300180
300180
CC0360
CC0360
300D80
CDB300
CDB300
366C00
366C00
CDB300
300D80
300D80
CC0360
CC0360
300180
CC0360
CC0360
ENDCHAR
STARTCHAR E286
ENCODING 57990
SWIDTH 690 0
DWIDTH 23 0
BBX 19 25 2 0
BITMAP
01B360
01B360
066D80
0DB360
0DB360
360000
360000
CC0000
300000
300000
CDB360
CDB360
366D80
CDB360
CDB360
000180
000180
000360
000D80
000D80
CDB300
CDB300
366C00
CDB000
CDB000
ENDCHAR
STARTCHAR E28A
ENCODING 57994
SWIDTH 690 0
DWIDTH 23 0
BBX 19 25 2 0
BITMAP
CC0360
CC0360
300180
CC0360
CC0360
300180
300180
CC0360
300180
300180
CC0360
CC0360
300180
CC0360
CC0360
360180
360180
0D8360
066180
066180
01B360
01B360
006D80
003360
003360
ENDCHAR
STARTCHAR E28B
ENCODING 57995
SWIDTH 1080 0
DWIDTH 36 0
BBX 32 25 2 0
BITMAP
CC03601B
CC03601B
30018006
CC03601B
CC03601B
30018006
30018006
CC03601B
30018006
30018006
CC03601B
CC03601B
30018006
CC03601B
CC03601B
36019806
36019806
0D836C1B
06619B06
06619B06
01B36CDB
01B36CDB
006D8366
003360DB
003360DB
ENDCHAR
STARTCHAR E290
ENCODING 58000
SWIDTH 690 0
DWIDTH 23 0
BBX 19 25 2 0
BITMAP
CC0360
CC0360
300180
CC0360
CC0360
300180
300180
CC0360
300180
300180
CC0360
CC0360
360180
0DB360
0DB360
066D80
066D80
01B360
000180
000180
000360
000360
000180
000360
000360
ENDCHAR
STARTCHAR E298
ENCODING 58008
SWIDTH 690 0
DWIDTH 23 0
BBX 19 25 2 0
BITMAP
CDB360
CDB360
366D80
CDB360
CDB360
000D80
000D80
003300
006C00
006C00
01B000
01B000
066000
0D8000
0D8000
360000
360000
CC0000
300000
300000
CDB360
CDB360
366D80
CDB360
CDB360
ENDCHAR
STARTCHAR E29C
ENCODING 58012
SWIDTH 780 0
DWIDTH 26 0
BBX 22 25 2 0
BITMAP
CDB300
CDB300
366D80
CDB360
CDB360
300198
300198
CC0000
300000
300000
CC336C
CC336C
300D98
CC336C
CC336C
300018
300018
CC006C
300198
300198
CDB360
CDB360
366D80
CDB300
CDB300
ENDCHAR
STARTCHAR E29D
ENCODING 58013
SWIDTH 690 0
DWIDTH 23 0
BBX 19 25 2 0
BITMAP
CDB360
CDB360
366D80
CDB360
CDB360
300180
300180
CC0360
300180
300180
CC0360
CC0360
300180
CDB360
CDB360
366D80
366D80
CDB360
300180
300180
CC0360
CC0360
300180
CC0360
CC0360
ENDCHAR
STARTCHAR E29E
ENCODING 58014
SWIDTH 690 0
DWIDTH 23 0
BBX 19 25 2 0
BITMAP
CDB360
CDB360
366D80
CDB360
CDB360
300000
300000
CC0000
300000
300000
CDB300
CDB300
366D80
CDB360
CDB360
300180
300180
CC0360
300180
300180
CDB360
CDB360
366D80
CDB300
CDB300
ENDCHAR
STARTCHAR E29F
ENCODING 58015
SWIDTH 690 0
DWIDTH 23 0
BBX 19 25 2 0
BITMAP
CDB360
CDB360
366D80
CDB360
CDB360
300180
300180
CC0360
300D80
300D80
CDB300
CDB300
366C00
CDB300
CDB300
300D80
300D80
CC0360
300180
300180
CDB360
CDB360
366D80
CDB360
CDB360
ENDCHAR
STARTCHAR E2A0
ENCODING 58016
SWIDTH 690 0
DWIDTH 23 0
BBX 19 25 2 0
BITMAP
CDB360
CDB360
366D80
CDB360
CDB360
300000
300000
CC0000
300000
300000
CC0000
CC0000
300000
CC0000
CC0000
300000
300000
CC0000
300000
300000
CC0000
CC0000
300000
CC0000
CC0000
ENDCHAR
STARTCHAR E2A2
ENCODING 58018
SWIDTH 690 0
DWIDTH 23 0
BBX 19 25 2 0
BITMAP
CDB360
CDB360
366D80
CDB360
CDB360
300000
300000
CC0000
300000
300000
CDB300
CDB300
366C00
CDB300
CDB300
300000
300000
CC0000
300000
300000
CDB360
CDB360
366D80
CDB360
CDB360
ENDCHAR
STARTCHAR E2A4
ENCODING 58020
SWIDTH 1080 0
DWIDTH 36 0
BBX 32 25 2 0
BITMAP
CC03601B
CC03601B
30018006
CC03601B
CC03601B
36018066
36018066
0D8360D8
06618360
06618360
CDB36CDB
CDB36CDB
366D9B66
CDB36CDB
CDB36CDB
30018006
30018006
CC03601B
30018006
30018006
CC03601B
CC03601B
30018006
CC03601B
CC03601B
ENDCHAR
STARTCHAR E2A5
ENCODING 58021
SWIDTH 780 0
DWIDTH 26 0
BBX 22 25 2 0
BITMAP
CDB36C
CDB36C
366D98
CDB36C
CDB36C
300018
300018
CC006C
000198
000198
01B360
01B360
006D80
01B360
01B360
000198
000198
CC006C
300018
300018
CDB36C
CDB36C
366D98
CDB36C
CDB36C
ENDCHAR
STARTCHAR E2A6
ENCODING 58022
SWIDTH 690 0
DWIDTH 23 0
BBX 19 25 2 0
BITMAP
CC0360
CC0360
300180
CC0360
CC0360
300D80
300D80
CC3300
306C00
306C00
CDB360
CDB360
366D80
CDB360
CDB360
300180
300180
CC0360
300180
300180
CC0360
CC0360
300180
CC0360
CC0360
ENDCHAR
STARTCHAR E2A8
ENCODING 58024
SWIDTH 1080 0
DWIDTH 36 0
BBX 32 25 2 0
BITMAP
CDB36CDB
CDB36CDB
366D9B66
CDB36CDB
CDB36CDB
30018006
30018006
CC03601B
30018006
30018006
CC03601B
CC03601B
30018006
CC03601B
CC03601B
30018006
30018006
CC03601B
30018006
30018006
CC03601B
CC03601B
30018006
CC03601B
CC03601B
ENDCHAR
STARTCHAR E2A9
ENCODING 58025
SWIDTH 780 0
DWIDTH 26 0
BBX 22 25 2 0
BITMAP
CDB36C
CDB36C
366D98
CDB36C
CDB36C
300018
300018
CC006C
300018
300018
CC006C
CC006C
300018
CC006C
CC006C
300018
300018
CC006C
300018
300018
CDB36C
CDB36C
366D98
CDB36C
CDB36C
ENDCHAR
STARTCHAR E2AA
ENCODING 58026
SWIDTH 780 0
DWIDTH 26 0
BBX 22 25 2 0
BITMAP
CDB36C
CDB36C
366D98
CDB36C
CDB36C
300018
300018
CC006C
300018
300018
CC006C
CC006C
300018
CC006C
CC006C
300018
300018
CC006C
300018
300018
CC006C
CC006C
300018
CC006C
CC006C
ENDCHAR
STARTCHAR E2AB
ENCODING 58027
SWIDTH 690 0
DWIDTH 23 0
BBX 19 25 2 0
BITMAP
CDB360
CDB360
366D80
CDB360
CDB360
300180
300180
CC0360
300180
300180
CC0360
CC0360
300180
CC0360
CC0360
300180
300180
CDB360
366D80
366D80
CDB360
CDB360
300000
CC0000
CC0000
ENDCHAR
STARTCHAR E2AC
ENCODING 58028
SWIDTH 780 0
DWIDTH 26 0
BBX 22 25 2 0
BITMAP
CDB36C
CDB36C
366D98
CDB36C
CDB36C
300018
300018
CC006C
300018
300018
CC006C
CC006C
300000
CC0000
CC0000
300000
300000
CC006C
300018
300018
CDB36C
CDB36C
366D98
CDB36C
CDB36C
ENDCHAR
STARTCHAR E2AD
ENCODING 58029
SWIDTH 690 0
DWIDTH 23 0
BBX 19 25 2 0
BITMAP
CC0360
CC0360
300180
CC0360
CC0360
300180
300180
CC0360
300180
300180
CDB360
CDB360
366D80
CDB360
CDB360
000180
000180
000360
000180
000180
CDB360
CDB360
366D80
CDB360
CDB360
ENDCHAR
STARTCHAR E2AE
ENCODING 58030
SWIDTH 900 0
DWIDTH 30 0
BBX 26 31 2 -3
BITMAP
00330000
000C0000
000C0000
CDB36CC0
CDB36CC0
366D9B00
CDB36CC0
CDB36CC0
300C0300
300C0300
CC330CC0
300C0300
300C0300
CC330CC0
CC330CC0
300C0300
CC330CC0
CC330CC0
300C0300
300C0300
CC330CC0
300C0300
300C0300
CDB36CC0
CDB36CC0
366D9B00
CDB36CC0
CDB36CC0
000C0000
000C0000
00330000
ENDCHAR
STARTCHAR E2AF
ENCODING 58031
SWIDTH 780 0
DWIDTH 26 0
BBX 22 25 2 0
BITMAP
CC006C
CC006C
300018
CC006C
CC006C
300018
300018
CC006C
360198
360198
0DB360
0DB360
066D80
0DB360
0DB360
360198
360198
CC006C
300018
300018
CC006C
CC006C
300018
CC006C
CC006C
ENDCHAR
STARTCHAR E2B0
ENCODING 58032
SWIDTH 690 0
DWIDTH 23 0
BBX 19 25 2 0
BITMAP
CC0360
CC0360
300180
CC0360
CC0360
300180
300180
CC0360
300180
300180
CDB360
CDB360
366D80
CDB360
CDB360
000180
000180
000360
000180
000180
000360
000360
000180
000360
000360
ENDCHAR
STARTCHAR E2B1
ENCODING 58033
SWIDTH 840 0
DWIDTH 28 0
BBX 26 28 2 -3
BITMAP
CC006C00
CC006C00
30001800
CC006C00
CC006C00
30001800
30001800
CC006C00
30001800
30001800
CC006C00
CC006C00
30001800
CC006C00
CC006C00
30001800
30001800
CC006C00
30001800
30001800
CDB36C00
CDB36C00
366D9B00
CDB36CC0
CDB36CC0
00000300
00000300
00000CC0
ENDCHAR
STARTCHAR E2B2
ENCODING 58034
SWIDTH 1080 0
DWIDTH 36 0
BBX 32 25 2 0
BITMAP
CC03601B
CC03601B
30018006
CC03601B
CC03601B
30018006
30018006
CC03601B
30018006
30018006
CC03601B
CC03601B
30018006
CC03601B
CC03601B
30018006
30018006
CC03601B
30018006
30018006
CDB36CDB
CDB36CDB
366D9B66
CDB36CDB
CDB36CDB
ENDCHAR
STARTCHAR E2B3
ENCODING 58035
SWIDTH 1140 0
DWIDTH 38 0
BBX 36 28 2 -3
BITMAP
CC03601B00
CC03601B00
3001800600
CC03601B00
CC03601B00
3001800600
3001800600
CC03601B00
3001800600
3001800600
CC03601B00
CC03601B00
3001800600
CC03601B00
CC03601B00
3001800600
3001800600
CC03601B00
3001800600
3001800600
CDB36CDB00
CDB36CDB00
366D9B66C0
CDB36CDB30
CDB36CDB30
00000000C0
00000000C0
0000000330
ENDCHAR
STARTCHAR E2B4
ENCODING 58036
SWIDTH 690 0
DWIDTH 23 0
BBX 19 25 2 0
BITMAP
CC0000
CC0000
300000
CC0000
CC0000
300000
300000
CC0000
300000
300000
CDB360
CDB360
366D80
CDB360
CDB360
300180
300180
CC0360
300180
300180
CDB360
CDB360
366D80
CDB360
CDB360
ENDCHAR
STARTCHAR E2B5
ENCODING 58037
SWIDTH 780 0
DWIDTH 26 0
BBX 22 25 2 0
BITMAP
CD8000
CD8000
360000
CD8000
CD8000
060000
060000
0D8000
060000
060000
0DB36C
0DB36C
066D98
0DB36C
0DB36C
060018
060018
0D806C
060018
060018
0DB36C
0DB36C
066D98
0DB36C
0DB36C
ENDCHAR
STARTCHAR E2B6
ENCODING 58038
SWIDTH 930 0
DWIDTH 31 0
BBX 27 25 2 0
BITMAP
CC000360
CC000360
300000C0
CC000360
CC000360
300000C0
300000C0
CC000360
300000C0
300000C0
CDB36360
CDB36360
366D80C0
CDB36360
CDB36360
300180C0
300180C0
CC036360
300180C0
300180C0
CDB36360
CDB36360
366D80C0
CDB36360
CDB36360
ENDCHAR
STARTCHAR E2B7
ENCODING 58039
SWIDTH 780 0
DWIDTH 26 0
BBX 22 25 2 0
BITMAP
CDB36C
CDB36C
366D98
CDB36C
CDB36C
300018
300018
CC006C
000018
000018
01B36C
01B36C
006D98
01B36C
01B36C
000018
000018
CC006C
300018
300018
CDB36C
CDB36C
366D98
CDB36C
CDB36C
ENDCHAR
STARTCHAR E2B8
ENCODING 58040
SWIDTH 1080 0
DWIDTH 36 0
BBX 32 25 2 0
BITMAP
CC336CDB
CC336CDB
300D9B66
CC336CDB
CC336CDB
300C0006
300C0006
CC33001B
300C0006
300C0006
CDB3001B
CDB3001B
366C0006
CDB3001B
CDB3001B
300C0006
300C0006
CC33001B
300C0006
300C0006
CC336CDB
CC336CDB
300D9B66
CC336CDB
CC336CDB
ENDCHAR
STARTCHAR E2B9
ENCODING 58041
SWIDTH 690 0
DWIDTH 23 0
BBX 19 25 2 0
BITMAP
CDB360
CDB360
366D80
CDB360
CDB360
300180
300180
CC0360
300180
300180
CC0360
CC0360
300180
CC0360
CC0360
300180
300180
CDB360
366D80
366D80
0DB360
0DB360
360180
CC0360
CC0360
ENDCHAR
STARTCHAR E2BE
ENCODING 58046
SWIDTH 690 0
DWIDTH 23 0
BBX 19 25 2 0
BITMAP
003360
003360
006D80
01B360
01B360
066180
066180
0D8360
360180
360180
CC0360
CC0360
300180
CDB360
CDB360
366D80
366D80
CDB360
300180
300180
CC0360
CC0360
300180
CC0360
CC0360
ENDCHAR
STARTCHAR E2BF
ENCODING 58047
SWIDTH 690 0
DWIDTH 23 0
BBX 19 25 2 0
BITMAP
CDB360
CDB360
366D80
CDB360
CDB360
300000
300000
CC0000
300000
300000
CDB360
CDB360
366D80
CDB360
CDB360
300180
300180
CC0360
300D80
300D80
CDB300
CDB300
366C00
CDB000
CDB000
ENDCHAR
STARTCHAR E2C0
ENCODING 58048
SWIDTH 690 0
DWIDTH 23 0
BBX 19 25 2 0
BITMAP
CDB360
CDB360
366D80
CDB360
CDB360
300180
300180
CC0360
300D80
300D80
CDB360
CDB360
366D80
CDB360
CDB360
300180
300180
CC0360
300D80
300D80
CDB300
CDB300
366C00
CDB000
CDB000
ENDCHAR
STARTCHAR E2C1
ENCODING 58049
SWIDTH 690 0
DWIDTH 23 0
BBX 19 25 2 0
BITMAP
01B360
01B360
066D80
0DB360
0DB360
360000
360000
CC0000
300000
300000
CC0000
CC0000
300000
CC0000
CC0000
300000
300000
CC0000
300000
300000
CC0000
CC0000
300000
CC0000
CC0000
ENDCHAR
STARTCHAR E2C2
ENCODING 58050
SWIDTH 690 0
DWIDTH 23 0
BBX 19 25 2 0
BITMAP
CDB360
CDB360
366D80
CDB360
CDB360
300000
300000
CC0000
300000
300000
CDB300
CDB300
366C00
CDB300
CDB300
300000
300000
CC0000
360000
360000
0DB360
0DB360
066D80
01B360
01B360
ENDCHAR
STARTCHAR E2C5
ENCODING 58053
SWIDTH 780 0
DWIDTH 26 0
BBX 22 25 2 0
BITMAP
0DB36C
0DB36C
066D98
0DB36C
0DB36C
060018
060018
0D806C
060018
060018
0D806C
0D806C
060018
0D806C
0D806C
060018
060018
0D806C
060018
060018
CD806C
CD806C
360018
CC006C
CC006C
ENDCHAR
STARTCHAR E2C6
ENCODING 58054
SWIDTH 1080 0
DWIDTH 36 0
BBX 32 25 2 0
BITMAP
CD836C00
CD836C00
36619B00
CDB36CC0
CDB36CC0
306D8360
306D8360
CC3360D8
300D8066
300D8066
CC03601B
CC03601B
30018006
CC03601B
CC03601B
30018006
30018006
CC03601B
30018006
30018006
CC03601B
CC03601B
30018006
CC03601B
CC03601B
ENDCHAR
STARTCHAR E2C7
ENCODING 58055
SWIDTH 780 0
DWIDTH 26 0
BBX 22 25 2 0
BITMAP
CDB300
CDB300
366D80
CDB360
CDB360
300198
300198
CC006C
300018
300018
CC006C
CC006C
300018
CC006C
CC006C
300018
300018
CC006C
360018
360018
0DB36C
0DB36C
066D98
01B36C
01B36C
ENDCHAR
STARTCHAR E2C8
ENCODING 58056
SWIDTH 690 0
DWIDTH 23 0
BBX 19 25 2 0
BITMAP
CDB360
CDB360
366D80
CDB360
CDB360
300180
300180
CC0360
300180
300180
CC0360
CC0360
300180
CC0360
CC0360
300D80
300D80
CDB300
366C00
366C00
CDB000
CDB000
300000
CC0000
CC0000
ENDCHAR
STARTCHAR E2C9
ENCODING 58057
SWIDTH 690 0
DWIDTH 23 0
BBX 19 25 2 0
BITMAP
003360
003360
006D80
01B360
01B360
066000
066000
0D8000
360000
360000
CC0000
CC0000
300000
CC0000
CC0000
300000
300000
CC0000
300000
300000
CDB360
CDB360
366D80
CDB360
CDB360
ENDCHAR
STARTCHAR E2CA
ENCODING 58058
SWIDTH 900 0
DWIDTH 30 0
BBX 26 31 2 -3
BITMAP
00330000
000C0000
000C0000
CDB36000
CDB36000
366D9800
CDB36C00
CDB36C00
300C1B00
300C1B00
CC330CC0
300C0300
300C0300
CC330CC0
CC330CC0
300C0300
CC330CC0
CC330CC0
300C0300
300C0300
CC330CC0
360C0300
360C0300
0DB36CC0
0DB36CC0
066D9B00
01B36CC0
01B36CC0
000C0000
000C0000
00330000
ENDCHAR
STARTCHAR E2CB
ENCODING 58059
SWIDTH 690 0
DWIDTH 23 0
BBX 19 25 2 0
BITMAP
CC0000
CC0000
300000
CC0000
CC0000
300000
300000
CC0000
300000
300000
CDB360
CDB360
366D80
CDB360
CDB360
300180
300180
CC0360
300D80
300D80
CDB300
CDB300
366C00
CDB000
CDB000
ENDCHAR
STARTCHAR E2CC
ENCODING 58060
SWIDTH 780 0
DWIDTH 26 0
BBX 22 25 2 0
BITMAP
CD8000
CD8000
360000
CD8000
CD8000
060000
060000
0D8000
060000
060000
0DB36C
0DB36C
066D98
0DB36C
0DB36C
060018
060018
0D806C
060198
060198
0DB360
0DB360
066D80
0DB300
0DB300
ENDCHAR
STARTCHAR E2CD
ENCODING 58061
SWIDTH 930 0
DWIDTH 31 0
BBX 27 25 2 0
BITMAP
CC000360
CC000360
300000C0
CC000360
CC000360
300000C0
300000C0
CC000360
300000C0
300000C0
CDB36360
CDB36360
366D80C0
CDB36360
CDB36360
300180C0
300180C0
CC036360
300D80C0
300D80C0
CDB30360
CDB30360
366C00C0
CDB00360
CDB00360
ENDCHAR
STARTCHAR E2CF
ENCODING 58063
SWIDTH 1080 0
DWIDTH 36 0
BBX 32 25 2 0
BITMAP
CC336CC0
CC336CC0
300D9B60
CC336CD8
CC336CD8
300C0066
300C0066
CC33001B
300C0006
300C0006
CDB3001B
CDB3001B
366C0006
CDB3001B
CDB3001B
300C0006
300C0006
CC33001B
300D8006
300D8006
CC036CDB
CC036CDB
30019B66
CC006CDB
CC006CDB
ENDCHAR
STARTCHAR E2D0
ENCODING 58064
SWIDTH 690 0
DWIDTH 23 0
BBX 19 25 2 0
BITMAP
CDB360
CDB360
366D80
CDB360
CDB360
300180
300180
CC0360
300180
300180
CC0360
CC0360
300180
CC0360
CC0360
360180
360180
0DB360
066D80
066D80
0DB360
0DB360
360180
CC0360
CC0360
ENDCHAR
STARTCHAR E2D1
ENCODING 58065
SWIDTH 690 0
DWIDTH 23 0
BBX 19 25 2 0
BITMAP
CDB360
CDB360
366D80
CDB360
CDB360
000180
000180
000360
000180
000180
CDB360
CDB360
366D80
CDB360
CDB360
300180
300180
CC0360
300180
300180
CDB360
CDB360
366D80
CDB360
CDB360
ENDCHAR
STARTCHAR E2D2
ENCODING 58066
SWIDTH 690 0
DWIDTH 23 0
BBX 19 25 2 0
BITMAP
CDB360
CDB360
366D80
CDB360
CDB360
300000
300000
CC0000
300000
300000
CDB300
CDB300
366D80
CDB360
CDB360
300180
300180
CC0360
300180
300180
CDB360
CDB360
366D80
CDB300
CDB300
ENDCHAR
STARTCHAR E2D3
ENCODING 58067
SWIDTH 690 0
DWIDTH 23 0
BBX 19 25 2 0
BITMAP
CDB360
CDB360
366D80
CDB360
CDB360
300180
300180
CC0360
300D80
300D80
CDB300
CDB300
366C00
CDB300
CDB300
300D80
300D80
CC0360
300180
300180
CDB360
CDB360
366D80
CDB360
CDB360
ENDCHAR
STARTCHAR E2D4
ENCODING 58068
SWIDTH 600 0
DWIDTH 20 0
BBX 16 25 2 0
BITMAP
CDB3
CDB3
366C
CDB3
CDB3
3000
3000
CC00
3000
3000
CC00
CC00
3000
CC00
CC00
3000
3000
CC00
3000
3000
CC00
CC00
3000
CC00
CC00
ENDCHAR
STARTCHAR E2D6
ENCODING 58070
SWIDTH 690 0
DWIDTH 23 0
BBX 19 25 2 0
BITMAP
CDB360
CDB360
366D80
CDB360
CDB360
300180
300180
CC0360
300180
300180
CDB360
CDB360
366D80
CDB360
CDB360
300000
300000
CC0000
300000
300000
CDB360
CDB360
366D80
CDB360
CDB360
ENDCHAR
STARTCHAR E2D8
ENCODING 58072
SWIDTH 1080 0
DWIDTH 36 0
BBX 32 25 2 0
BITMAP
CC03601B
CC03601B
30018006
CC03601B
CC03601B
36018066
36018066
0D8360D8
06618360
06618360
CDB36CDB
CDB36CDB
366D9B66
CDB36CDB
CDB36CDB
30018006
30018006
CC03601B
30018006
30018006
CC03601B
CC03601B
30018006
CC03601B
CC03601B
ENDCHAR
STARTCHAR E2D9
ENCODING 58073
SWIDTH 690 0
DWIDTH 23 0
BBX 19 25 2 0
BITMAP
CDB360
CDB360
366D80
CDB360
CDB360
300180
300180
CC0360
000D80
000D80
01B300
01B300
006C00
01B300
01B300
000D80
000D80
CC0360
300180
300180
CDB360
CDB360
366D80
CDB360
CDB360
ENDCHAR
STARTCHAR E2DA
ENCODING 58074
SWIDTH 690 0
DWIDTH 23 0
BBX 19 25 2 0
BITMAP
CC0360
CC0360
300180
CC0360
CC0360
300D80
300D80
CC3300
306C00
306C00
CDB360
CDB360
366D80
CDB360
CDB360
300180
300180
CC0360
300180
300180
CC0360
CC0360
300180
CC0360
CC0360
ENDCHAR
STARTCHAR E2DC
ENCODING 58076
SWIDTH 900 0
DWIDTH 30 0
BBX 26 25 2 0
BITMAP
CDB36CC0
CDB36CC0
366D9B00
CDB36CC0
CDB36CC0
300C0300
300C0300
CC330CC0
300C0300
300C0300
CC330CC0
CC330CC0
300C0300
CC330CC0
CC330CC0
300C0300
300C0300
CC330CC0
300C0300
300C0300
CC330CC0
CC330CC0
300C0300
CC330CC0
CC330CC0
ENDCHAR
STARTCHAR E2DD
ENCODING 58077
SWIDTH 690 0
DWIDTH 23 0
BBX 19 25 2 0
BITMAP
CDB360
CDB360
366D80
CDB360
CDB360
300180
300180
CC0360
300180
300180
CC0360
CC0360
300180
CC0360
CC0360
300180
300180
CC0360
300180
300180
CDB360
CDB360
366D80
CDB360
CDB360
ENDCHAR
STARTCHAR E2DE
ENCODING 58078
SWIDTH 690 0
DWIDTH 23 0
BBX 19 25 2 0
BITMAP
CDB360
CDB360
366D80
CDB360
CDB360
300180
300180
CC0360
300180
300180
CC0360
CC0360
300180
CC0360
CC0360
300180
300180
CC0360
300180
300180
CC0360
CC0360
300180
CC0360
CC0360
ENDCHAR
STARTCHAR E2DF
ENCODING 58079
SWIDTH 690 0
DWIDTH 23 0
BBX 19 25 2 0
BITMAP
CDB360
CDB360
366D80
CDB360
CDB360
300180
300180
CC0360
300180
300180
CC0360
CC0360
300180
CDB360
CDB360
366D80
366D80
CDB360
300000
300000
CC0000
CC0000
300000
CC0000
CC0000
ENDCHAR
STARTCHAR E2E0
ENCODING 58080
SWIDTH 690 0
DWIDTH 23 0
BBX 19 25 2 0
BITMAP
CDB360
CDB360
366D80
CDB360
CDB360
300180
300180
CC0360
300180
300180
CC0360
CC0360
300000
CC0000
CC0000
300000
300000
CC0360
300180
300180
CDB360
CDB360
366D80
CDB360
CDB360
ENDCHAR
STARTCHAR E2E1
ENCODING 58081
SWIDTH 690 0
DWIDTH 23 0
BBX 19 25 2 0
BITMAP
CC0360
CC0360
300180
CC0360
CC0360
300180
300180
CC0360
300180
300180
CDB360
CDB360
366D80
CDB360
CDB360
000180
000180
000360
000180
000180
CDB360
CDB360
366D80
CDB360
CDB360
ENDCHAR
STARTCHAR E2E2
ENCODING 58082
SWIDTH 900 0
DWIDTH 30 0
BBX 26 31 2 -3
BITMAP
00330000
000C0000
000C0000
CDB36CC0
CDB36CC0
366D9B00
CDB36CC0
CDB36CC0
300C0300
300C0300
CC330CC0
300C0300
300C0300
CC330CC0
CC330CC0
300C0300
CC330CC0
CC330CC0
300C0300
300C0300
CC330CC0
300C0300
300C0300
CDB36CC0
CDB36CC0
366D9B00
CDB36CC0
CDB36CC0
000C0000
000C0000
00330000
ENDCHAR
STARTCHAR E2E3
ENCODING 58083
SWIDTH 690 0
DWIDTH 23 0
BBX 19 25 2 0
BITMAP
CC0360
CC0360
300180
CC0360
CC0360
300180
300180
CC0360
300180
300180
CDB360
CDB360
366D80
CDB360
CDB360
000180
000180
000360
000180
000180
000360
000360
000180
000360
000360
ENDCHAR
STARTCHAR E2E4
ENCODING 58084
SWIDTH 750 0
DWIDTH 25 0
BBX 22 28 2 -3
BITMAP
CC0360
CC0360
300180
CC0360
CC0360
300180
300180
CC0360
300180
300180
CC0360
CC0360
300180
CC0360
CC0360
300180
300180
CC0360
300180
300180
CDB360
CDB360
366D98
CDB36C
CDB36C
000018
000018
00006C
ENDCHAR
STARTCHAR E2E5
ENCODING 58085
SWIDTH 900 0
DWIDTH 30 0
BBX 26 25 2 0
BITMAP
CC330CC0
CC330CC0
300C0300
CC330CC0
CC330CC0
300C0300
300C0300
CC330CC0
300C0300
300C0300
CC330CC0
CC330CC0
300C0300
CC330CC0
CC330CC0
300C0300
300C0300
CC330CC0
300C0300
300C0300
CDB36CC0
CDB36CC0
366D9B00
CDB36CC0
CDB36CC0
ENDCHAR
ENDFONT
